<?xml version="1.0" encoding="utf-8" standalone="no"?>
<!DOCTYPE svg PUBLIC "-//W3C//DTD SVG 1.1//EN"
  "http://www.w3.org/Graphics/SVG/1.1/DTD/svg11.dtd">
<svg xmlns:xlink="http://www.w3.org/1999/xlink" width="864pt" height="576pt" viewBox="0 0 864 576" xmlns="http://www.w3.org/2000/svg" version="1.1">
 <metadata>
  <rdf:RDF xmlns:dc="http://purl.org/dc/elements/1.1/" xmlns:cc="http://creativecommons.org/ns#" xmlns:rdf="http://www.w3.org/1999/02/22-rdf-syntax-ns#">
   <cc:Work>
    <dc:type rdf:resource="http://purl.org/dc/dcmitype/StillImage"/>
    <dc:date>2026-07-06T19:43:33.234170</dc:date>
    <dc:format>image/svg+xml</dc:format>
    <dc:creator>
     <cc:Agent>
      <dc:title>Matplotlib v3.11.0, https://matplotlib.org/</dc:title>
     </cc:Agent>
    </dc:creator>
   </cc:Work>
  </rdf:RDF>
 </metadata>
 <defs>
  <style type="text/css">*{stroke-linejoin: round; stroke-linecap: butt}</style>
 </defs>
 <g id="figure_1">
  <g id="patch_1">
   <path d="M 0 576 
L 864 576 
L 864 0 
L 0 0 
z
" style="fill: #ffffff"/>
  </g>
  <g id="axes_1">
   <g id="patch_2">
    <path d="M 59.321719 257.758574 
L 427.68 257.758574 
L 427.68 54.486797 
L 59.321719 54.486797 
z
" style="fill: #ffffff"/>
   </g>
   <g id="matplotlib.axis_1">
    <g id="xtick_1">
     <g id="line2d_1">
      <path d="M 111.08468 257.758574 
L 111.08468 54.486797 
" clip-path="url(#pa032e68878)" style="fill: none; stroke: #cccccc; stroke-linecap: round"/>
     </g>
     <g id="text_1">
      <!-- $\mathdefault{10^{2}}$ -->
      <g style="fill: #262626" transform="translate(102.61468 277.378574) scale(0.11 -0.11)">
       <defs>
        <path id="ArialMT-14" d="M 2384 0 
L 1822 0 
L 1822 3584 
Q 1619 3391 1289 3197 
Q 959 3003 697 2906 
L 697 3450 
Q 1169 3672 1522 3987 
Q 1875 4303 2022 4600 
L 2384 4600 
L 2384 0 
z
" transform="scale(0.015625)"/>
        <path id="ArialMT-13" d="M 266 2259 
Q 266 3072 433 3567 
Q 600 4063 929 4331 
Q 1259 4600 1759 4600 
Q 2128 4600 2406 4451 
Q 2684 4303 2865 4023 
Q 3047 3744 3150 3342 
Q 3253 2941 3253 2259 
Q 3253 1453 3087 958 
Q 2922 463 2592 192 
Q 2263 -78 1759 -78 
Q 1097 -78 719 397 
Q 266 969 266 2259 
z
M 844 2259 
Q 844 1131 1108 757 
Q 1372 384 1759 384 
Q 2147 384 2411 759 
Q 2675 1134 2675 2259 
Q 2675 3391 2411 3762 
Q 2147 4134 1753 4134 
Q 1366 4134 1134 3806 
Q 844 3388 844 2259 
z
" transform="scale(0.015625)"/>
        <path id="ArialMT-15" d="M 3222 541 
L 3222 0 
L 194 0 
Q 188 203 259 391 
Q 375 700 629 1000 
Q 884 1300 1366 1694 
Q 2113 2306 2375 2664 
Q 2638 3022 2638 3341 
Q 2638 3675 2398 3904 
Q 2159 4134 1775 4134 
Q 1369 4134 1125 3890 
Q 881 3647 878 3216 
L 300 3275 
Q 359 3922 746 4261 
Q 1134 4600 1788 4600 
Q 2447 4600 2831 4234 
Q 3216 3869 3216 3328 
Q 3216 3053 3103 2787 
Q 2991 2522 2730 2228 
Q 2469 1934 1863 1422 
Q 1356 997 1212 845 
Q 1069 694 975 541 
L 3222 541 
z
" transform="scale(0.015625)"/>
       </defs>
       <use xlink:href="#ArialMT-14" transform="translate(0 0.3875)"/>
       <use xlink:href="#ArialMT-13" transform="translate(55.615234 0.3875)"/>
       <use xlink:href="#ArialMT-15" transform="translate(112.1875 41.6875) scale(0.7)"/>
      </g>
     </g>
    </g>
    <g id="xtick_2">
     <g id="line2d_2">
      <path d="M 178.058913 257.758574 
L 178.058913 54.486797 
" clip-path="url(#pa032e68878)" style="fill: none; stroke: #cccccc; stroke-linecap: round"/>
     </g>
     <g id="text_2">
      <!-- $\mathdefault{10^{3}}$ -->
      <g style="fill: #262626" transform="translate(169.588913 277.378574) scale(0.11 -0.11)">
       <defs>
        <path id="ArialMT-16" d="M 269 1209 
L 831 1284 
Q 928 806 1161 595 
Q 1394 384 1728 384 
Q 2125 384 2398 659 
Q 2672 934 2672 1341 
Q 2672 1728 2419 1979 
Q 2166 2231 1775 2231 
Q 1616 2231 1378 2169 
L 1441 2663 
Q 1497 2656 1531 2656 
Q 1891 2656 2178 2843 
Q 2466 3031 2466 3422 
Q 2466 3731 2256 3934 
Q 2047 4138 1716 4138 
Q 1388 4138 1169 3931 
Q 950 3725 888 3313 
L 325 3413 
Q 428 3978 793 4289 
Q 1159 4600 1703 4600 
Q 2078 4600 2393 4439 
Q 2709 4278 2876 4000 
Q 3044 3722 3044 3409 
Q 3044 3113 2884 2869 
Q 2725 2625 2413 2481 
Q 2819 2388 3044 2092 
Q 3269 1797 3269 1353 
Q 3269 753 2831 336 
Q 2394 -81 1725 -81 
Q 1122 -81 723 278 
Q 325 638 269 1209 
z
" transform="scale(0.015625)"/>
       </defs>
       <use xlink:href="#ArialMT-14" transform="translate(0 0.3875)"/>
       <use xlink:href="#ArialMT-13" transform="translate(55.615234 0.3875)"/>
       <use xlink:href="#ArialMT-16" transform="translate(112.1875 41.6875) scale(0.7)"/>
      </g>
     </g>
    </g>
    <g id="xtick_3">
     <g id="line2d_3">
      <path d="M 245.033146 257.758574 
L 245.033146 54.486797 
" clip-path="url(#pa032e68878)" style="fill: none; stroke: #cccccc; stroke-linecap: round"/>
     </g>
     <g id="text_3">
      <!-- $\mathdefault{10^{4}}$ -->
      <g style="fill: #262626" transform="translate(236.563146 277.378574) scale(0.11 -0.11)">
       <defs>
        <path id="ArialMT-17" d="M 2069 0 
L 2069 1097 
L 81 1097 
L 81 1613 
L 2172 4581 
L 2631 4581 
L 2631 1613 
L 3250 1613 
L 3250 1097 
L 2631 1097 
L 2631 0 
L 2069 0 
z
M 2069 1613 
L 2069 3678 
L 634 1613 
L 2069 1613 
z
" transform="scale(0.015625)"/>
       </defs>
       <use xlink:href="#ArialMT-14" transform="translate(0 0.595313)"/>
       <use xlink:href="#ArialMT-13" transform="translate(55.615234 0.595313)"/>
       <use xlink:href="#ArialMT-17" transform="translate(112.1875 41.895313) scale(0.7)"/>
      </g>
     </g>
    </g>
    <g id="xtick_4">
     <g id="line2d_4">
      <path d="M 312.007379 257.758574 
L 312.007379 54.486797 
" clip-path="url(#pa032e68878)" style="fill: none; stroke: #cccccc; stroke-linecap: round"/>
     </g>
     <g id="text_4">
      <!-- $\mathdefault{10^{5}}$ -->
      <g style="fill: #262626" transform="translate(303.537379 277.268574) scale(0.11 -0.11)">
       <defs>
        <path id="ArialMT-18" d="M 266 1200 
L 856 1250 
Q 922 819 1161 601 
Q 1400 384 1738 384 
Q 2144 384 2425 690 
Q 2706 997 2706 1503 
Q 2706 1984 2436 2262 
Q 2166 2541 1728 2541 
Q 1456 2541 1237 2417 
Q 1019 2294 894 2097 
L 366 2166 
L 809 4519 
L 3088 4519 
L 3088 3981 
L 1259 3981 
L 1013 2750 
Q 1425 3038 1878 3038 
Q 2478 3038 2890 2622 
Q 3303 2206 3303 1553 
Q 3303 931 2941 478 
Q 2500 -78 1738 -78 
Q 1113 -78 717 272 
Q 322 622 266 1200 
z
" transform="scale(0.015625)"/>
       </defs>
       <use xlink:href="#ArialMT-14" transform="translate(0 0.273438)"/>
       <use xlink:href="#ArialMT-13" transform="translate(55.615234 0.273438)"/>
       <use xlink:href="#ArialMT-18" transform="translate(112.1875 41.573437) scale(0.7)"/>
      </g>
     </g>
    </g>
    <g id="xtick_5">
     <g id="line2d_5">
      <path d="M 378.981612 257.758574 
L 378.981612 54.486797 
" clip-path="url(#pa032e68878)" style="fill: none; stroke: #cccccc; stroke-linecap: round"/>
     </g>
     <g id="text_5">
      <!-- $\mathdefault{10^{6}}$ -->
      <g style="fill: #262626" transform="translate(370.511612 277.378574) scale(0.11 -0.11)">
       <defs>
        <path id="ArialMT-19" d="M 3184 3459 
L 2625 3416 
Q 2550 3747 2413 3897 
Q 2184 4138 1850 4138 
Q 1581 4138 1378 3988 
Q 1113 3794 959 3422 
Q 806 3050 800 2363 
Q 1003 2672 1297 2822 
Q 1591 2972 1913 2972 
Q 2475 2972 2870 2558 
Q 3266 2144 3266 1488 
Q 3266 1056 3080 686 
Q 2894 316 2569 119 
Q 2244 -78 1831 -78 
Q 1128 -78 684 439 
Q 241 956 241 2144 
Q 241 3472 731 4075 
Q 1159 4600 1884 4600 
Q 2425 4600 2770 4297 
Q 3116 3994 3184 3459 
z
M 888 1484 
Q 888 1194 1011 928 
Q 1134 663 1356 523 
Q 1578 384 1822 384 
Q 2178 384 2434 671 
Q 2691 959 2691 1453 
Q 2691 1928 2437 2201 
Q 2184 2475 1800 2475 
Q 1419 2475 1153 2201 
Q 888 1928 888 1484 
z
" transform="scale(0.015625)"/>
       </defs>
       <use xlink:href="#ArialMT-14" transform="translate(0 0.3875)"/>
       <use xlink:href="#ArialMT-13" transform="translate(55.615234 0.3875)"/>
       <use xlink:href="#ArialMT-19" transform="translate(112.1875 41.6875) scale(0.7)"/>
      </g>
     </g>
    </g>
    <g id="xtick_6"/>
    <g id="xtick_7"/>
    <g id="xtick_8"/>
    <g id="xtick_9"/>
    <g id="xtick_10"/>
    <g id="xtick_11"/>
    <g id="xtick_12"/>
    <g id="xtick_13"/>
    <g id="xtick_14"/>
    <g id="xtick_15"/>
    <g id="xtick_16"/>
    <g id="xtick_17"/>
    <g id="xtick_18"/>
    <g id="xtick_19"/>
    <g id="xtick_20"/>
    <g id="xtick_21"/>
    <g id="xtick_22"/>
    <g id="xtick_23"/>
    <g id="xtick_24"/>
    <g id="xtick_25"/>
    <g id="xtick_26"/>
    <g id="xtick_27"/>
    <g id="xtick_28"/>
    <g id="xtick_29"/>
    <g id="xtick_30"/>
    <g id="xtick_31"/>
    <g id="xtick_32"/>
    <g id="xtick_33"/>
    <g id="xtick_34"/>
    <g id="xtick_35"/>
    <g id="xtick_36"/>
    <g id="xtick_37"/>
    <g id="xtick_38"/>
    <g id="xtick_39"/>
    <g id="xtick_40"/>
    <g id="xtick_41"/>
    <g id="xtick_42"/>
    <g id="xtick_43"/>
    <g id="xtick_44"/>
    <g id="xtick_45"/>
    <g id="xtick_46"/>
    <g id="xtick_47"/>
    <g id="xtick_48"/>
    <g id="xtick_49"/>
    <g id="text_6">
     <!-- Avaliacoes da FO -->
     <g style="fill: #262626" transform="translate(196.256484 292.436641) scale(0.12 -0.12)">
      <defs>
       <path id="ArialMT-24" d="M -9 0 
L 1750 4581 
L 2403 4581 
L 4278 0 
L 3588 0 
L 3053 1388 
L 1138 1388 
L 634 0 
L -9 0 
z
M 1313 1881 
L 2866 1881 
L 2388 3150 
Q 2169 3728 2063 4100 
Q 1975 3659 1816 3225 
L 1313 1881 
z
" transform="scale(0.015625)"/>
       <path id="ArialMT-59" d="M 1344 0 
L 81 3319 
L 675 3319 
L 1388 1331 
Q 1503 1009 1600 663 
Q 1675 925 1809 1294 
L 2547 3319 
L 3125 3319 
L 1869 0 
L 1344 0 
z
" transform="scale(0.015625)"/>
       <path id="ArialMT-44" d="M 2588 409 
Q 2275 144 1986 34 
Q 1697 -75 1366 -75 
Q 819 -75 525 192 
Q 231 459 231 875 
Q 231 1119 342 1320 
Q 453 1522 633 1644 
Q 813 1766 1038 1828 
Q 1203 1872 1538 1913 
Q 2219 1994 2541 2106 
Q 2544 2222 2544 2253 
Q 2544 2597 2384 2738 
Q 2169 2928 1744 2928 
Q 1347 2928 1158 2789 
Q 969 2650 878 2297 
L 328 2372 
Q 403 2725 575 2942 
Q 747 3159 1072 3276 
Q 1397 3394 1825 3394 
Q 2250 3394 2515 3294 
Q 2781 3194 2906 3042 
Q 3031 2891 3081 2659 
Q 3109 2516 3109 2141 
L 3109 1391 
Q 3109 606 3145 398 
Q 3181 191 3288 0 
L 2700 0 
Q 2613 175 2588 409 
z
M 2541 1666 
Q 2234 1541 1622 1453 
Q 1275 1403 1131 1340 
Q 988 1278 909 1158 
Q 831 1038 831 891 
Q 831 666 1001 516 
Q 1172 366 1500 366 
Q 1825 366 2078 508 
Q 2331 650 2450 897 
Q 2541 1088 2541 1459 
L 2541 1666 
z
" transform="scale(0.015625)"/>
       <path id="ArialMT-4f" d="M 409 0 
L 409 4581 
L 972 4581 
L 972 0 
L 409 0 
z
" transform="scale(0.015625)"/>
       <path id="ArialMT-4c" d="M 425 3934 
L 425 4581 
L 988 4581 
L 988 3934 
L 425 3934 
z
M 425 0 
L 425 3319 
L 988 3319 
L 988 0 
L 425 0 
z
" transform="scale(0.015625)"/>
       <path id="ArialMT-46" d="M 2588 1216 
L 3141 1144 
Q 3050 572 2676 248 
Q 2303 -75 1759 -75 
Q 1078 -75 664 370 
Q 250 816 250 1647 
Q 250 2184 428 2587 
Q 606 2991 970 3192 
Q 1334 3394 1763 3394 
Q 2303 3394 2647 3120 
Q 2991 2847 3088 2344 
L 2541 2259 
Q 2463 2594 2264 2762 
Q 2066 2931 1784 2931 
Q 1359 2931 1093 2626 
Q 828 2322 828 1663 
Q 828 994 1084 691 
Q 1341 388 1753 388 
Q 2084 388 2306 591 
Q 2528 794 2588 1216 
z
" transform="scale(0.015625)"/>
       <path id="ArialMT-52" d="M 213 1659 
Q 213 2581 725 3025 
Q 1153 3394 1769 3394 
Q 2453 3394 2887 2945 
Q 3322 2497 3322 1706 
Q 3322 1066 3130 698 
Q 2938 331 2570 128 
Q 2203 -75 1769 -75 
Q 1072 -75 642 372 
Q 213 819 213 1659 
z
M 791 1659 
Q 791 1022 1069 705 
Q 1347 388 1769 388 
Q 2188 388 2466 706 
Q 2744 1025 2744 1678 
Q 2744 2294 2464 2611 
Q 2184 2928 1769 2928 
Q 1347 2928 1069 2612 
Q 791 2297 791 1659 
z
" transform="scale(0.015625)"/>
       <path id="ArialMT-48" d="M 2694 1069 
L 3275 997 
Q 3138 488 2766 206 
Q 2394 -75 1816 -75 
Q 1088 -75 661 373 
Q 234 822 234 1631 
Q 234 2469 665 2931 
Q 1097 3394 1784 3394 
Q 2450 3394 2872 2941 
Q 3294 2488 3294 1666 
Q 3294 1616 3291 1516 
L 816 1516 
Q 847 969 1125 678 
Q 1403 388 1819 388 
Q 2128 388 2347 550 
Q 2566 713 2694 1069 
z
M 847 1978 
L 2700 1978 
Q 2663 2397 2488 2606 
Q 2219 2931 1791 2931 
Q 1403 2931 1139 2672 
Q 875 2413 847 1978 
z
" transform="scale(0.015625)"/>
       <path id="ArialMT-56" d="M 197 991 
L 753 1078 
Q 800 744 1014 566 
Q 1228 388 1613 388 
Q 2000 388 2187 545 
Q 2375 703 2375 916 
Q 2375 1106 2209 1216 
Q 2094 1291 1634 1406 
Q 1016 1563 777 1677 
Q 538 1791 414 1992 
Q 291 2194 291 2438 
Q 291 2659 392 2848 
Q 494 3038 669 3163 
Q 800 3259 1026 3326 
Q 1253 3394 1513 3394 
Q 1903 3394 2198 3281 
Q 2494 3169 2634 2976 
Q 2775 2784 2828 2463 
L 2278 2388 
Q 2241 2644 2061 2787 
Q 1881 2931 1553 2931 
Q 1166 2931 1000 2803 
Q 834 2675 834 2503 
Q 834 2394 903 2306 
Q 972 2216 1119 2156 
Q 1203 2125 1616 2013 
Q 2213 1853 2448 1751 
Q 2684 1650 2818 1456 
Q 2953 1263 2953 975 
Q 2953 694 2789 445 
Q 2625 197 2315 61 
Q 2006 -75 1616 -75 
Q 969 -75 630 194 
Q 291 463 197 991 
z
" transform="scale(0.015625)"/>
       <path id="ArialMT-3" transform="scale(0.015625)"/>
       <path id="ArialMT-47" d="M 2575 0 
L 2575 419 
Q 2259 -75 1647 -75 
Q 1250 -75 917 144 
Q 584 363 401 755 
Q 219 1147 219 1656 
Q 219 2153 384 2558 
Q 550 2963 881 3178 
Q 1213 3394 1622 3394 
Q 1922 3394 2156 3267 
Q 2391 3141 2538 2938 
L 2538 4581 
L 3097 4581 
L 3097 0 
L 2575 0 
z
M 797 1656 
Q 797 1019 1065 703 
Q 1334 388 1700 388 
Q 2069 388 2326 689 
Q 2584 991 2584 1609 
Q 2584 2291 2321 2609 
Q 2059 2928 1675 2928 
Q 1300 2928 1048 2622 
Q 797 2316 797 1656 
z
" transform="scale(0.015625)"/>
       <path id="ArialMT-29" d="M 525 0 
L 525 4581 
L 3616 4581 
L 3616 4041 
L 1131 4041 
L 1131 2622 
L 3281 2622 
L 3281 2081 
L 1131 2081 
L 1131 0 
L 525 0 
z
" transform="scale(0.015625)"/>
       <path id="ArialMT-32" d="M 309 2231 
Q 309 3372 921 4017 
Q 1534 4663 2503 4663 
Q 3138 4663 3647 4359 
Q 4156 4056 4423 3514 
Q 4691 2972 4691 2284 
Q 4691 1588 4409 1038 
Q 4128 488 3612 205 
Q 3097 -78 2500 -78 
Q 1853 -78 1343 234 
Q 834 547 571 1087 
Q 309 1628 309 2231 
z
M 934 2222 
Q 934 1394 1379 917 
Q 1825 441 2497 441 
Q 3181 441 3623 922 
Q 4066 1403 4066 2288 
Q 4066 2847 3877 3264 
Q 3688 3681 3323 3911 
Q 2959 4141 2506 4141 
Q 1863 4141 1398 3698 
Q 934 3256 934 2222 
z
" transform="scale(0.015625)"/>
      </defs>
      <use xlink:href="#ArialMT-24"/>
      <use xlink:href="#ArialMT-59" transform="translate(64.890625 0)"/>
      <use xlink:href="#ArialMT-44" transform="translate(114.890625 0)"/>
      <use xlink:href="#ArialMT-4f" transform="translate(170.5 0)"/>
      <use xlink:href="#ArialMT-4c" transform="translate(192.71875 0)"/>
      <use xlink:href="#ArialMT-44" transform="translate(214.9375 0)"/>
      <use xlink:href="#ArialMT-46" transform="translate(270.546875 0)"/>
      <use xlink:href="#ArialMT-52" transform="translate(320.546875 0)"/>
      <use xlink:href="#ArialMT-48" transform="translate(376.15625 0)"/>
      <use xlink:href="#ArialMT-56" transform="translate(431.765625 0)"/>
      <use xlink:href="#ArialMT-3" transform="translate(481.765625 0)"/>
      <use xlink:href="#ArialMT-47" transform="translate(509.546875 0)"/>
      <use xlink:href="#ArialMT-44" transform="translate(565.15625 0)"/>
      <use xlink:href="#ArialMT-3" transform="translate(620.765625 0)"/>
      <use xlink:href="#ArialMT-29" transform="translate(648.546875 0)"/>
      <use xlink:href="#ArialMT-32" transform="translate(709.625 0)"/>
     </g>
    </g>
   </g>
   <g id="matplotlib.axis_2">
    <g id="ytick_1">
     <g id="line2d_6">
      <path d="M 59.321719 237.892045 
L 427.68 237.892045 
" clip-path="url(#pa032e68878)" style="fill: none; stroke: #cccccc; stroke-linecap: round"/>
     </g>
     <g id="text_7">
      <!-- $\mathdefault{10^{-8}}$ -->
      <g style="fill: #262626" transform="translate(28.371719 242.952045) scale(0.11 -0.11)">
       <defs>
        <path id="ArialMT-ed" d="M 3381 1997 
L 356 1997 
L 356 2522 
L 3381 2522 
L 3381 1997 
z
" transform="scale(0.015625)"/>
        <path id="ArialMT-1b" d="M 1131 2484 
Q 781 2613 612 2850 
Q 444 3088 444 3419 
Q 444 3919 803 4259 
Q 1163 4600 1759 4600 
Q 2359 4600 2725 4251 
Q 3091 3903 3091 3403 
Q 3091 3084 2923 2848 
Q 2756 2613 2416 2484 
Q 2838 2347 3058 2040 
Q 3278 1734 3278 1309 
Q 3278 722 2862 322 
Q 2447 -78 1769 -78 
Q 1091 -78 675 323 
Q 259 725 259 1325 
Q 259 1772 486 2073 
Q 713 2375 1131 2484 
z
M 1019 3438 
Q 1019 3113 1228 2906 
Q 1438 2700 1772 2700 
Q 2097 2700 2305 2904 
Q 2513 3109 2513 3406 
Q 2513 3716 2298 3927 
Q 2084 4138 1766 4138 
Q 1444 4138 1231 3931 
Q 1019 3725 1019 3438 
z
M 838 1322 
Q 838 1081 952 856 
Q 1066 631 1291 507 
Q 1516 384 1775 384 
Q 2178 384 2440 643 
Q 2703 903 2703 1303 
Q 2703 1709 2433 1975 
Q 2163 2241 1756 2241 
Q 1359 2241 1098 1978 
Q 838 1716 838 1322 
z
" transform="scale(0.015625)"/>
       </defs>
       <use xlink:href="#ArialMT-14" transform="translate(0 0.3875)"/>
       <use xlink:href="#ArialMT-13" transform="translate(55.615234 0.3875)"/>
       <use xlink:href="#ArialMT-ed" transform="translate(112.1875 41.6875) scale(0.7)"/>
       <use xlink:href="#ArialMT-1b" transform="translate(153.066406 41.6875) scale(0.7)"/>
      </g>
     </g>
    </g>
    <g id="ytick_2">
     <g id="line2d_7">
      <path d="M 59.321719 203.51132 
L 427.68 203.51132 
" clip-path="url(#pa032e68878)" style="fill: none; stroke: #cccccc; stroke-linecap: round"/>
     </g>
     <g id="text_8">
      <!-- $\mathdefault{10^{-6}}$ -->
      <g style="fill: #262626" transform="translate(28.371719 208.57132) scale(0.11 -0.11)">
       <use xlink:href="#ArialMT-14" transform="translate(0 0.3875)"/>
       <use xlink:href="#ArialMT-13" transform="translate(55.615234 0.3875)"/>
       <use xlink:href="#ArialMT-ed" transform="translate(112.1875 41.6875) scale(0.7)"/>
       <use xlink:href="#ArialMT-19" transform="translate(153.066406 41.6875) scale(0.7)"/>
      </g>
     </g>
    </g>
    <g id="ytick_3">
     <g id="line2d_8">
      <path d="M 59.321719 169.130595 
L 427.68 169.130595 
" clip-path="url(#pa032e68878)" style="fill: none; stroke: #cccccc; stroke-linecap: round"/>
     </g>
     <g id="text_9">
      <!-- $\mathdefault{10^{-4}}$ -->
      <g style="fill: #262626" transform="translate(28.371719 174.190595) scale(0.11 -0.11)">
       <use xlink:href="#ArialMT-14" transform="translate(0 0.595313)"/>
       <use xlink:href="#ArialMT-13" transform="translate(55.615234 0.595313)"/>
       <use xlink:href="#ArialMT-ed" transform="translate(112.1875 41.895313) scale(0.7)"/>
       <use xlink:href="#ArialMT-17" transform="translate(153.066406 41.895313) scale(0.7)"/>
      </g>
     </g>
    </g>
    <g id="ytick_4">
     <g id="line2d_9">
      <path d="M 59.321719 134.74987 
L 427.68 134.74987 
" clip-path="url(#pa032e68878)" style="fill: none; stroke: #cccccc; stroke-linecap: round"/>
     </g>
     <g id="text_10">
      <!-- $\mathdefault{10^{-2}}$ -->
      <g style="fill: #262626" transform="translate(28.371719 139.80987) scale(0.11 -0.11)">
       <use xlink:href="#ArialMT-14" transform="translate(0 0.3875)"/>
       <use xlink:href="#ArialMT-13" transform="translate(55.615234 0.3875)"/>
       <use xlink:href="#ArialMT-ed" transform="translate(112.1875 41.6875) scale(0.7)"/>
       <use xlink:href="#ArialMT-15" transform="translate(153.066406 41.6875) scale(0.7)"/>
      </g>
     </g>
    </g>
    <g id="ytick_5">
     <g id="line2d_10">
      <path d="M 59.321719 100.369145 
L 427.68 100.369145 
" clip-path="url(#pa032e68878)" style="fill: none; stroke: #cccccc; stroke-linecap: round"/>
     </g>
     <g id="text_11">
      <!-- $\mathdefault{10^{0}}$ -->
      <g style="fill: #262626" transform="translate(32.881719 105.429145) scale(0.11 -0.11)">
       <use xlink:href="#ArialMT-14" transform="translate(0 0.3875)"/>
       <use xlink:href="#ArialMT-13" transform="translate(55.615234 0.3875)"/>
       <use xlink:href="#ArialMT-13" transform="translate(112.1875 41.6875) scale(0.7)"/>
      </g>
     </g>
    </g>
    <g id="ytick_6">
     <g id="line2d_11">
      <path d="M 59.321719 65.98842 
L 427.68 65.98842 
" clip-path="url(#pa032e68878)" style="fill: none; stroke: #cccccc; stroke-linecap: round"/>
     </g>
     <g id="text_12">
      <!-- $\mathdefault{10^{2}}$ -->
      <g style="fill: #262626" transform="translate(32.881719 71.04842) scale(0.11 -0.11)">
       <use xlink:href="#ArialMT-14" transform="translate(0 0.3875)"/>
       <use xlink:href="#ArialMT-13" transform="translate(55.615234 0.3875)"/>
       <use xlink:href="#ArialMT-15" transform="translate(112.1875 41.6875) scale(0.7)"/>
      </g>
     </g>
    </g>
    <g id="text_13">
     <!-- Melhor f_obj -->
     <g style="fill: #262626" transform="translate(21.846094 189.137686) rotate(-90) scale(0.12 -0.12)">
      <defs>
       <path id="ArialMT-30" d="M 475 0 
L 475 4581 
L 1388 4581 
L 2472 1338 
Q 2622 884 2691 659 
Q 2769 909 2934 1394 
L 4031 4581 
L 4847 4581 
L 4847 0 
L 4263 0 
L 4263 3834 
L 2931 0 
L 2384 0 
L 1059 3900 
L 1059 0 
L 475 0 
z
" transform="scale(0.015625)"/>
       <path id="ArialMT-4b" d="M 422 0 
L 422 4581 
L 984 4581 
L 984 2938 
Q 1378 3394 1978 3394 
Q 2347 3394 2619 3248 
Q 2891 3103 3008 2847 
Q 3125 2591 3125 2103 
L 3125 0 
L 2563 0 
L 2563 2103 
Q 2563 2525 2380 2717 
Q 2197 2909 1863 2909 
Q 1613 2909 1392 2779 
Q 1172 2650 1078 2428 
Q 984 2206 984 1816 
L 984 0 
L 422 0 
z
" transform="scale(0.015625)"/>
       <path id="ArialMT-55" d="M 416 0 
L 416 3319 
L 922 3319 
L 922 2816 
Q 1116 3169 1280 3281 
Q 1444 3394 1641 3394 
Q 1925 3394 2219 3213 
L 2025 2691 
Q 1819 2813 1613 2813 
Q 1428 2813 1281 2702 
Q 1134 2591 1072 2394 
Q 978 2094 978 1738 
L 978 0 
L 416 0 
z
" transform="scale(0.015625)"/>
       <path id="ArialMT-49" d="M 556 0 
L 556 2881 
L 59 2881 
L 59 3319 
L 556 3319 
L 556 3672 
Q 556 4006 616 4169 
Q 697 4388 901 4523 
Q 1106 4659 1475 4659 
Q 1713 4659 2000 4603 
L 1916 4113 
Q 1741 4144 1584 4144 
Q 1328 4144 1222 4034 
Q 1116 3925 1116 3625 
L 1116 3319 
L 1763 3319 
L 1763 2881 
L 1116 2881 
L 1116 0 
L 556 0 
z
" transform="scale(0.015625)"/>
       <path id="ArialMT-42" d="M -97 -1272 
L -97 -866 
L 3631 -866 
L 3631 -1272 
L -97 -1272 
z
" transform="scale(0.015625)"/>
       <path id="ArialMT-45" d="M 941 0 
L 419 0 
L 419 4581 
L 981 4581 
L 981 2947 
Q 1338 3394 1891 3394 
Q 2197 3394 2470 3270 
Q 2744 3147 2920 2923 
Q 3097 2700 3197 2384 
Q 3297 2069 3297 1709 
Q 3297 856 2875 390 
Q 2453 -75 1863 -75 
Q 1275 -75 941 416 
L 941 0 
z
M 934 1684 
Q 934 1088 1097 822 
Q 1363 388 1816 388 
Q 2184 388 2453 708 
Q 2722 1028 2722 1663 
Q 2722 2313 2464 2622 
Q 2206 2931 1841 2931 
Q 1472 2931 1203 2611 
Q 934 2291 934 1684 
z
" transform="scale(0.015625)"/>
       <path id="ArialMT-4d" d="M 419 3928 
L 419 4581 
L 981 4581 
L 981 3928 
L 419 3928 
z
M -294 -1288 
L -188 -809 
Q -19 -853 78 -853 
Q 250 -853 334 -739 
Q 419 -625 419 -169 
L 419 3319 
L 981 3319 
L 981 -181 
Q 981 -794 822 -1034 
Q 619 -1347 147 -1347 
Q -81 -1347 -294 -1288 
z
" transform="scale(0.015625)"/>
      </defs>
      <use xlink:href="#ArialMT-30"/>
      <use xlink:href="#ArialMT-48" transform="translate(83.296875 0)"/>
      <use xlink:href="#ArialMT-4f" transform="translate(138.90625 0)"/>
      <use xlink:href="#ArialMT-4b" transform="translate(161.125 0)"/>
      <use xlink:href="#ArialMT-52" transform="translate(216.734375 0)"/>
      <use xlink:href="#ArialMT-55" transform="translate(272.34375 0)"/>
      <use xlink:href="#ArialMT-3" transform="translate(305.640625 0)"/>
      <use xlink:href="#ArialMT-49" transform="translate(333.421875 0)"/>
      <use xlink:href="#ArialMT-42" transform="translate(361.203125 0)"/>
      <use xlink:href="#ArialMT-52" transform="translate(416.8125 0)"/>
      <use xlink:href="#ArialMT-45" transform="translate(472.421875 0)"/>
      <use xlink:href="#ArialMT-4d" transform="translate(528.03125 0)"/>
     </g>
    </g>
   </g>
   <g id="FillBetweenPolyCollection_1">
    <defs>
     <path id="m25c5960940" d="M 76.065277 -512.273577 
L 76.065277 -507.515559 
L 189.85249 -490.474559 
L 210.013743 -490.139026 
L 230.174996 -483.800186 
L 256.826723 -475.598823 
L 276.987976 -475.593378 
L 323.800956 -360.431978 
L 343.962209 -344.403844 
L 390.775189 -327.481052 
L 410.936442 -327.481052 
L 410.936442 -349.86165 
L 410.936442 -349.86165 
L 390.775189 -368.739979 
L 343.962209 -390.048385 
L 323.800956 -400.856714 
L 276.987976 -495.29887 
L 256.826723 -499.624381 
L 230.174996 -501.703257 
L 210.013743 -502.950966 
L 189.85249 -502.983428 
L 76.065277 -512.273577 
z
" style="stroke: #1f77b4; stroke-opacity: 0.18"/>
    </defs>
    <g clip-path="url(#pa032e68878)">
     <use xlink:href="#m25c5960940" x="0" y="576" style="fill: #1f77b4; fill-opacity: 0.18; stroke: #1f77b4; stroke-opacity: 0.18"/>
    </g>
   </g>
   <g id="line2d_12">
    <path d="M 76.065277 65.43621 
L 189.85249 77.68153 
L 210.013743 79.247181 
L 230.174996 79.702962 
L 256.826723 84.729937 
L 276.987976 92.203849 
L 323.800956 196.055893 
L 343.962209 209.389921 
L 390.775189 233.587238 
L 410.936442 238.668757 
" clip-path="url(#pa032e68878)" style="fill: none; stroke: #1f77b4; stroke-width: 2; stroke-linecap: round"/>
    <defs>
     <path id="m7849e07f8f" d="M 0 2.5 
C 0.663008 2.5 1.29895 2.236584 1.767767 1.767767 
C 2.236584 1.29895 2.5 0.663008 2.5 0 
C 2.5 -0.663008 2.236584 -1.29895 1.767767 -1.767767 
C 1.29895 -2.236584 0.663008 -2.5 0 -2.5 
C -0.663008 -2.5 -1.29895 -2.236584 -1.767767 -1.767767 
C -2.236584 -1.29895 -2.5 -0.663008 -2.5 0 
C -2.5 0.663008 -2.236584 1.29895 -1.767767 1.767767 
C -1.29895 2.236584 -0.663008 2.5 0 2.5 
z
" style="stroke: #1f77b4"/>
    </defs>
    <g clip-path="url(#pa032e68878)">
     <use xlink:href="#m7849e07f8f" x="76.065277" y="65.43621" style="fill: #1f77b4; stroke: #1f77b4"/>
     <use xlink:href="#m7849e07f8f" x="189.85249" y="77.68153" style="fill: #1f77b4; stroke: #1f77b4"/>
     <use xlink:href="#m7849e07f8f" x="210.013743" y="79.247181" style="fill: #1f77b4; stroke: #1f77b4"/>
     <use xlink:href="#m7849e07f8f" x="230.174996" y="79.702962" style="fill: #1f77b4; stroke: #1f77b4"/>
     <use xlink:href="#m7849e07f8f" x="256.826723" y="84.729937" style="fill: #1f77b4; stroke: #1f77b4"/>
     <use xlink:href="#m7849e07f8f" x="276.987976" y="92.203849" style="fill: #1f77b4; stroke: #1f77b4"/>
     <use xlink:href="#m7849e07f8f" x="323.800956" y="196.055893" style="fill: #1f77b4; stroke: #1f77b4"/>
     <use xlink:href="#m7849e07f8f" x="343.962209" y="209.389921" style="fill: #1f77b4; stroke: #1f77b4"/>
     <use xlink:href="#m7849e07f8f" x="390.775189" y="233.587238" style="fill: #1f77b4; stroke: #1f77b4"/>
     <use xlink:href="#m7849e07f8f" x="410.936442" y="238.668757" style="fill: #1f77b4; stroke: #1f77b4"/>
    </g>
   </g>
   <g id="patch_3">
    <path d="M 59.321719 257.758574 
L 59.321719 54.486797 
" style="fill: none; stroke: #cccccc; stroke-width: 1.25; stroke-linejoin: miter; stroke-linecap: square"/>
   </g>
   <g id="patch_4">
    <path d="M 427.68 257.758574 
L 427.68 54.486797 
" style="fill: none; stroke: #cccccc; stroke-width: 1.25; stroke-linejoin: miter; stroke-linecap: square"/>
   </g>
   <g id="patch_5">
    <path d="M 59.321719 257.758574 
L 427.68 257.758574 
" style="fill: none; stroke: #cccccc; stroke-width: 1.25; stroke-linejoin: miter; stroke-linecap: square"/>
   </g>
   <g id="patch_6">
    <path d="M 59.321719 54.486797 
L 427.68 54.486797 
" style="fill: none; stroke: #cccccc; stroke-width: 1.25; stroke-linejoin: miter; stroke-linecap: square"/>
   </g>
   <g id="text_14">
    <!-- RCGA -->
    <g style="fill: #262626" transform="translate(225.834609 48.486797) scale(0.12 -0.12)">
     <defs>
      <path id="Arial-BoldMT-35" d="M 469 0 
L 469 4581 
L 2416 4581 
Q 3150 4581 3483 4457 
Q 3816 4334 4016 4018 
Q 4216 3703 4216 3297 
Q 4216 2781 3912 2445 
Q 3609 2109 3006 2022 
Q 3306 1847 3501 1637 
Q 3697 1428 4028 894 
L 4588 0 
L 3481 0 
L 2813 997 
Q 2456 1531 2325 1670 
Q 2194 1809 2047 1861 
Q 1900 1913 1581 1913 
L 1394 1913 
L 1394 0 
L 469 0 
z
M 1394 2644 
L 2078 2644 
Q 2744 2644 2909 2700 
Q 3075 2756 3169 2893 
Q 3263 3031 3263 3238 
Q 3263 3469 3139 3611 
Q 3016 3753 2791 3791 
Q 2678 3806 2116 3806 
L 1394 3806 
L 1394 2644 
z
" transform="scale(0.015625)"/>
      <path id="Arial-BoldMT-26" d="M 3397 1684 
L 4294 1400 
Q 4088 650 3608 286 
Q 3128 -78 2391 -78 
Q 1478 -78 890 545 
Q 303 1169 303 2250 
Q 303 3394 893 4026 
Q 1484 4659 2447 4659 
Q 3288 4659 3813 4163 
Q 4125 3869 4281 3319 
L 3366 3100 
Q 3284 3456 3026 3662 
Q 2769 3869 2400 3869 
Q 1891 3869 1573 3503 
Q 1256 3138 1256 2319 
Q 1256 1450 1568 1081 
Q 1881 713 2381 713 
Q 2750 713 3015 947 
Q 3281 1181 3397 1684 
z
" transform="scale(0.015625)"/>
      <path id="Arial-BoldMT-2a" d="M 2597 1684 
L 2597 2456 
L 4591 2456 
L 4591 631 
Q 4300 350 3748 136 
Q 3197 -78 2631 -78 
Q 1913 -78 1378 223 
Q 844 525 575 1086 
Q 306 1647 306 2306 
Q 306 3022 606 3578 
Q 906 4134 1484 4431 
Q 1925 4659 2581 4659 
Q 3434 4659 3914 4301 
Q 4394 3944 4531 3313 
L 3613 3141 
Q 3516 3478 3248 3673 
Q 2981 3869 2581 3869 
Q 1975 3869 1617 3484 
Q 1259 3100 1259 2344 
Q 1259 1528 1621 1120 
Q 1984 713 2572 713 
Q 2863 713 3155 827 
Q 3447 941 3656 1103 
L 3656 1684 
L 2597 1684 
z
" transform="scale(0.015625)"/>
      <path id="Arial-BoldMT-24" d="M 4597 0 
L 3591 0 
L 3191 1041 
L 1359 1041 
L 981 0 
L 0 0 
L 1784 4581 
L 2763 4581 
L 4597 0 
z
M 2894 1813 
L 2263 3513 
L 1644 1813 
L 2894 1813 
z
" transform="scale(0.015625)"/>
     </defs>
     <use xlink:href="#Arial-BoldMT-35"/>
     <use xlink:href="#Arial-BoldMT-26" transform="translate(72.21875 0)"/>
     <use xlink:href="#Arial-BoldMT-2a" transform="translate(144.4375 0)"/>
     <use xlink:href="#Arial-BoldMT-24" transform="translate(222.21875 0)"/>
    </g>
   </g>
   <g id="legend_1">
    <g id="patch_7">
     <path d="M 324.90625 83.902578 
L 422.08 83.902578 
Q 423.68 83.902578 423.68 82.302578 
L 423.68 60.086797 
Q 423.68 58.486797 422.08 58.486797 
L 324.90625 58.486797 
Q 323.30625 58.486797 323.30625 60.086797 
L 323.30625 82.302578 
Q 323.30625 83.902578 324.90625 83.902578 
z
" style="fill: #ffffff; opacity: 0.8; stroke: #cccccc; stroke-linejoin: miter"/>
    </g>
    <g id="patch_8">
     <path d="M 326.50625 67.511016 
L 342.50625 67.511016 
L 342.50625 61.911016 
L 326.50625 61.911016 
z
" style="fill: #1f77b4; fill-opacity: 0.18; stroke: #1f77b4; stroke-opacity: 0.18; stroke-linejoin: miter"/>
    </g>
    <g id="text_15">
     <!-- Envelope (min-max) -->
     <g style="fill: #262626" transform="translate(348.90625 67.511016) scale(0.08 -0.08)">
      <defs>
       <path id="ArialMT-28" d="M 506 0 
L 506 4581 
L 3819 4581 
L 3819 4041 
L 1113 4041 
L 1113 2638 
L 3647 2638 
L 3647 2100 
L 1113 2100 
L 1113 541 
L 3925 541 
L 3925 0 
L 506 0 
z
" transform="scale(0.015625)"/>
       <path id="ArialMT-51" d="M 422 0 
L 422 3319 
L 928 3319 
L 928 2847 
Q 1294 3394 1984 3394 
Q 2284 3394 2536 3286 
Q 2788 3178 2913 3003 
Q 3038 2828 3088 2588 
Q 3119 2431 3119 2041 
L 3119 0 
L 2556 0 
L 2556 2019 
Q 2556 2363 2490 2533 
Q 2425 2703 2258 2804 
Q 2091 2906 1866 2906 
Q 1506 2906 1245 2678 
Q 984 2450 984 1813 
L 984 0 
L 422 0 
z
" transform="scale(0.015625)"/>
       <path id="ArialMT-53" d="M 422 -1272 
L 422 3319 
L 934 3319 
L 934 2888 
Q 1116 3141 1344 3267 
Q 1572 3394 1897 3394 
Q 2322 3394 2647 3175 
Q 2972 2956 3137 2557 
Q 3303 2159 3303 1684 
Q 3303 1175 3120 767 
Q 2938 359 2589 142 
Q 2241 -75 1856 -75 
Q 1575 -75 1351 44 
Q 1128 163 984 344 
L 984 -1272 
L 422 -1272 
z
M 931 1641 
Q 931 1000 1190 694 
Q 1450 388 1819 388 
Q 2194 388 2461 705 
Q 2728 1022 2728 1688 
Q 2728 2322 2467 2637 
Q 2206 2953 1844 2953 
Q 1484 2953 1207 2617 
Q 931 2281 931 1641 
z
" transform="scale(0.015625)"/>
       <path id="ArialMT-b" d="M 1497 -1347 
Q 1031 -759 709 28 
Q 388 816 388 1659 
Q 388 2403 628 3084 
Q 909 3875 1497 4659 
L 1900 4659 
Q 1522 4009 1400 3731 
Q 1209 3300 1100 2831 
Q 966 2247 966 1656 
Q 966 153 1900 -1347 
L 1497 -1347 
z
" transform="scale(0.015625)"/>
       <path id="ArialMT-50" d="M 422 0 
L 422 3319 
L 925 3319 
L 925 2853 
Q 1081 3097 1340 3245 
Q 1600 3394 1931 3394 
Q 2300 3394 2536 3241 
Q 2772 3088 2869 2813 
Q 3263 3394 3894 3394 
Q 4388 3394 4653 3120 
Q 4919 2847 4919 2278 
L 4919 0 
L 4359 0 
L 4359 2091 
Q 4359 2428 4304 2576 
Q 4250 2725 4106 2815 
Q 3963 2906 3769 2906 
Q 3419 2906 3187 2673 
Q 2956 2441 2956 1928 
L 2956 0 
L 2394 0 
L 2394 2156 
Q 2394 2531 2256 2718 
Q 2119 2906 1806 2906 
Q 1569 2906 1367 2781 
Q 1166 2656 1075 2415 
Q 984 2175 984 1722 
L 984 0 
L 422 0 
z
" transform="scale(0.015625)"/>
       <path id="ArialMT-10" d="M 203 1375 
L 203 1941 
L 1931 1941 
L 1931 1375 
L 203 1375 
z
" transform="scale(0.015625)"/>
       <path id="ArialMT-5b" d="M 47 0 
L 1259 1725 
L 138 3319 
L 841 3319 
L 1350 2541 
Q 1494 2319 1581 2169 
Q 1719 2375 1834 2534 
L 2394 3319 
L 3066 3319 
L 1919 1756 
L 3153 0 
L 2463 0 
L 1781 1031 
L 1600 1309 
L 728 0 
L 47 0 
z
" transform="scale(0.015625)"/>
       <path id="ArialMT-c" d="M 791 -1347 
L 388 -1347 
Q 1322 153 1322 1656 
Q 1322 2244 1188 2822 
Q 1081 3291 891 3722 
Q 769 4003 388 4659 
L 791 4659 
Q 1378 3875 1659 3084 
Q 1900 2403 1900 1659 
Q 1900 816 1576 28 
Q 1253 -759 791 -1347 
z
" transform="scale(0.015625)"/>
      </defs>
      <use xlink:href="#ArialMT-28"/>
      <use xlink:href="#ArialMT-51" transform="translate(66.703125 0)"/>
      <use xlink:href="#ArialMT-59" transform="translate(122.3125 0)"/>
      <use xlink:href="#ArialMT-48" transform="translate(172.3125 0)"/>
      <use xlink:href="#ArialMT-4f" transform="translate(227.921875 0)"/>
      <use xlink:href="#ArialMT-52" transform="translate(250.140625 0)"/>
      <use xlink:href="#ArialMT-53" transform="translate(305.75 0)"/>
      <use xlink:href="#ArialMT-48" transform="translate(361.359375 0)"/>
      <use xlink:href="#ArialMT-3" transform="translate(416.96875 0)"/>
      <use xlink:href="#ArialMT-b" transform="translate(444.75 0)"/>
      <use xlink:href="#ArialMT-50" transform="translate(478.046875 0)"/>
      <use xlink:href="#ArialMT-4c" transform="translate(561.34375 0)"/>
      <use xlink:href="#ArialMT-51" transform="translate(583.5625 0)"/>
      <use xlink:href="#ArialMT-10" transform="translate(639.171875 0)"/>
      <use xlink:href="#ArialMT-50" transform="translate(672.46875 0)"/>
      <use xlink:href="#ArialMT-44" transform="translate(755.765625 0)"/>
      <use xlink:href="#ArialMT-5b" transform="translate(811.375 0)"/>
      <use xlink:href="#ArialMT-c" transform="translate(861.375 0)"/>
     </g>
    </g>
    <g id="line2d_13">
     <path d="M 326.50625 76.218984 
L 334.50625 76.218984 
L 342.50625 76.218984 
" style="fill: none; stroke: #1f77b4; stroke-width: 2; stroke-linecap: round"/>
     <g>
      <use xlink:href="#m7849e07f8f" x="334.50625" y="76.218984" style="fill: #1f77b4; stroke: #1f77b4"/>
     </g>
    </g>
    <g id="text_16">
     <!-- Mediana -->
     <g style="fill: #262626" transform="translate(348.90625 79.018984) scale(0.08 -0.08)">
      <use xlink:href="#ArialMT-30"/>
      <use xlink:href="#ArialMT-48" transform="translate(83.296875 0)"/>
      <use xlink:href="#ArialMT-47" transform="translate(138.90625 0)"/>
      <use xlink:href="#ArialMT-4c" transform="translate(194.515625 0)"/>
      <use xlink:href="#ArialMT-44" transform="translate(216.734375 0)"/>
      <use xlink:href="#ArialMT-51" transform="translate(272.34375 0)"/>
      <use xlink:href="#ArialMT-44" transform="translate(327.953125 0)"/>
     </g>
    </g>
   </g>
  </g>
  <g id="axes_2">
   <g id="patch_9">
    <path d="M 482.681719 257.758574 
L 851.04 257.758574 
L 851.04 54.486797 
L 482.681719 54.486797 
z
" style="fill: #ffffff"/>
   </g>
   <g id="matplotlib.axis_3">
    <g id="xtick_50">
     <g id="line2d_14">
      <path d="M 534.44468 257.758574 
L 534.44468 54.486797 
" clip-path="url(#p85ac79ccb7)" style="fill: none; stroke: #cccccc; stroke-linecap: round"/>
     </g>
     <g id="text_17">
      <!-- $\mathdefault{10^{2}}$ -->
      <g style="fill: #262626" transform="translate(525.97468 277.378574) scale(0.11 -0.11)">
       <use xlink:href="#ArialMT-14" transform="translate(0 0.3875)"/>
       <use xlink:href="#ArialMT-13" transform="translate(55.615234 0.3875)"/>
       <use xlink:href="#ArialMT-15" transform="translate(112.1875 41.6875) scale(0.7)"/>
      </g>
     </g>
    </g>
    <g id="xtick_51">
     <g id="line2d_15">
      <path d="M 601.418913 257.758574 
L 601.418913 54.486797 
" clip-path="url(#p85ac79ccb7)" style="fill: none; stroke: #cccccc; stroke-linecap: round"/>
     </g>
     <g id="text_18">
      <!-- $\mathdefault{10^{3}}$ -->
      <g style="fill: #262626" transform="translate(592.948913 277.378574) scale(0.11 -0.11)">
       <use xlink:href="#ArialMT-14" transform="translate(0 0.3875)"/>
       <use xlink:href="#ArialMT-13" transform="translate(55.615234 0.3875)"/>
       <use xlink:href="#ArialMT-16" transform="translate(112.1875 41.6875) scale(0.7)"/>
      </g>
     </g>
    </g>
    <g id="xtick_52">
     <g id="line2d_16">
      <path d="M 668.393146 257.758574 
L 668.393146 54.486797 
" clip-path="url(#p85ac79ccb7)" style="fill: none; stroke: #cccccc; stroke-linecap: round"/>
     </g>
     <g id="text_19">
      <!-- $\mathdefault{10^{4}}$ -->
      <g style="fill: #262626" transform="translate(659.923146 277.378574) scale(0.11 -0.11)">
       <use xlink:href="#ArialMT-14" transform="translate(0 0.595313)"/>
       <use xlink:href="#ArialMT-13" transform="translate(55.615234 0.595313)"/>
       <use xlink:href="#ArialMT-17" transform="translate(112.1875 41.895313) scale(0.7)"/>
      </g>
     </g>
    </g>
    <g id="xtick_53">
     <g id="line2d_17">
      <path d="M 735.367379 257.758574 
L 735.367379 54.486797 
" clip-path="url(#p85ac79ccb7)" style="fill: none; stroke: #cccccc; stroke-linecap: round"/>
     </g>
     <g id="text_20">
      <!-- $\mathdefault{10^{5}}$ -->
      <g style="fill: #262626" transform="translate(726.897379 277.268574) scale(0.11 -0.11)">
       <use xlink:href="#ArialMT-14" transform="translate(0 0.273438)"/>
       <use xlink:href="#ArialMT-13" transform="translate(55.615234 0.273438)"/>
       <use xlink:href="#ArialMT-18" transform="translate(112.1875 41.573437) scale(0.7)"/>
      </g>
     </g>
    </g>
    <g id="xtick_54">
     <g id="line2d_18">
      <path d="M 802.341612 257.758574 
L 802.341612 54.486797 
" clip-path="url(#p85ac79ccb7)" style="fill: none; stroke: #cccccc; stroke-linecap: round"/>
     </g>
     <g id="text_21">
      <!-- $\mathdefault{10^{6}}$ -->
      <g style="fill: #262626" transform="translate(793.871612 277.378574) scale(0.11 -0.11)">
       <use xlink:href="#ArialMT-14" transform="translate(0 0.3875)"/>
       <use xlink:href="#ArialMT-13" transform="translate(55.615234 0.3875)"/>
       <use xlink:href="#ArialMT-19" transform="translate(112.1875 41.6875) scale(0.7)"/>
      </g>
     </g>
    </g>
    <g id="xtick_55"/>
    <g id="xtick_56"/>
    <g id="xtick_57"/>
    <g id="xtick_58"/>
    <g id="xtick_59"/>
    <g id="xtick_60"/>
    <g id="xtick_61"/>
    <g id="xtick_62"/>
    <g id="xtick_63"/>
    <g id="xtick_64"/>
    <g id="xtick_65"/>
    <g id="xtick_66"/>
    <g id="xtick_67"/>
    <g id="xtick_68"/>
    <g id="xtick_69"/>
    <g id="xtick_70"/>
    <g id="xtick_71"/>
    <g id="xtick_72"/>
    <g id="xtick_73"/>
    <g id="xtick_74"/>
    <g id="xtick_75"/>
    <g id="xtick_76"/>
    <g id="xtick_77"/>
    <g id="xtick_78"/>
    <g id="xtick_79"/>
    <g id="xtick_80"/>
    <g id="xtick_81"/>
    <g id="xtick_82"/>
    <g id="xtick_83"/>
    <g id="xtick_84"/>
    <g id="xtick_85"/>
    <g id="xtick_86"/>
    <g id="xtick_87"/>
    <g id="xtick_88"/>
    <g id="xtick_89"/>
    <g id="xtick_90"/>
    <g id="xtick_91"/>
    <g id="xtick_92"/>
    <g id="xtick_93"/>
    <g id="xtick_94"/>
    <g id="xtick_95"/>
    <g id="xtick_96"/>
    <g id="xtick_97"/>
    <g id="xtick_98"/>
    <g id="text_22">
     <!-- Avaliacoes da FO -->
     <g style="fill: #262626" transform="translate(619.616484 292.436641) scale(0.12 -0.12)">
      <use xlink:href="#ArialMT-24"/>
      <use xlink:href="#ArialMT-59" transform="translate(64.890625 0)"/>
      <use xlink:href="#ArialMT-44" transform="translate(114.890625 0)"/>
      <use xlink:href="#ArialMT-4f" transform="translate(170.5 0)"/>
      <use xlink:href="#ArialMT-4c" transform="translate(192.71875 0)"/>
      <use xlink:href="#ArialMT-44" transform="translate(214.9375 0)"/>
      <use xlink:href="#ArialMT-46" transform="translate(270.546875 0)"/>
      <use xlink:href="#ArialMT-52" transform="translate(320.546875 0)"/>
      <use xlink:href="#ArialMT-48" transform="translate(376.15625 0)"/>
      <use xlink:href="#ArialMT-56" transform="translate(431.765625 0)"/>
      <use xlink:href="#ArialMT-3" transform="translate(481.765625 0)"/>
      <use xlink:href="#ArialMT-47" transform="translate(509.546875 0)"/>
      <use xlink:href="#ArialMT-44" transform="translate(565.15625 0)"/>
      <use xlink:href="#ArialMT-3" transform="translate(620.765625 0)"/>
      <use xlink:href="#ArialMT-29" transform="translate(648.546875 0)"/>
      <use xlink:href="#ArialMT-32" transform="translate(709.625 0)"/>
     </g>
    </g>
   </g>
   <g id="matplotlib.axis_4">
    <g id="ytick_7">
     <g id="line2d_19">
      <path d="M 482.681719 248.329054 
L 851.04 248.329054 
" clip-path="url(#p85ac79ccb7)" style="fill: none; stroke: #cccccc; stroke-linecap: round"/>
     </g>
     <g id="text_23">
      <!-- $\mathdefault{10^{0}}$ -->
      <g style="fill: #262626" transform="translate(456.241719 253.389054) scale(0.11 -0.11)">
       <use xlink:href="#ArialMT-14" transform="translate(0 0.3875)"/>
       <use xlink:href="#ArialMT-13" transform="translate(55.615234 0.3875)"/>
       <use xlink:href="#ArialMT-13" transform="translate(112.1875 41.6875) scale(0.7)"/>
      </g>
     </g>
    </g>
    <g id="ytick_8">
     <g id="line2d_20">
      <path d="M 482.681719 161.808863 
L 851.04 161.808863 
" clip-path="url(#p85ac79ccb7)" style="fill: none; stroke: #cccccc; stroke-linecap: round"/>
     </g>
     <g id="text_24">
      <!-- $\mathdefault{10^{1}}$ -->
      <g style="fill: #262626" transform="translate(456.241719 166.868863) scale(0.11 -0.11)">
       <use xlink:href="#ArialMT-14" transform="translate(0 0.3875)"/>
       <use xlink:href="#ArialMT-13" transform="translate(55.615234 0.3875)"/>
       <use xlink:href="#ArialMT-14" transform="translate(112.1875 41.6875) scale(0.7)"/>
      </g>
     </g>
    </g>
    <g id="ytick_9">
     <g id="line2d_21">
      <path d="M 482.681719 75.288672 
L 851.04 75.288672 
" clip-path="url(#p85ac79ccb7)" style="fill: none; stroke: #cccccc; stroke-linecap: round"/>
     </g>
     <g id="text_25">
      <!-- $\mathdefault{10^{2}}$ -->
      <g style="fill: #262626" transform="translate(456.241719 80.348672) scale(0.11 -0.11)">
       <use xlink:href="#ArialMT-14" transform="translate(0 0.3875)"/>
       <use xlink:href="#ArialMT-13" transform="translate(55.615234 0.3875)"/>
       <use xlink:href="#ArialMT-15" transform="translate(112.1875 41.6875) scale(0.7)"/>
      </g>
     </g>
    </g>
    <g id="ytick_10"/>
    <g id="ytick_11"/>
    <g id="ytick_12"/>
    <g id="ytick_13"/>
    <g id="ytick_14"/>
    <g id="ytick_15"/>
    <g id="ytick_16"/>
    <g id="ytick_17"/>
    <g id="ytick_18"/>
    <g id="ytick_19"/>
    <g id="ytick_20"/>
    <g id="ytick_21"/>
    <g id="ytick_22"/>
    <g id="ytick_23"/>
    <g id="ytick_24"/>
    <g id="ytick_25"/>
    <g id="ytick_26"/>
    <g id="ytick_27"/>
    <g id="text_26">
     <!-- Melhor f_obj -->
     <g style="fill: #262626" transform="translate(449.716094 189.137686) rotate(-90) scale(0.12 -0.12)">
      <use xlink:href="#ArialMT-30"/>
      <use xlink:href="#ArialMT-48" transform="translate(83.296875 0)"/>
      <use xlink:href="#ArialMT-4f" transform="translate(138.90625 0)"/>
      <use xlink:href="#ArialMT-4b" transform="translate(161.125 0)"/>
      <use xlink:href="#ArialMT-52" transform="translate(216.734375 0)"/>
      <use xlink:href="#ArialMT-55" transform="translate(272.34375 0)"/>
      <use xlink:href="#ArialMT-3" transform="translate(305.640625 0)"/>
      <use xlink:href="#ArialMT-49" transform="translate(333.421875 0)"/>
      <use xlink:href="#ArialMT-42" transform="translate(361.203125 0)"/>
      <use xlink:href="#ArialMT-52" transform="translate(416.8125 0)"/>
      <use xlink:href="#ArialMT-45" transform="translate(472.421875 0)"/>
      <use xlink:href="#ArialMT-4d" transform="translate(528.03125 0)"/>
     </g>
    </g>
   </g>
   <g id="FillBetweenPolyCollection_2">
    <defs>
     <path id="mc05e6974dd" d="M 499.425277 -512.273577 
L 499.425277 -500.100891 
L 613.21249 -438.506034 
L 633.373743 -390.957643 
L 653.534996 -353.861046 
L 680.186723 -327.481062 
L 700.347976 -327.481052 
L 747.160956 -327.481052 
L 767.322209 -327.481052 
L 814.135189 -327.481052 
L 834.296442 -327.481052 
L 834.296442 -405.616547 
L 834.296442 -405.616547 
L 814.135189 -405.616547 
L 767.322209 -405.616547 
L 747.160956 -405.616547 
L 700.347976 -405.616547 
L 680.186723 -405.616547 
L 653.534996 -432.963522 
L 633.373743 -457.15775 
L 613.21249 -477.404693 
L 499.425277 -512.273577 
z
" style="stroke: #f2b134; stroke-opacity: 0.18"/>
    </defs>
    <g clip-path="url(#p85ac79ccb7)">
     <use xlink:href="#mc05e6974dd" x="0" y="576" style="fill: #f2b134; fill-opacity: 0.18; stroke: #f2b134; stroke-opacity: 0.18"/>
    </g>
   </g>
   <g id="line2d_22">
    <path d="M 499.425277 69.82184 
L 613.21249 114.349645 
L 633.373743 145.793025 
L 653.534996 177.962602 
L 680.186723 196.428602 
L 700.347976 207.238326 
L 747.160956 207.238326 
L 767.322209 207.238326 
L 814.135189 207.238326 
L 834.296442 207.238326 
" clip-path="url(#p85ac79ccb7)" style="fill: none; stroke: #f2b134; stroke-width: 2; stroke-linecap: round"/>
    <defs>
     <path id="m826add2f88" d="M 0 -2.5 
L -2.5 2.5 
L 2.5 2.5 
z
" style="stroke: #f2b134; stroke-linejoin: miter"/>
    </defs>
    <g clip-path="url(#p85ac79ccb7)">
     <use xlink:href="#m826add2f88" x="499.425277" y="69.82184" style="fill: #f2b134; stroke: #f2b134; stroke-linejoin: miter"/>
     <use xlink:href="#m826add2f88" x="613.21249" y="114.349645" style="fill: #f2b134; stroke: #f2b134; stroke-linejoin: miter"/>
     <use xlink:href="#m826add2f88" x="633.373743" y="145.793025" style="fill: #f2b134; stroke: #f2b134; stroke-linejoin: miter"/>
     <use xlink:href="#m826add2f88" x="653.534996" y="177.962602" style="fill: #f2b134; stroke: #f2b134; stroke-linejoin: miter"/>
     <use xlink:href="#m826add2f88" x="680.186723" y="196.428602" style="fill: #f2b134; stroke: #f2b134; stroke-linejoin: miter"/>
     <use xlink:href="#m826add2f88" x="700.347976" y="207.238326" style="fill: #f2b134; stroke: #f2b134; stroke-linejoin: miter"/>
     <use xlink:href="#m826add2f88" x="747.160956" y="207.238326" style="fill: #f2b134; stroke: #f2b134; stroke-linejoin: miter"/>
     <use xlink:href="#m826add2f88" x="767.322209" y="207.238326" style="fill: #f2b134; stroke: #f2b134; stroke-linejoin: miter"/>
     <use xlink:href="#m826add2f88" x="814.135189" y="207.238326" style="fill: #f2b134; stroke: #f2b134; stroke-linejoin: miter"/>
     <use xlink:href="#m826add2f88" x="834.296442" y="207.238326" style="fill: #f2b134; stroke: #f2b134; stroke-linejoin: miter"/>
    </g>
   </g>
   <g id="patch_10">
    <path d="M 482.681719 257.758574 
L 482.681719 54.486797 
" style="fill: none; stroke: #cccccc; stroke-width: 1.25; stroke-linejoin: miter; stroke-linecap: square"/>
   </g>
   <g id="patch_11">
    <path d="M 851.04 257.758574 
L 851.04 54.486797 
" style="fill: none; stroke: #cccccc; stroke-width: 1.25; stroke-linejoin: miter; stroke-linecap: square"/>
   </g>
   <g id="patch_12">
    <path d="M 482.681719 257.758574 
L 851.04 257.758574 
" style="fill: none; stroke: #cccccc; stroke-width: 1.25; stroke-linejoin: miter; stroke-linecap: square"/>
   </g>
   <g id="patch_13">
    <path d="M 482.681719 54.486797 
L 851.04 54.486797 
" style="fill: none; stroke: #cccccc; stroke-width: 1.25; stroke-linejoin: miter; stroke-linecap: square"/>
   </g>
   <g id="text_27">
    <!-- PSO -->
    <g style="fill: #262626" transform="translate(654.189609 48.486797) scale(0.12 -0.12)">
     <defs>
      <path id="Arial-BoldMT-33" d="M 466 0 
L 466 4581 
L 1950 4581 
Q 2794 4581 3050 4513 
Q 3444 4409 3709 4064 
Q 3975 3719 3975 3172 
Q 3975 2750 3822 2462 
Q 3669 2175 3433 2011 
Q 3197 1847 2953 1794 
Q 2622 1728 1994 1728 
L 1391 1728 
L 1391 0 
L 466 0 
z
M 1391 3806 
L 1391 2506 
L 1897 2506 
Q 2444 2506 2628 2578 
Q 2813 2650 2917 2803 
Q 3022 2956 3022 3159 
Q 3022 3409 2875 3571 
Q 2728 3734 2503 3775 
Q 2338 3806 1838 3806 
L 1391 3806 
z
" transform="scale(0.015625)"/>
      <path id="Arial-BoldMT-36" d="M 231 1491 
L 1131 1578 
Q 1213 1125 1461 912 
Q 1709 700 2131 700 
Q 2578 700 2804 889 
Q 3031 1078 3031 1331 
Q 3031 1494 2936 1608 
Q 2841 1722 2603 1806 
Q 2441 1863 1863 2006 
Q 1119 2191 819 2459 
Q 397 2838 397 3381 
Q 397 3731 595 4036 
Q 794 4341 1167 4500 
Q 1541 4659 2069 4659 
Q 2931 4659 3367 4281 
Q 3803 3903 3825 3272 
L 2900 3231 
Q 2841 3584 2645 3739 
Q 2450 3894 2059 3894 
Q 1656 3894 1428 3728 
Q 1281 3622 1281 3444 
Q 1281 3281 1419 3166 
Q 1594 3019 2269 2859 
Q 2944 2700 3267 2529 
Q 3591 2359 3773 2064 
Q 3956 1769 3956 1334 
Q 3956 941 3737 597 
Q 3519 253 3119 86 
Q 2719 -81 2122 -81 
Q 1253 -81 787 320 
Q 322 722 231 1491 
z
" transform="scale(0.015625)"/>
      <path id="Arial-BoldMT-32" d="M 278 2263 
Q 278 2963 488 3438 
Q 644 3788 914 4066 
Q 1184 4344 1506 4478 
Q 1934 4659 2494 4659 
Q 3506 4659 4114 4031 
Q 4722 3403 4722 2284 
Q 4722 1175 4119 548 
Q 3516 -78 2506 -78 
Q 1484 -78 881 545 
Q 278 1169 278 2263 
z
M 1231 2294 
Q 1231 1516 1590 1114 
Q 1950 713 2503 713 
Q 3056 713 3411 1111 
Q 3766 1509 3766 2306 
Q 3766 3094 3420 3481 
Q 3075 3869 2503 3869 
Q 1931 3869 1581 3476 
Q 1231 3084 1231 2294 
z
" transform="scale(0.015625)"/>
     </defs>
     <use xlink:href="#Arial-BoldMT-33"/>
     <use xlink:href="#Arial-BoldMT-36" transform="translate(66.703125 0)"/>
     <use xlink:href="#Arial-BoldMT-32" transform="translate(133.40625 0)"/>
    </g>
   </g>
   <g id="legend_2">
    <g id="patch_14">
     <path d="M 748.26625 83.902578 
L 845.44 83.902578 
Q 847.04 83.902578 847.04 82.302578 
L 847.04 60.086797 
Q 847.04 58.486797 845.44 58.486797 
L 748.26625 58.486797 
Q 746.66625 58.486797 746.66625 60.086797 
L 746.66625 82.302578 
Q 746.66625 83.902578 748.26625 83.902578 
z
" style="fill: #ffffff; opacity: 0.8; stroke: #cccccc; stroke-linejoin: miter"/>
    </g>
    <g id="patch_15">
     <path d="M 749.86625 67.511016 
L 765.86625 67.511016 
L 765.86625 61.911016 
L 749.86625 61.911016 
z
" style="fill: #f2b134; fill-opacity: 0.18; stroke: #f2b134; stroke-opacity: 0.18; stroke-linejoin: miter"/>
    </g>
    <g id="text_28">
     <!-- Envelope (min-max) -->
     <g style="fill: #262626" transform="translate(772.26625 67.511016) scale(0.08 -0.08)">
      <use xlink:href="#ArialMT-28"/>
      <use xlink:href="#ArialMT-51" transform="translate(66.703125 0)"/>
      <use xlink:href="#ArialMT-59" transform="translate(122.3125 0)"/>
      <use xlink:href="#ArialMT-48" transform="translate(172.3125 0)"/>
      <use xlink:href="#ArialMT-4f" transform="translate(227.921875 0)"/>
      <use xlink:href="#ArialMT-52" transform="translate(250.140625 0)"/>
      <use xlink:href="#ArialMT-53" transform="translate(305.75 0)"/>
      <use xlink:href="#ArialMT-48" transform="translate(361.359375 0)"/>
      <use xlink:href="#ArialMT-3" transform="translate(416.96875 0)"/>
      <use xlink:href="#ArialMT-b" transform="translate(444.75 0)"/>
      <use xlink:href="#ArialMT-50" transform="translate(478.046875 0)"/>
      <use xlink:href="#ArialMT-4c" transform="translate(561.34375 0)"/>
      <use xlink:href="#ArialMT-51" transform="translate(583.5625 0)"/>
      <use xlink:href="#ArialMT-10" transform="translate(639.171875 0)"/>
      <use xlink:href="#ArialMT-50" transform="translate(672.46875 0)"/>
      <use xlink:href="#ArialMT-44" transform="translate(755.765625 0)"/>
      <use xlink:href="#ArialMT-5b" transform="translate(811.375 0)"/>
      <use xlink:href="#ArialMT-c" transform="translate(861.375 0)"/>
     </g>
    </g>
    <g id="line2d_23">
     <path d="M 749.86625 76.218984 
L 757.86625 76.218984 
L 765.86625 76.218984 
" style="fill: none; stroke: #f2b134; stroke-width: 2; stroke-linecap: round"/>
     <g>
      <use xlink:href="#m826add2f88" x="757.86625" y="76.218984" style="fill: #f2b134; stroke: #f2b134; stroke-linejoin: miter"/>
     </g>
    </g>
    <g id="text_29">
     <!-- Mediana -->
     <g style="fill: #262626" transform="translate(772.26625 79.018984) scale(0.08 -0.08)">
      <use xlink:href="#ArialMT-30"/>
      <use xlink:href="#ArialMT-48" transform="translate(83.296875 0)"/>
      <use xlink:href="#ArialMT-47" transform="translate(138.90625 0)"/>
      <use xlink:href="#ArialMT-4c" transform="translate(194.515625 0)"/>
      <use xlink:href="#ArialMT-44" transform="translate(216.734375 0)"/>
      <use xlink:href="#ArialMT-51" transform="translate(272.34375 0)"/>
      <use xlink:href="#ArialMT-44" transform="translate(327.953125 0)"/>
     </g>
    </g>
   </g>
  </g>
  <g id="axes_3">
   <g id="patch_16">
    <path d="M 59.321719 525.88334 
L 851.04 525.88334 
L 851.04 322.611562 
L 59.321719 322.611562 
z
" style="fill: #ffffff"/>
   </g>
   <g id="matplotlib.axis_5">
    <g id="xtick_99">
     <g id="line2d_24">
      <path d="M 170.57667 525.88334 
L 170.57667 322.611562 
" clip-path="url(#pfa42961737)" style="fill: none; stroke: #cccccc; stroke-linecap: round"/>
     </g>
     <g id="text_30">
      <!-- $\mathdefault{10^{2}}$ -->
      <g style="fill: #262626" transform="translate(162.10667 545.50334) scale(0.11 -0.11)">
       <use xlink:href="#ArialMT-14" transform="translate(0 0.3875)"/>
       <use xlink:href="#ArialMT-13" transform="translate(55.615234 0.3875)"/>
       <use xlink:href="#ArialMT-15" transform="translate(112.1875 41.6875) scale(0.7)"/>
      </g>
     </g>
    </g>
    <g id="xtick_100">
     <g id="line2d_25">
      <path d="M 314.525448 525.88334 
L 314.525448 322.611562 
" clip-path="url(#pfa42961737)" style="fill: none; stroke: #cccccc; stroke-linecap: round"/>
     </g>
     <g id="text_31">
      <!-- $\mathdefault{10^{3}}$ -->
      <g style="fill: #262626" transform="translate(306.055448 545.50334) scale(0.11 -0.11)">
       <use xlink:href="#ArialMT-14" transform="translate(0 0.3875)"/>
       <use xlink:href="#ArialMT-13" transform="translate(55.615234 0.3875)"/>
       <use xlink:href="#ArialMT-16" transform="translate(112.1875 41.6875) scale(0.7)"/>
      </g>
     </g>
    </g>
    <g id="xtick_101">
     <g id="line2d_26">
      <path d="M 458.474227 525.88334 
L 458.474227 322.611562 
" clip-path="url(#pfa42961737)" style="fill: none; stroke: #cccccc; stroke-linecap: round"/>
     </g>
     <g id="text_32">
      <!-- $\mathdefault{10^{4}}$ -->
      <g style="fill: #262626" transform="translate(450.004227 545.50334) scale(0.11 -0.11)">
       <use xlink:href="#ArialMT-14" transform="translate(0 0.595313)"/>
       <use xlink:href="#ArialMT-13" transform="translate(55.615234 0.595313)"/>
       <use xlink:href="#ArialMT-17" transform="translate(112.1875 41.895313) scale(0.7)"/>
      </g>
     </g>
    </g>
    <g id="xtick_102">
     <g id="line2d_27">
      <path d="M 602.423005 525.88334 
L 602.423005 322.611562 
" clip-path="url(#pfa42961737)" style="fill: none; stroke: #cccccc; stroke-linecap: round"/>
     </g>
     <g id="text_33">
      <!-- $\mathdefault{10^{5}}$ -->
      <g style="fill: #262626" transform="translate(593.953005 545.39334) scale(0.11 -0.11)">
       <use xlink:href="#ArialMT-14" transform="translate(0 0.273438)"/>
       <use xlink:href="#ArialMT-13" transform="translate(55.615234 0.273438)"/>
       <use xlink:href="#ArialMT-18" transform="translate(112.1875 41.573437) scale(0.7)"/>
      </g>
     </g>
    </g>
    <g id="xtick_103">
     <g id="line2d_28">
      <path d="M 746.371784 525.88334 
L 746.371784 322.611562 
" clip-path="url(#pfa42961737)" style="fill: none; stroke: #cccccc; stroke-linecap: round"/>
     </g>
     <g id="text_34">
      <!-- $\mathdefault{10^{6}}$ -->
      <g style="fill: #262626" transform="translate(737.901784 545.50334) scale(0.11 -0.11)">
       <use xlink:href="#ArialMT-14" transform="translate(0 0.3875)"/>
       <use xlink:href="#ArialMT-13" transform="translate(55.615234 0.3875)"/>
       <use xlink:href="#ArialMT-19" transform="translate(112.1875 41.6875) scale(0.7)"/>
      </g>
     </g>
    </g>
    <g id="xtick_104"/>
    <g id="xtick_105"/>
    <g id="xtick_106"/>
    <g id="xtick_107"/>
    <g id="xtick_108"/>
    <g id="xtick_109"/>
    <g id="xtick_110"/>
    <g id="xtick_111"/>
    <g id="xtick_112"/>
    <g id="xtick_113"/>
    <g id="xtick_114"/>
    <g id="xtick_115"/>
    <g id="xtick_116"/>
    <g id="xtick_117"/>
    <g id="xtick_118"/>
    <g id="xtick_119"/>
    <g id="xtick_120"/>
    <g id="xtick_121"/>
    <g id="xtick_122"/>
    <g id="xtick_123"/>
    <g id="xtick_124"/>
    <g id="xtick_125"/>
    <g id="xtick_126"/>
    <g id="xtick_127"/>
    <g id="xtick_128"/>
    <g id="xtick_129"/>
    <g id="xtick_130"/>
    <g id="xtick_131"/>
    <g id="xtick_132"/>
    <g id="xtick_133"/>
    <g id="xtick_134"/>
    <g id="xtick_135"/>
    <g id="xtick_136"/>
    <g id="xtick_137"/>
    <g id="xtick_138"/>
    <g id="xtick_139"/>
    <g id="xtick_140"/>
    <g id="xtick_141"/>
    <g id="xtick_142"/>
    <g id="xtick_143"/>
    <g id="xtick_144"/>
    <g id="xtick_145"/>
    <g id="xtick_146"/>
    <g id="xtick_147"/>
    <g id="text_35">
     <!-- Avaliacoes da FO -->
     <g style="fill: #262626" transform="translate(407.936484 560.561406) scale(0.12 -0.12)">
      <use xlink:href="#ArialMT-24"/>
      <use xlink:href="#ArialMT-59" transform="translate(64.890625 0)"/>
      <use xlink:href="#ArialMT-44" transform="translate(114.890625 0)"/>
      <use xlink:href="#ArialMT-4f" transform="translate(170.5 0)"/>
      <use xlink:href="#ArialMT-4c" transform="translate(192.71875 0)"/>
      <use xlink:href="#ArialMT-44" transform="translate(214.9375 0)"/>
      <use xlink:href="#ArialMT-46" transform="translate(270.546875 0)"/>
      <use xlink:href="#ArialMT-52" transform="translate(320.546875 0)"/>
      <use xlink:href="#ArialMT-48" transform="translate(376.15625 0)"/>
      <use xlink:href="#ArialMT-56" transform="translate(431.765625 0)"/>
      <use xlink:href="#ArialMT-3" transform="translate(481.765625 0)"/>
      <use xlink:href="#ArialMT-47" transform="translate(509.546875 0)"/>
      <use xlink:href="#ArialMT-44" transform="translate(565.15625 0)"/>
      <use xlink:href="#ArialMT-3" transform="translate(620.765625 0)"/>
      <use xlink:href="#ArialMT-29" transform="translate(648.546875 0)"/>
      <use xlink:href="#ArialMT-32" transform="translate(709.625 0)"/>
     </g>
    </g>
   </g>
   <g id="matplotlib.axis_6">
    <g id="ytick_28">
     <g id="line2d_29">
      <path d="M 59.321719 515.817717 
L 851.04 515.817717 
" clip-path="url(#pfa42961737)" style="fill: none; stroke: #cccccc; stroke-linecap: round"/>
     </g>
     <g id="text_36">
      <!-- $\mathdefault{10^{-8}}$ -->
      <g style="fill: #262626" transform="translate(28.371719 520.877717) scale(0.11 -0.11)">
       <use xlink:href="#ArialMT-14" transform="translate(0 0.3875)"/>
       <use xlink:href="#ArialMT-13" transform="translate(55.615234 0.3875)"/>
       <use xlink:href="#ArialMT-ed" transform="translate(112.1875 41.6875) scale(0.7)"/>
       <use xlink:href="#ArialMT-1b" transform="translate(153.066406 41.6875) scale(0.7)"/>
      </g>
     </g>
    </g>
    <g id="ytick_29">
     <g id="line2d_30">
      <path d="M 59.321719 479.255432 
L 851.04 479.255432 
" clip-path="url(#pfa42961737)" style="fill: none; stroke: #cccccc; stroke-linecap: round"/>
     </g>
     <g id="text_37">
      <!-- $\mathdefault{10^{-6}}$ -->
      <g style="fill: #262626" transform="translate(28.371719 484.315432) scale(0.11 -0.11)">
       <use xlink:href="#ArialMT-14" transform="translate(0 0.3875)"/>
       <use xlink:href="#ArialMT-13" transform="translate(55.615234 0.3875)"/>
       <use xlink:href="#ArialMT-ed" transform="translate(112.1875 41.6875) scale(0.7)"/>
       <use xlink:href="#ArialMT-19" transform="translate(153.066406 41.6875) scale(0.7)"/>
      </g>
     </g>
    </g>
    <g id="ytick_30">
     <g id="line2d_31">
      <path d="M 59.321719 442.693148 
L 851.04 442.693148 
" clip-path="url(#pfa42961737)" style="fill: none; stroke: #cccccc; stroke-linecap: round"/>
     </g>
     <g id="text_38">
      <!-- $\mathdefault{10^{-4}}$ -->
      <g style="fill: #262626" transform="translate(28.371719 447.753148) scale(0.11 -0.11)">
       <use xlink:href="#ArialMT-14" transform="translate(0 0.595313)"/>
       <use xlink:href="#ArialMT-13" transform="translate(55.615234 0.595313)"/>
       <use xlink:href="#ArialMT-ed" transform="translate(112.1875 41.895313) scale(0.7)"/>
       <use xlink:href="#ArialMT-17" transform="translate(153.066406 41.895313) scale(0.7)"/>
      </g>
     </g>
    </g>
    <g id="ytick_31">
     <g id="line2d_32">
      <path d="M 59.321719 406.130863 
L 851.04 406.130863 
" clip-path="url(#pfa42961737)" style="fill: none; stroke: #cccccc; stroke-linecap: round"/>
     </g>
     <g id="text_39">
      <!-- $\mathdefault{10^{-2}}$ -->
      <g style="fill: #262626" transform="translate(28.371719 411.190863) scale(0.11 -0.11)">
       <use xlink:href="#ArialMT-14" transform="translate(0 0.3875)"/>
       <use xlink:href="#ArialMT-13" transform="translate(55.615234 0.3875)"/>
       <use xlink:href="#ArialMT-ed" transform="translate(112.1875 41.6875) scale(0.7)"/>
       <use xlink:href="#ArialMT-15" transform="translate(153.066406 41.6875) scale(0.7)"/>
      </g>
     </g>
    </g>
    <g id="ytick_32">
     <g id="line2d_33">
      <path d="M 59.321719 369.568579 
L 851.04 369.568579 
" clip-path="url(#pfa42961737)" style="fill: none; stroke: #cccccc; stroke-linecap: round"/>
     </g>
     <g id="text_40">
      <!-- $\mathdefault{10^{0}}$ -->
      <g style="fill: #262626" transform="translate(32.881719 374.628579) scale(0.11 -0.11)">
       <use xlink:href="#ArialMT-14" transform="translate(0 0.3875)"/>
       <use xlink:href="#ArialMT-13" transform="translate(55.615234 0.3875)"/>
       <use xlink:href="#ArialMT-13" transform="translate(112.1875 41.6875) scale(0.7)"/>
      </g>
     </g>
    </g>
    <g id="ytick_33">
     <g id="line2d_34">
      <path d="M 59.321719 333.006294 
L 851.04 333.006294 
" clip-path="url(#pfa42961737)" style="fill: none; stroke: #cccccc; stroke-linecap: round"/>
     </g>
     <g id="text_41">
      <!-- $\mathdefault{10^{2}}$ -->
      <g style="fill: #262626" transform="translate(32.881719 338.066294) scale(0.11 -0.11)">
       <use xlink:href="#ArialMT-14" transform="translate(0 0.3875)"/>
       <use xlink:href="#ArialMT-13" transform="translate(55.615234 0.3875)"/>
       <use xlink:href="#ArialMT-15" transform="translate(112.1875 41.6875) scale(0.7)"/>
      </g>
     </g>
    </g>
    <g id="text_42">
     <!-- Melhor f_obj -->
     <g style="fill: #262626" transform="translate(21.846094 457.262451) rotate(-90) scale(0.12 -0.12)">
      <use xlink:href="#ArialMT-30"/>
      <use xlink:href="#ArialMT-48" transform="translate(83.296875 0)"/>
      <use xlink:href="#ArialMT-4f" transform="translate(138.90625 0)"/>
      <use xlink:href="#ArialMT-4b" transform="translate(161.125 0)"/>
      <use xlink:href="#ArialMT-52" transform="translate(216.734375 0)"/>
      <use xlink:href="#ArialMT-55" transform="translate(272.34375 0)"/>
      <use xlink:href="#ArialMT-3" transform="translate(305.640625 0)"/>
      <use xlink:href="#ArialMT-49" transform="translate(333.421875 0)"/>
      <use xlink:href="#ArialMT-42" transform="translate(361.203125 0)"/>
      <use xlink:href="#ArialMT-52" transform="translate(416.8125 0)"/>
      <use xlink:href="#ArialMT-45" transform="translate(472.421875 0)"/>
      <use xlink:href="#ArialMT-4d" transform="translate(528.03125 0)"/>
     </g>
    </g>
   </g>
   <g id="line2d_35">
    <path d="M 95.308913 332.419045 
L 339.87357 345.441366 
L 383.20647 347.106363 
L 426.53937 347.591065 
L 483.822348 352.937016 
L 527.155249 360.88517 
L 627.771127 471.326936 
L 671.104027 485.507048 
L 771.719905 511.239757 
L 815.052805 516.643714 
" clip-path="url(#pfa42961737)" style="fill: none; stroke: #1f77b4; stroke-width: 2; stroke-linecap: round"/>
    <g clip-path="url(#pfa42961737)">
     <use xlink:href="#m7849e07f8f" x="95.308913" y="332.419045" style="fill: #1f77b4; stroke: #1f77b4"/>
     <use xlink:href="#m7849e07f8f" x="339.87357" y="345.441366" style="fill: #1f77b4; stroke: #1f77b4"/>
     <use xlink:href="#m7849e07f8f" x="383.20647" y="347.106363" style="fill: #1f77b4; stroke: #1f77b4"/>
     <use xlink:href="#m7849e07f8f" x="426.53937" y="347.591065" style="fill: #1f77b4; stroke: #1f77b4"/>
     <use xlink:href="#m7849e07f8f" x="483.822348" y="352.937016" style="fill: #1f77b4; stroke: #1f77b4"/>
     <use xlink:href="#m7849e07f8f" x="527.155249" y="360.88517" style="fill: #1f77b4; stroke: #1f77b4"/>
     <use xlink:href="#m7849e07f8f" x="627.771127" y="471.326936" style="fill: #1f77b4; stroke: #1f77b4"/>
     <use xlink:href="#m7849e07f8f" x="671.104027" y="485.507048" style="fill: #1f77b4; stroke: #1f77b4"/>
     <use xlink:href="#m7849e07f8f" x="771.719905" y="511.239757" style="fill: #1f77b4; stroke: #1f77b4"/>
     <use xlink:href="#m7849e07f8f" x="815.052805" y="516.643714" style="fill: #1f77b4; stroke: #1f77b4"/>
    </g>
   </g>
   <g id="line2d_36">
    <path d="M 95.308913 331.851189 
L 339.87357 341.259619 
L 383.20647 347.903396 
L 426.53937 354.700614 
L 483.822348 358.602357 
L 527.155249 360.88638 
L 627.771127 360.88638 
L 671.104027 360.88638 
L 771.719905 360.88638 
L 815.052805 360.88638 
" clip-path="url(#pfa42961737)" style="fill: none; stroke: #f2b134; stroke-width: 2; stroke-linecap: round"/>
    <g clip-path="url(#pfa42961737)">
     <use xlink:href="#m826add2f88" x="95.308913" y="331.851189" style="fill: #f2b134; stroke: #f2b134; stroke-linejoin: miter"/>
     <use xlink:href="#m826add2f88" x="339.87357" y="341.259619" style="fill: #f2b134; stroke: #f2b134; stroke-linejoin: miter"/>
     <use xlink:href="#m826add2f88" x="383.20647" y="347.903396" style="fill: #f2b134; stroke: #f2b134; stroke-linejoin: miter"/>
     <use xlink:href="#m826add2f88" x="426.53937" y="354.700614" style="fill: #f2b134; stroke: #f2b134; stroke-linejoin: miter"/>
     <use xlink:href="#m826add2f88" x="483.822348" y="358.602357" style="fill: #f2b134; stroke: #f2b134; stroke-linejoin: miter"/>
     <use xlink:href="#m826add2f88" x="527.155249" y="360.88638" style="fill: #f2b134; stroke: #f2b134; stroke-linejoin: miter"/>
     <use xlink:href="#m826add2f88" x="627.771127" y="360.88638" style="fill: #f2b134; stroke: #f2b134; stroke-linejoin: miter"/>
     <use xlink:href="#m826add2f88" x="671.104027" y="360.88638" style="fill: #f2b134; stroke: #f2b134; stroke-linejoin: miter"/>
     <use xlink:href="#m826add2f88" x="771.719905" y="360.88638" style="fill: #f2b134; stroke: #f2b134; stroke-linejoin: miter"/>
     <use xlink:href="#m826add2f88" x="815.052805" y="360.88638" style="fill: #f2b134; stroke: #f2b134; stroke-linejoin: miter"/>
    </g>
   </g>
   <g id="patch_17">
    <path d="M 59.321719 525.88334 
L 59.321719 322.611562 
" style="fill: none; stroke: #cccccc; stroke-width: 1.25; stroke-linejoin: miter; stroke-linecap: square"/>
   </g>
   <g id="patch_18">
    <path d="M 851.04 525.88334 
L 851.04 322.611562 
" style="fill: none; stroke: #cccccc; stroke-width: 1.25; stroke-linejoin: miter; stroke-linecap: square"/>
   </g>
   <g id="patch_19">
    <path d="M 59.321719 525.88334 
L 851.04 525.88334 
" style="fill: none; stroke: #cccccc; stroke-width: 1.25; stroke-linejoin: miter; stroke-linecap: square"/>
   </g>
   <g id="patch_20">
    <path d="M 59.321719 322.611562 
L 851.04 322.611562 
" style="fill: none; stroke: #cccccc; stroke-width: 1.25; stroke-linejoin: miter; stroke-linecap: square"/>
   </g>
   <g id="text_43">
    <!-- Comparacao -->
    <g style="fill: #262626" transform="translate(418.836797 316.611562) scale(0.12 -0.12)">
     <defs>
      <path id="Arial-BoldMT-52" d="M 256 1706 
Q 256 2144 472 2553 
Q 688 2963 1083 3178 
Q 1478 3394 1966 3394 
Q 2719 3394 3200 2905 
Q 3681 2416 3681 1669 
Q 3681 916 3195 420 
Q 2709 -75 1972 -75 
Q 1516 -75 1102 131 
Q 688 338 472 736 
Q 256 1134 256 1706 
z
M 1156 1659 
Q 1156 1166 1390 903 
Q 1625 641 1969 641 
Q 2313 641 2545 903 
Q 2778 1166 2778 1666 
Q 2778 2153 2545 2415 
Q 2313 2678 1969 2678 
Q 1625 2678 1390 2415 
Q 1156 2153 1156 1659 
z
" transform="scale(0.015625)"/>
      <path id="Arial-BoldMT-50" d="M 394 3319 
L 1203 3319 
L 1203 2866 
Q 1638 3394 2238 3394 
Q 2556 3394 2790 3262 
Q 3025 3131 3175 2866 
Q 3394 3131 3647 3262 
Q 3900 3394 4188 3394 
Q 4553 3394 4806 3245 
Q 5059 3097 5184 2809 
Q 5275 2597 5275 2122 
L 5275 0 
L 4397 0 
L 4397 1897 
Q 4397 2391 4306 2534 
Q 4184 2722 3931 2722 
Q 3747 2722 3584 2609 
Q 3422 2497 3350 2280 
Q 3278 2063 3278 1594 
L 3278 0 
L 2400 0 
L 2400 1819 
Q 2400 2303 2353 2443 
Q 2306 2584 2207 2653 
Q 2109 2722 1941 2722 
Q 1738 2722 1575 2612 
Q 1413 2503 1342 2297 
Q 1272 2091 1272 1613 
L 1272 0 
L 394 0 
L 394 3319 
z
" transform="scale(0.015625)"/>
      <path id="Arial-BoldMT-53" d="M 434 3319 
L 1253 3319 
L 1253 2831 
Q 1413 3081 1684 3237 
Q 1956 3394 2288 3394 
Q 2866 3394 3269 2941 
Q 3672 2488 3672 1678 
Q 3672 847 3265 386 
Q 2859 -75 2281 -75 
Q 2006 -75 1782 34 
Q 1559 144 1313 409 
L 1313 -1263 
L 434 -1263 
L 434 3319 
z
M 1303 1716 
Q 1303 1156 1525 889 
Q 1747 622 2066 622 
Q 2372 622 2575 867 
Q 2778 1113 2778 1672 
Q 2778 2194 2568 2447 
Q 2359 2700 2050 2700 
Q 1728 2700 1515 2451 
Q 1303 2203 1303 1716 
z
" transform="scale(0.015625)"/>
      <path id="Arial-BoldMT-44" d="M 1116 2306 
L 319 2450 
Q 453 2931 781 3162 
Q 1109 3394 1756 3394 
Q 2344 3394 2631 3255 
Q 2919 3116 3036 2902 
Q 3153 2688 3153 2116 
L 3144 1091 
Q 3144 653 3186 445 
Q 3228 238 3344 0 
L 2475 0 
Q 2441 88 2391 259 
Q 2369 338 2359 363 
Q 2134 144 1878 34 
Q 1622 -75 1331 -75 
Q 819 -75 523 203 
Q 228 481 228 906 
Q 228 1188 362 1408 
Q 497 1628 739 1745 
Q 981 1863 1438 1950 
Q 2053 2066 2291 2166 
L 2291 2253 
Q 2291 2506 2166 2614 
Q 2041 2722 1694 2722 
Q 1459 2722 1328 2630 
Q 1197 2538 1116 2306 
z
M 2291 1594 
Q 2122 1538 1756 1459 
Q 1391 1381 1278 1306 
Q 1106 1184 1106 997 
Q 1106 813 1243 678 
Q 1381 544 1594 544 
Q 1831 544 2047 700 
Q 2206 819 2256 991 
Q 2291 1103 2291 1419 
L 2291 1594 
z
" transform="scale(0.015625)"/>
      <path id="Arial-BoldMT-55" d="M 1300 0 
L 422 0 
L 422 3319 
L 1238 3319 
L 1238 2847 
Q 1447 3181 1614 3287 
Q 1781 3394 1994 3394 
Q 2294 3394 2572 3228 
L 2300 2463 
Q 2078 2606 1888 2606 
Q 1703 2606 1575 2504 
Q 1447 2403 1373 2137 
Q 1300 1872 1300 1025 
L 1300 0 
z
" transform="scale(0.015625)"/>
      <path id="Arial-BoldMT-46" d="M 3353 2338 
L 2488 2181 
Q 2444 2441 2289 2572 
Q 2134 2703 1888 2703 
Q 1559 2703 1364 2476 
Q 1169 2250 1169 1719 
Q 1169 1128 1367 884 
Q 1566 641 1900 641 
Q 2150 641 2309 783 
Q 2469 925 2534 1272 
L 3397 1125 
Q 3263 531 2881 228 
Q 2500 -75 1859 -75 
Q 1131 -75 698 384 
Q 266 844 266 1656 
Q 266 2478 700 2936 
Q 1134 3394 1875 3394 
Q 2481 3394 2839 3133 
Q 3197 2872 3353 2338 
z
" transform="scale(0.015625)"/>
     </defs>
     <use xlink:href="#Arial-BoldMT-26"/>
     <use xlink:href="#Arial-BoldMT-52" transform="translate(72.21875 0)"/>
     <use xlink:href="#Arial-BoldMT-50" transform="translate(133.296875 0)"/>
     <use xlink:href="#Arial-BoldMT-53" transform="translate(222.21875 0)"/>
     <use xlink:href="#Arial-BoldMT-44" transform="translate(283.296875 0)"/>
     <use xlink:href="#Arial-BoldMT-55" transform="translate(338.90625 0)"/>
     <use xlink:href="#Arial-BoldMT-44" transform="translate(377.828125 0)"/>
     <use xlink:href="#Arial-BoldMT-46" transform="translate(433.4375 0)"/>
     <use xlink:href="#Arial-BoldMT-44" transform="translate(489.046875 0)"/>
     <use xlink:href="#Arial-BoldMT-52" transform="translate(544.65625 0)"/>
    </g>
   </g>
   <g id="legend_3">
    <g id="patch_21">
     <path d="M 67.021719 520.38334 
L 134.003125 520.38334 
Q 136.203125 520.38334 136.203125 518.18334 
L 136.203125 487.630625 
Q 136.203125 485.430625 134.003125 485.430625 
L 67.021719 485.430625 
Q 64.821719 485.430625 64.821719 487.630625 
L 64.821719 518.18334 
Q 64.821719 520.38334 67.021719 520.38334 
z
" style="fill: #ffffff; opacity: 0.8; stroke: #cccccc; stroke-linejoin: miter"/>
    </g>
    <g id="line2d_37">
     <path d="M 69.221719 493.988926 
L 80.221719 493.988926 
L 91.221719 493.988926 
" style="fill: none; stroke: #1f77b4; stroke-width: 2; stroke-linecap: round"/>
     <g>
      <use xlink:href="#m7849e07f8f" x="80.221719" y="493.988926" style="fill: #1f77b4; stroke: #1f77b4"/>
     </g>
    </g>
    <g id="text_44">
     <!-- RCGA -->
     <g style="fill: #262626" transform="translate(100.021719 497.838926) scale(0.11 -0.11)">
      <defs>
       <path id="ArialMT-35" d="M 503 0 
L 503 4581 
L 2534 4581 
Q 3147 4581 3465 4457 
Q 3784 4334 3975 4021 
Q 4166 3709 4166 3331 
Q 4166 2844 3850 2509 
Q 3534 2175 2875 2084 
Q 3116 1969 3241 1856 
Q 3506 1613 3744 1247 
L 4541 0 
L 3778 0 
L 3172 953 
Q 2906 1366 2734 1584 
Q 2563 1803 2427 1890 
Q 2291 1978 2150 2013 
Q 2047 2034 1813 2034 
L 1109 2034 
L 1109 0 
L 503 0 
z
M 1109 2559 
L 2413 2559 
Q 2828 2559 3062 2645 
Q 3297 2731 3419 2920 
Q 3541 3109 3541 3331 
Q 3541 3656 3305 3865 
Q 3069 4075 2559 4075 
L 1109 4075 
L 1109 2559 
z
" transform="scale(0.015625)"/>
       <path id="ArialMT-26" d="M 3763 1606 
L 4369 1453 
Q 4178 706 3683 314 
Q 3188 -78 2472 -78 
Q 1731 -78 1267 223 
Q 803 525 561 1097 
Q 319 1669 319 2325 
Q 319 3041 592 3573 
Q 866 4106 1370 4382 
Q 1875 4659 2481 4659 
Q 3169 4659 3637 4309 
Q 4106 3959 4291 3325 
L 3694 3184 
Q 3534 3684 3231 3912 
Q 2928 4141 2469 4141 
Q 1941 4141 1586 3887 
Q 1231 3634 1087 3207 
Q 944 2781 944 2328 
Q 944 1744 1114 1308 
Q 1284 872 1643 656 
Q 2003 441 2422 441 
Q 2931 441 3284 734 
Q 3638 1028 3763 1606 
z
" transform="scale(0.015625)"/>
       <path id="ArialMT-2a" d="M 2638 1797 
L 2638 2334 
L 4578 2338 
L 4578 638 
Q 4131 281 3656 101 
Q 3181 -78 2681 -78 
Q 2006 -78 1454 211 
Q 903 500 622 1047 
Q 341 1594 341 2269 
Q 341 2938 620 3517 
Q 900 4097 1425 4378 
Q 1950 4659 2634 4659 
Q 3131 4659 3532 4498 
Q 3934 4338 4162 4050 
Q 4391 3763 4509 3300 
L 3963 3150 
Q 3859 3500 3706 3700 
Q 3553 3900 3268 4020 
Q 2984 4141 2638 4141 
Q 2222 4141 1919 4014 
Q 1616 3888 1430 3681 
Q 1244 3475 1141 3228 
Q 966 2803 966 2306 
Q 966 1694 1177 1281 
Q 1388 869 1791 669 
Q 2194 469 2647 469 
Q 3041 469 3416 620 
Q 3791 772 3984 944 
L 3984 1797 
L 2638 1797 
z
" transform="scale(0.015625)"/>
      </defs>
      <use xlink:href="#ArialMT-35"/>
      <use xlink:href="#ArialMT-26" transform="translate(72.21875 0)"/>
      <use xlink:href="#ArialMT-2a" transform="translate(144.4375 0)"/>
      <use xlink:href="#ArialMT-24" transform="translate(222.21875 0)"/>
     </g>
    </g>
    <g id="line2d_38">
     <path d="M 69.221719 509.818398 
L 80.221719 509.818398 
L 91.221719 509.818398 
" style="fill: none; stroke: #f2b134; stroke-width: 2; stroke-linecap: round"/>
     <g>
      <use xlink:href="#m826add2f88" x="80.221719" y="509.818398" style="fill: #f2b134; stroke: #f2b134; stroke-linejoin: miter"/>
     </g>
    </g>
    <g id="text_45">
     <!-- PSO -->
     <g style="fill: #262626" transform="translate(100.021719 513.668398) scale(0.11 -0.11)">
      <defs>
       <path id="ArialMT-33" d="M 494 0 
L 494 4581 
L 2222 4581 
Q 2678 4581 2919 4538 
Q 3256 4481 3484 4323 
Q 3713 4166 3852 3881 
Q 3991 3597 3991 3256 
Q 3991 2672 3619 2267 
Q 3247 1863 2275 1863 
L 1100 1863 
L 1100 0 
L 494 0 
z
M 1100 2403 
L 2284 2403 
Q 2872 2403 3119 2622 
Q 3366 2841 3366 3238 
Q 3366 3525 3220 3729 
Q 3075 3934 2838 4000 
Q 2684 4041 2272 4041 
L 1100 4041 
L 1100 2403 
z
" transform="scale(0.015625)"/>
       <path id="ArialMT-36" d="M 288 1472 
L 859 1522 
Q 900 1178 1048 958 
Q 1197 738 1509 602 
Q 1822 466 2213 466 
Q 2559 466 2825 569 
Q 3091 672 3220 851 
Q 3350 1031 3350 1244 
Q 3350 1459 3225 1620 
Q 3100 1781 2813 1891 
Q 2628 1963 1997 2114 
Q 1366 2266 1113 2400 
Q 784 2572 623 2826 
Q 463 3081 463 3397 
Q 463 3744 659 4045 
Q 856 4347 1234 4503 
Q 1613 4659 2075 4659 
Q 2584 4659 2973 4495 
Q 3363 4331 3572 4012 
Q 3781 3694 3797 3291 
L 3216 3247 
Q 3169 3681 2898 3903 
Q 2628 4125 2100 4125 
Q 1550 4125 1298 3923 
Q 1047 3722 1047 3438 
Q 1047 3191 1225 3031 
Q 1400 2872 2139 2705 
Q 2878 2538 3153 2413 
Q 3553 2228 3743 1945 
Q 3934 1663 3934 1294 
Q 3934 928 3725 604 
Q 3516 281 3123 101 
Q 2731 -78 2241 -78 
Q 1619 -78 1198 103 
Q 778 284 539 648 
Q 300 1013 288 1472 
z
" transform="scale(0.015625)"/>
      </defs>
      <use xlink:href="#ArialMT-33"/>
      <use xlink:href="#ArialMT-36" transform="translate(66.703125 0)"/>
      <use xlink:href="#ArialMT-32" transform="translate(133.40625 0)"/>
     </g>
    </g>
   </g>
  </g>
  <g id="text_46">
   <!-- Convergencia - Rastrigin 10D (mediana e envelope das runs) -->
   <g style="fill: #262626" transform="translate(224.35425 22.003594) scale(0.144 -0.144)">
    <defs>
     <path id="Arial-BoldMT-51" d="M 3478 0 
L 2600 0 
L 2600 1694 
Q 2600 2231 2544 2389 
Q 2488 2547 2361 2634 
Q 2234 2722 2056 2722 
Q 1828 2722 1647 2597 
Q 1466 2472 1398 2265 
Q 1331 2059 1331 1503 
L 1331 0 
L 453 0 
L 453 3319 
L 1269 3319 
L 1269 2831 
Q 1703 3394 2363 3394 
Q 2653 3394 2893 3289 
Q 3134 3184 3257 3021 
Q 3381 2859 3429 2653 
Q 3478 2447 3478 2063 
L 3478 0 
z
" transform="scale(0.015625)"/>
     <path id="Arial-BoldMT-59" d="M 1372 0 
L 34 3319 
L 956 3319 
L 1581 1625 
L 1763 1059 
Q 1834 1275 1853 1344 
Q 1897 1484 1947 1625 
L 2578 3319 
L 3481 3319 
L 2163 0 
L 1372 0 
z
" transform="scale(0.015625)"/>
     <path id="Arial-BoldMT-48" d="M 2381 1056 
L 3256 909 
Q 3088 428 2723 176 
Q 2359 -75 1813 -75 
Q 947 -75 531 491 
Q 203 944 203 1634 
Q 203 2459 634 2926 
Q 1066 3394 1725 3394 
Q 2466 3394 2894 2905 
Q 3322 2416 3303 1406 
L 1103 1406 
Q 1113 1016 1316 798 
Q 1519 581 1822 581 
Q 2028 581 2168 693 
Q 2309 806 2381 1056 
z
M 2431 1944 
Q 2422 2325 2234 2523 
Q 2047 2722 1778 2722 
Q 1491 2722 1303 2513 
Q 1116 2303 1119 1944 
L 2431 1944 
z
" transform="scale(0.015625)"/>
     <path id="Arial-BoldMT-4a" d="M 378 -219 
L 1381 -341 
Q 1406 -516 1497 -581 
Q 1622 -675 1891 -675 
Q 2234 -675 2406 -572 
Q 2522 -503 2581 -350 
Q 2622 -241 2622 53 
L 2622 538 
Q 2228 0 1628 0 
Q 959 0 569 566 
Q 263 1013 263 1678 
Q 263 2513 664 2953 
Q 1066 3394 1663 3394 
Q 2278 3394 2678 2853 
L 2678 3319 
L 3500 3319 
L 3500 341 
Q 3500 -247 3403 -537 
Q 3306 -828 3131 -993 
Q 2956 -1159 2664 -1253 
Q 2372 -1347 1925 -1347 
Q 1081 -1347 728 -1058 
Q 375 -769 375 -325 
Q 375 -281 378 -219 
z
M 1163 1728 
Q 1163 1200 1367 954 
Q 1572 709 1872 709 
Q 2194 709 2416 961 
Q 2638 1213 2638 1706 
Q 2638 2222 2425 2472 
Q 2213 2722 1888 2722 
Q 1572 2722 1367 2476 
Q 1163 2231 1163 1728 
z
" transform="scale(0.015625)"/>
     <path id="Arial-BoldMT-4c" d="M 459 3769 
L 459 4581 
L 1338 4581 
L 1338 3769 
L 459 3769 
z
M 459 0 
L 459 3319 
L 1338 3319 
L 1338 0 
L 459 0 
z
" transform="scale(0.015625)"/>
     <path id="Arial-BoldMT-3" transform="scale(0.015625)"/>
     <path id="Arial-BoldMT-10" d="M 359 1222 
L 359 2100 
L 2084 2100 
L 2084 1222 
L 359 1222 
z
" transform="scale(0.015625)"/>
     <path id="Arial-BoldMT-56" d="M 150 947 
L 1031 1081 
Q 1088 825 1259 692 
Q 1431 559 1741 559 
Q 2081 559 2253 684 
Q 2369 772 2369 919 
Q 2369 1019 2306 1084 
Q 2241 1147 2013 1200 
Q 950 1434 666 1628 
Q 272 1897 272 2375 
Q 272 2806 612 3100 
Q 953 3394 1669 3394 
Q 2350 3394 2681 3172 
Q 3013 2950 3138 2516 
L 2309 2363 
Q 2256 2556 2107 2659 
Q 1959 2763 1684 2763 
Q 1338 2763 1188 2666 
Q 1088 2597 1088 2488 
Q 1088 2394 1175 2328 
Q 1294 2241 1995 2081 
Q 2697 1922 2975 1691 
Q 3250 1456 3250 1038 
Q 3250 581 2869 253 
Q 2488 -75 1741 -75 
Q 1063 -75 667 200 
Q 272 475 150 947 
z
" transform="scale(0.015625)"/>
     <path id="Arial-BoldMT-57" d="M 1981 3319 
L 1981 2619 
L 1381 2619 
L 1381 1281 
Q 1381 875 1398 808 
Q 1416 741 1477 697 
Q 1538 653 1625 653 
Q 1747 653 1978 738 
L 2053 56 
Q 1747 -75 1359 -75 
Q 1122 -75 931 4 
Q 741 84 652 211 
Q 563 338 528 553 
Q 500 706 500 1172 
L 500 2619 
L 97 2619 
L 97 3319 
L 500 3319 
L 500 3978 
L 1381 4491 
L 1381 3319 
L 1981 3319 
z
" transform="scale(0.015625)"/>
     <path id="Arial-BoldMT-14" d="M 2519 0 
L 1641 0 
L 1641 3309 
Q 1159 2859 506 2644 
L 506 3441 
Q 850 3553 1253 3867 
Q 1656 4181 1806 4600 
L 2519 4600 
L 2519 0 
z
" transform="scale(0.015625)"/>
     <path id="Arial-BoldMT-13" d="M 1756 4600 
Q 2422 4600 2797 4125 
Q 3244 3563 3244 2259 
Q 3244 959 2794 391 
Q 2422 -78 1756 -78 
Q 1088 -78 678 436 
Q 269 950 269 2269 
Q 269 3563 719 4131 
Q 1091 4600 1756 4600 
z
M 1756 3872 
Q 1597 3872 1472 3770 
Q 1347 3669 1278 3406 
Q 1188 3066 1188 2259 
Q 1188 1453 1269 1151 
Q 1350 850 1473 750 
Q 1597 650 1756 650 
Q 1916 650 2041 751 
Q 2166 853 2234 1116 
Q 2325 1453 2325 2259 
Q 2325 3066 2244 3367 
Q 2163 3669 2039 3770 
Q 1916 3872 1756 3872 
z
" transform="scale(0.015625)"/>
     <path id="Arial-BoldMT-27" d="M 463 4581 
L 2153 4581 
Q 2725 4581 3025 4494 
Q 3428 4375 3715 4072 
Q 4003 3769 4153 3330 
Q 4303 2891 4303 2247 
Q 4303 1681 4163 1272 
Q 3991 772 3672 463 
Q 3431 228 3022 97 
Q 2716 0 2203 0 
L 463 0 
L 463 4581 
z
M 1388 3806 
L 1388 772 
L 2078 772 
Q 2466 772 2638 816 
Q 2863 872 3011 1006 
Q 3159 1141 3253 1448 
Q 3347 1756 3347 2288 
Q 3347 2819 3253 3103 
Q 3159 3388 2990 3547 
Q 2822 3706 2563 3763 
Q 2369 3806 1803 3806 
L 1388 3806 
z
" transform="scale(0.015625)"/>
     <path id="Arial-BoldMT-b" d="M 1916 -1347 
L 1313 -1347 
Q 834 -625 584 153 
Q 334 931 334 1659 
Q 334 2563 644 3369 
Q 913 4069 1325 4659 
L 1925 4659 
Q 1497 3713 1336 3048 
Q 1175 2384 1175 1641 
Q 1175 1128 1270 590 
Q 1366 53 1531 -431 
Q 1641 -750 1916 -1347 
z
" transform="scale(0.015625)"/>
     <path id="Arial-BoldMT-47" d="M 3503 0 
L 2688 0 
L 2688 488 
Q 2484 203 2207 64 
Q 1931 -75 1650 -75 
Q 1078 -75 670 386 
Q 263 847 263 1672 
Q 263 2516 659 2955 
Q 1056 3394 1663 3394 
Q 2219 3394 2625 2931 
L 2625 4581 
L 3503 4581 
L 3503 0 
z
M 1159 1731 
Q 1159 1200 1306 963 
Q 1519 619 1900 619 
Q 2203 619 2415 876 
Q 2628 1134 2628 1647 
Q 2628 2219 2422 2470 
Q 2216 2722 1894 2722 
Q 1581 2722 1370 2473 
Q 1159 2225 1159 1731 
z
" transform="scale(0.015625)"/>
     <path id="Arial-BoldMT-4f" d="M 459 0 
L 459 4581 
L 1338 4581 
L 1338 0 
L 459 0 
z
" transform="scale(0.015625)"/>
     <path id="Arial-BoldMT-58" d="M 2644 0 
L 2644 497 
Q 2463 231 2167 78 
Q 1872 -75 1544 -75 
Q 1209 -75 943 72 
Q 678 219 559 484 
Q 441 750 441 1219 
L 441 3319 
L 1319 3319 
L 1319 1794 
Q 1319 1094 1367 936 
Q 1416 778 1544 686 
Q 1672 594 1869 594 
Q 2094 594 2272 717 
Q 2450 841 2515 1023 
Q 2581 1206 2581 1919 
L 2581 3319 
L 3459 3319 
L 3459 0 
L 2644 0 
z
" transform="scale(0.015625)"/>
     <path id="Arial-BoldMT-c" d="M 216 -1347 
Q 475 -791 581 -494 
Q 688 -197 778 190 
Q 869 578 912 926 
Q 956 1275 956 1641 
Q 956 2384 797 3048 
Q 638 3713 209 4659 
L 806 4659 
Q 1278 3988 1539 3234 
Q 1800 2481 1800 1706 
Q 1800 1053 1594 306 
Q 1359 -531 822 -1347 
L 216 -1347 
z
" transform="scale(0.015625)"/>
    </defs>
    <use xlink:href="#Arial-BoldMT-26"/>
    <use xlink:href="#Arial-BoldMT-52" transform="translate(72.21875 0)"/>
    <use xlink:href="#Arial-BoldMT-51" transform="translate(133.296875 0)"/>
    <use xlink:href="#Arial-BoldMT-59" transform="translate(194.375 0)"/>
    <use xlink:href="#Arial-BoldMT-48" transform="translate(249.984375 0)"/>
    <use xlink:href="#Arial-BoldMT-55" transform="translate(305.59375 0)"/>
    <use xlink:href="#Arial-BoldMT-4a" transform="translate(344.515625 0)"/>
    <use xlink:href="#Arial-BoldMT-48" transform="translate(405.59375 0)"/>
    <use xlink:href="#Arial-BoldMT-51" transform="translate(461.203125 0)"/>
    <use xlink:href="#Arial-BoldMT-46" transform="translate(522.28125 0)"/>
    <use xlink:href="#Arial-BoldMT-4c" transform="translate(577.890625 0)"/>
    <use xlink:href="#Arial-BoldMT-44" transform="translate(605.671875 0)"/>
    <use xlink:href="#Arial-BoldMT-3" transform="translate(661.28125 0)"/>
    <use xlink:href="#Arial-BoldMT-10" transform="translate(689.0625 0)"/>
    <use xlink:href="#Arial-BoldMT-3" transform="translate(722.359375 0)"/>
    <use xlink:href="#Arial-BoldMT-35" transform="translate(750.140625 0)"/>
    <use xlink:href="#Arial-BoldMT-44" transform="translate(822.359375 0)"/>
    <use xlink:href="#Arial-BoldMT-56" transform="translate(877.96875 0)"/>
    <use xlink:href="#Arial-BoldMT-57" transform="translate(933.578125 0)"/>
    <use xlink:href="#Arial-BoldMT-55" transform="translate(966.875 0)"/>
    <use xlink:href="#Arial-BoldMT-4c" transform="translate(1005.796875 0)"/>
    <use xlink:href="#Arial-BoldMT-4a" transform="translate(1033.578125 0)"/>
    <use xlink:href="#Arial-BoldMT-4c" transform="translate(1094.65625 0)"/>
    <use xlink:href="#Arial-BoldMT-51" transform="translate(1122.4375 0)"/>
    <use xlink:href="#Arial-BoldMT-3" transform="translate(1183.515625 0)"/>
    <use xlink:href="#Arial-BoldMT-14" transform="translate(1211.296875 0)"/>
    <use xlink:href="#Arial-BoldMT-13" transform="translate(1266.90625 0)"/>
    <use xlink:href="#Arial-BoldMT-27" transform="translate(1322.515625 0)"/>
    <use xlink:href="#Arial-BoldMT-3" transform="translate(1394.734375 0)"/>
    <use xlink:href="#Arial-BoldMT-b" transform="translate(1422.515625 0)"/>
    <use xlink:href="#Arial-BoldMT-50" transform="translate(1455.8125 0)"/>
    <use xlink:href="#Arial-BoldMT-48" transform="translate(1544.734375 0)"/>
    <use xlink:href="#Arial-BoldMT-47" transform="translate(1600.34375 0)"/>
    <use xlink:href="#Arial-BoldMT-4c" transform="translate(1661.421875 0)"/>
    <use xlink:href="#Arial-BoldMT-44" transform="translate(1689.203125 0)"/>
    <use xlink:href="#Arial-BoldMT-51" transform="translate(1744.8125 0)"/>
    <use xlink:href="#Arial-BoldMT-44" transform="translate(1805.890625 0)"/>
    <use xlink:href="#Arial-BoldMT-3" transform="translate(1861.5 0)"/>
    <use xlink:href="#Arial-BoldMT-48" transform="translate(1889.28125 0)"/>
    <use xlink:href="#Arial-BoldMT-3" transform="translate(1944.890625 0)"/>
    <use xlink:href="#Arial-BoldMT-48" transform="translate(1972.671875 0)"/>
    <use xlink:href="#Arial-BoldMT-51" transform="translate(2028.28125 0)"/>
    <use xlink:href="#Arial-BoldMT-59" transform="translate(2089.359375 0)"/>
    <use xlink:href="#Arial-BoldMT-48" transform="translate(2144.96875 0)"/>
    <use xlink:href="#Arial-BoldMT-4f" transform="translate(2200.578125 0)"/>
    <use xlink:href="#Arial-BoldMT-52" transform="translate(2228.359375 0)"/>
    <use xlink:href="#Arial-BoldMT-53" transform="translate(2289.4375 0)"/>
    <use xlink:href="#Arial-BoldMT-48" transform="translate(2350.515625 0)"/>
    <use xlink:href="#Arial-BoldMT-3" transform="translate(2406.125 0)"/>
    <use xlink:href="#Arial-BoldMT-47" transform="translate(2433.90625 0)"/>
    <use xlink:href="#Arial-BoldMT-44" transform="translate(2494.984375 0)"/>
    <use xlink:href="#Arial-BoldMT-56" transform="translate(2550.59375 0)"/>
    <use xlink:href="#Arial-BoldMT-3" transform="translate(2606.203125 0)"/>
    <use xlink:href="#Arial-BoldMT-55" transform="translate(2633.984375 0)"/>
    <use xlink:href="#Arial-BoldMT-58" transform="translate(2672.90625 0)"/>
    <use xlink:href="#Arial-BoldMT-51" transform="translate(2733.984375 0)"/>
    <use xlink:href="#Arial-BoldMT-56" transform="translate(2795.0625 0)"/>
    <use xlink:href="#Arial-BoldMT-c" transform="translate(2850.671875 0)"/>
   </g>
  </g>
 </g>
 <defs>
  <clipPath id="pa032e68878">
   <rect x="59.321719" y="54.486797" width="368.358281" height="203.271777"/>
  </clipPath>
  <clipPath id="p85ac79ccb7">
   <rect x="482.681719" y="54.486797" width="368.358281" height="203.271777"/>
  </clipPath>
  <clipPath id="pfa42961737">
   <rect x="59.321719" y="322.611562" width="791.718281" height="203.271777"/>
  </clipPath>
 </defs>
</svg>
