<?xml version="1.0" encoding="utf-8" standalone="no"?>
<!DOCTYPE svg PUBLIC "-//W3C//DTD SVG 1.1//EN"
  "http://www.w3.org/Graphics/SVG/1.1/DTD/svg11.dtd">
<svg xmlns:xlink="http://www.w3.org/1999/xlink" width="396pt" height="432pt" viewBox="0 0 396 432" xmlns="http://www.w3.org/2000/svg" version="1.1">
 <metadata>
  <rdf:RDF xmlns:dc="http://purl.org/dc/elements/1.1/" xmlns:cc="http://creativecommons.org/ns#" xmlns:rdf="http://www.w3.org/1999/02/22-rdf-syntax-ns#">
   <cc:Work>
    <dc:type rdf:resource="http://purl.org/dc/dcmitype/StillImage"/>
    <dc:date>2026-07-06T19:20:48.629668</dc:date>
    <dc:format>image/svg+xml</dc:format>
    <dc:creator>
     <cc:Agent>
      <dc:title>Matplotlib v3.11.0, https://matplotlib.org/</dc:title>
     </cc:Agent>
    </dc:creator>
   </cc:Work>
  </rdf:RDF>
 </metadata>
 <defs>
  <style type="text/css">*{stroke-linejoin: round; stroke-linecap: butt}</style>
 </defs>
 <g id="figure_1">
  <g id="patch_1">
   <path d="M 0 432 
L 396 432 
L 396 0 
L 0 0 
z
" style="fill: #ffffff"/>
  </g>
  <g id="axes_1">
   <g id="patch_2">
    <path d="M 52.121719 399.216758 
L 383.04 399.216758 
L 383.04 27.696328 
L 52.121719 27.696328 
z
" style="fill: #ffffff"/>
   </g>
   <g id="matplotlib.axis_1">
    <g id="xtick_1">
     <g id="text_1">
      <!-- RCGA -->
      <g style="fill: #262626" transform="translate(201.690156 416.725059) scale(0.11 -0.11)">
       <defs>
        <path id="ArialMT-35" d="M 503 0 
L 503 4581 
L 2534 4581 
Q 3147 4581 3465 4457 
Q 3784 4334 3975 4021 
Q 4166 3709 4166 3331 
Q 4166 2844 3850 2509 
Q 3534 2175 2875 2084 
Q 3116 1969 3241 1856 
Q 3506 1613 3744 1247 
L 4541 0 
L 3778 0 
L 3172 953 
Q 2906 1366 2734 1584 
Q 2563 1803 2427 1890 
Q 2291 1978 2150 2013 
Q 2047 2034 1813 2034 
L 1109 2034 
L 1109 0 
L 503 0 
z
M 1109 2559 
L 2413 2559 
Q 2828 2559 3062 2645 
Q 3297 2731 3419 2920 
Q 3541 3109 3541 3331 
Q 3541 3656 3305 3865 
Q 3069 4075 2559 4075 
L 1109 4075 
L 1109 2559 
z
" transform="scale(0.015625)"/>
        <path id="ArialMT-26" d="M 3763 1606 
L 4369 1453 
Q 4178 706 3683 314 
Q 3188 -78 2472 -78 
Q 1731 -78 1267 223 
Q 803 525 561 1097 
Q 319 1669 319 2325 
Q 319 3041 592 3573 
Q 866 4106 1370 4382 
Q 1875 4659 2481 4659 
Q 3169 4659 3637 4309 
Q 4106 3959 4291 3325 
L 3694 3184 
Q 3534 3684 3231 3912 
Q 2928 4141 2469 4141 
Q 1941 4141 1586 3887 
Q 1231 3634 1087 3207 
Q 944 2781 944 2328 
Q 944 1744 1114 1308 
Q 1284 872 1643 656 
Q 2003 441 2422 441 
Q 2931 441 3284 734 
Q 3638 1028 3763 1606 
z
" transform="scale(0.015625)"/>
        <path id="ArialMT-2a" d="M 2638 1797 
L 2638 2334 
L 4578 2338 
L 4578 638 
Q 4131 281 3656 101 
Q 3181 -78 2681 -78 
Q 2006 -78 1454 211 
Q 903 500 622 1047 
Q 341 1594 341 2269 
Q 341 2938 620 3517 
Q 900 4097 1425 4378 
Q 1950 4659 2634 4659 
Q 3131 4659 3532 4498 
Q 3934 4338 4162 4050 
Q 4391 3763 4509 3300 
L 3963 3150 
Q 3859 3500 3706 3700 
Q 3553 3900 3268 4020 
Q 2984 4141 2638 4141 
Q 2222 4141 1919 4014 
Q 1616 3888 1430 3681 
Q 1244 3475 1141 3228 
Q 966 2803 966 2306 
Q 966 1694 1177 1281 
Q 1388 869 1791 669 
Q 2194 469 2647 469 
Q 3041 469 3416 620 
Q 3791 772 3984 944 
L 3984 1797 
L 2638 1797 
z
" transform="scale(0.015625)"/>
        <path id="ArialMT-24" d="M -9 0 
L 1750 4581 
L 2403 4581 
L 4278 0 
L 3588 0 
L 3053 1388 
L 1138 1388 
L 634 0 
L -9 0 
z
M 1313 1881 
L 2866 1881 
L 2388 3150 
Q 2169 3728 2063 4100 
Q 1975 3659 1816 3225 
L 1313 1881 
z
" transform="scale(0.015625)"/>
       </defs>
       <use xlink:href="#ArialMT-35"/>
       <use xlink:href="#ArialMT-26" transform="translate(72.21875 0)"/>
       <use xlink:href="#ArialMT-2a" transform="translate(144.4375 0)"/>
       <use xlink:href="#ArialMT-24" transform="translate(222.21875 0)"/>
      </g>
     </g>
    </g>
   </g>
   <g id="matplotlib.axis_2">
    <g id="ytick_1">
     <g id="line2d_1">
      <path d="M 52.121719 388.41606 
L 383.04 388.41606 
" clip-path="url(#p51f5096e23)" style="fill: none; stroke: #cccccc; stroke-linecap: round"/>
     </g>
     <g id="text_2">
      <!-- 0.0 -->
      <g style="fill: #262626" transform="translate(27.331719 392.420211) scale(0.11 -0.11)">
       <defs>
        <path id="ArialMT-13" d="M 266 2259 
Q 266 3072 433 3567 
Q 600 4063 929 4331 
Q 1259 4600 1759 4600 
Q 2128 4600 2406 4451 
Q 2684 4303 2865 4023 
Q 3047 3744 3150 3342 
Q 3253 2941 3253 2259 
Q 3253 1453 3087 958 
Q 2922 463 2592 192 
Q 2263 -78 1759 -78 
Q 1097 -78 719 397 
Q 266 969 266 2259 
z
M 844 2259 
Q 844 1131 1108 757 
Q 1372 384 1759 384 
Q 2147 384 2411 759 
Q 2675 1134 2675 2259 
Q 2675 3391 2411 3762 
Q 2147 4134 1753 4134 
Q 1366 4134 1134 3806 
Q 844 3388 844 2259 
z
" transform="scale(0.015625)"/>
        <path id="ArialMT-11" d="M 581 0 
L 581 641 
L 1222 641 
L 1222 0 
L 581 0 
z
" transform="scale(0.015625)"/>
       </defs>
       <use xlink:href="#ArialMT-13"/>
       <use xlink:href="#ArialMT-11" transform="translate(55.609375 0)"/>
       <use xlink:href="#ArialMT-13" transform="translate(83.390625 0)"/>
      </g>
     </g>
    </g>
    <g id="ytick_2">
     <g id="line2d_2">
      <path d="M 52.121719 320.786236 
L 383.04 320.786236 
" clip-path="url(#p51f5096e23)" style="fill: none; stroke: #cccccc; stroke-linecap: round"/>
     </g>
     <g id="text_3">
      <!-- 0.2 -->
      <g style="fill: #262626" transform="translate(27.331719 324.790386) scale(0.11 -0.11)">
       <defs>
        <path id="ArialMT-15" d="M 3222 541 
L 3222 0 
L 194 0 
Q 188 203 259 391 
Q 375 700 629 1000 
Q 884 1300 1366 1694 
Q 2113 2306 2375 2664 
Q 2638 3022 2638 3341 
Q 2638 3675 2398 3904 
Q 2159 4134 1775 4134 
Q 1369 4134 1125 3890 
Q 881 3647 878 3216 
L 300 3275 
Q 359 3922 746 4261 
Q 1134 4600 1788 4600 
Q 2447 4600 2831 4234 
Q 3216 3869 3216 3328 
Q 3216 3053 3103 2787 
Q 2991 2522 2730 2228 
Q 2469 1934 1863 1422 
Q 1356 997 1212 845 
Q 1069 694 975 541 
L 3222 541 
z
" transform="scale(0.015625)"/>
       </defs>
       <use xlink:href="#ArialMT-13"/>
       <use xlink:href="#ArialMT-11" transform="translate(55.609375 0)"/>
       <use xlink:href="#ArialMT-15" transform="translate(83.390625 0)"/>
      </g>
     </g>
    </g>
    <g id="ytick_3">
     <g id="line2d_3">
      <path d="M 52.121719 253.156411 
L 383.04 253.156411 
" clip-path="url(#p51f5096e23)" style="fill: none; stroke: #cccccc; stroke-linecap: round"/>
     </g>
     <g id="text_4">
      <!-- 0.4 -->
      <g style="fill: #262626" transform="translate(27.331719 257.160561) scale(0.11 -0.11)">
       <defs>
        <path id="ArialMT-17" d="M 2069 0 
L 2069 1097 
L 81 1097 
L 81 1613 
L 2172 4581 
L 2631 4581 
L 2631 1613 
L 3250 1613 
L 3250 1097 
L 2631 1097 
L 2631 0 
L 2069 0 
z
M 2069 1613 
L 2069 3678 
L 634 1613 
L 2069 1613 
z
" transform="scale(0.015625)"/>
       </defs>
       <use xlink:href="#ArialMT-13"/>
       <use xlink:href="#ArialMT-11" transform="translate(55.609375 0)"/>
       <use xlink:href="#ArialMT-17" transform="translate(83.390625 0)"/>
      </g>
     </g>
    </g>
    <g id="ytick_4">
     <g id="line2d_4">
      <path d="M 52.121719 185.526586 
L 383.04 185.526586 
" clip-path="url(#p51f5096e23)" style="fill: none; stroke: #cccccc; stroke-linecap: round"/>
     </g>
     <g id="text_5">
      <!-- 0.6 -->
      <g style="fill: #262626" transform="translate(27.331719 189.530737) scale(0.11 -0.11)">
       <defs>
        <path id="ArialMT-19" d="M 3184 3459 
L 2625 3416 
Q 2550 3747 2413 3897 
Q 2184 4138 1850 4138 
Q 1581 4138 1378 3988 
Q 1113 3794 959 3422 
Q 806 3050 800 2363 
Q 1003 2672 1297 2822 
Q 1591 2972 1913 2972 
Q 2475 2972 2870 2558 
Q 3266 2144 3266 1488 
Q 3266 1056 3080 686 
Q 2894 316 2569 119 
Q 2244 -78 1831 -78 
Q 1128 -78 684 439 
Q 241 956 241 2144 
Q 241 3472 731 4075 
Q 1159 4600 1884 4600 
Q 2425 4600 2770 4297 
Q 3116 3994 3184 3459 
z
M 888 1484 
Q 888 1194 1011 928 
Q 1134 663 1356 523 
Q 1578 384 1822 384 
Q 2178 384 2434 671 
Q 2691 959 2691 1453 
Q 2691 1928 2437 2201 
Q 2184 2475 1800 2475 
Q 1419 2475 1153 2201 
Q 888 1928 888 1484 
z
" transform="scale(0.015625)"/>
       </defs>
       <use xlink:href="#ArialMT-13"/>
       <use xlink:href="#ArialMT-11" transform="translate(55.609375 0)"/>
       <use xlink:href="#ArialMT-19" transform="translate(83.390625 0)"/>
      </g>
     </g>
    </g>
    <g id="ytick_5">
     <g id="line2d_5">
      <path d="M 52.121719 117.896761 
L 383.04 117.896761 
" clip-path="url(#p51f5096e23)" style="fill: none; stroke: #cccccc; stroke-linecap: round"/>
     </g>
     <g id="text_6">
      <!-- 0.8 -->
      <g style="fill: #262626" transform="translate(27.331719 121.900912) scale(0.11 -0.11)">
       <defs>
        <path id="ArialMT-1b" d="M 1131 2484 
Q 781 2613 612 2850 
Q 444 3088 444 3419 
Q 444 3919 803 4259 
Q 1163 4600 1759 4600 
Q 2359 4600 2725 4251 
Q 3091 3903 3091 3403 
Q 3091 3084 2923 2848 
Q 2756 2613 2416 2484 
Q 2838 2347 3058 2040 
Q 3278 1734 3278 1309 
Q 3278 722 2862 322 
Q 2447 -78 1769 -78 
Q 1091 -78 675 323 
Q 259 725 259 1325 
Q 259 1772 486 2073 
Q 713 2375 1131 2484 
z
M 1019 3438 
Q 1019 3113 1228 2906 
Q 1438 2700 1772 2700 
Q 2097 2700 2305 2904 
Q 2513 3109 2513 3406 
Q 2513 3716 2298 3927 
Q 2084 4138 1766 4138 
Q 1444 4138 1231 3931 
Q 1019 3725 1019 3438 
z
M 838 1322 
Q 838 1081 952 856 
Q 1066 631 1291 507 
Q 1516 384 1775 384 
Q 2178 384 2440 643 
Q 2703 903 2703 1303 
Q 2703 1709 2433 1975 
Q 2163 2241 1756 2241 
Q 1359 2241 1098 1978 
Q 838 1716 838 1322 
z
" transform="scale(0.015625)"/>
       </defs>
       <use xlink:href="#ArialMT-13"/>
       <use xlink:href="#ArialMT-11" transform="translate(55.609375 0)"/>
       <use xlink:href="#ArialMT-1b" transform="translate(83.390625 0)"/>
      </g>
     </g>
    </g>
    <g id="ytick_6">
     <g id="line2d_6">
      <path d="M 52.121719 50.266937 
L 383.04 50.266937 
" clip-path="url(#p51f5096e23)" style="fill: none; stroke: #cccccc; stroke-linecap: round"/>
     </g>
     <g id="text_7">
      <!-- 1.0 -->
      <g style="fill: #262626" transform="translate(27.331719 54.271087) scale(0.11 -0.11)">
       <defs>
        <path id="ArialMT-14" d="M 2384 0 
L 1822 0 
L 1822 3584 
Q 1619 3391 1289 3197 
Q 959 3003 697 2906 
L 697 3450 
Q 1169 3672 1522 3987 
Q 1875 4303 2022 4600 
L 2384 4600 
L 2384 0 
z
" transform="scale(0.015625)"/>
       </defs>
       <use xlink:href="#ArialMT-14"/>
       <use xlink:href="#ArialMT-11" transform="translate(55.609375 0)"/>
       <use xlink:href="#ArialMT-13" transform="translate(83.390625 0)"/>
      </g>
     </g>
    </g>
    <g id="text_8">
     <!-- Erro da funcao objetivo -->
     <g style="fill: #262626" transform="translate(20.806094 275.157168) rotate(-90) scale(0.12 -0.12)">
      <defs>
       <path id="ArialMT-28" d="M 506 0 
L 506 4581 
L 3819 4581 
L 3819 4041 
L 1113 4041 
L 1113 2638 
L 3647 2638 
L 3647 2100 
L 1113 2100 
L 1113 541 
L 3925 541 
L 3925 0 
L 506 0 
z
" transform="scale(0.015625)"/>
       <path id="ArialMT-55" d="M 416 0 
L 416 3319 
L 922 3319 
L 922 2816 
Q 1116 3169 1280 3281 
Q 1444 3394 1641 3394 
Q 1925 3394 2219 3213 
L 2025 2691 
Q 1819 2813 1613 2813 
Q 1428 2813 1281 2702 
Q 1134 2591 1072 2394 
Q 978 2094 978 1738 
L 978 0 
L 416 0 
z
" transform="scale(0.015625)"/>
       <path id="ArialMT-52" d="M 213 1659 
Q 213 2581 725 3025 
Q 1153 3394 1769 3394 
Q 2453 3394 2887 2945 
Q 3322 2497 3322 1706 
Q 3322 1066 3130 698 
Q 2938 331 2570 128 
Q 2203 -75 1769 -75 
Q 1072 -75 642 372 
Q 213 819 213 1659 
z
M 791 1659 
Q 791 1022 1069 705 
Q 1347 388 1769 388 
Q 2188 388 2466 706 
Q 2744 1025 2744 1678 
Q 2744 2294 2464 2611 
Q 2184 2928 1769 2928 
Q 1347 2928 1069 2612 
Q 791 2297 791 1659 
z
" transform="scale(0.015625)"/>
       <path id="ArialMT-3" transform="scale(0.015625)"/>
       <path id="ArialMT-47" d="M 2575 0 
L 2575 419 
Q 2259 -75 1647 -75 
Q 1250 -75 917 144 
Q 584 363 401 755 
Q 219 1147 219 1656 
Q 219 2153 384 2558 
Q 550 2963 881 3178 
Q 1213 3394 1622 3394 
Q 1922 3394 2156 3267 
Q 2391 3141 2538 2938 
L 2538 4581 
L 3097 4581 
L 3097 0 
L 2575 0 
z
M 797 1656 
Q 797 1019 1065 703 
Q 1334 388 1700 388 
Q 2069 388 2326 689 
Q 2584 991 2584 1609 
Q 2584 2291 2321 2609 
Q 2059 2928 1675 2928 
Q 1300 2928 1048 2622 
Q 797 2316 797 1656 
z
" transform="scale(0.015625)"/>
       <path id="ArialMT-44" d="M 2588 409 
Q 2275 144 1986 34 
Q 1697 -75 1366 -75 
Q 819 -75 525 192 
Q 231 459 231 875 
Q 231 1119 342 1320 
Q 453 1522 633 1644 
Q 813 1766 1038 1828 
Q 1203 1872 1538 1913 
Q 2219 1994 2541 2106 
Q 2544 2222 2544 2253 
Q 2544 2597 2384 2738 
Q 2169 2928 1744 2928 
Q 1347 2928 1158 2789 
Q 969 2650 878 2297 
L 328 2372 
Q 403 2725 575 2942 
Q 747 3159 1072 3276 
Q 1397 3394 1825 3394 
Q 2250 3394 2515 3294 
Q 2781 3194 2906 3042 
Q 3031 2891 3081 2659 
Q 3109 2516 3109 2141 
L 3109 1391 
Q 3109 606 3145 398 
Q 3181 191 3288 0 
L 2700 0 
Q 2613 175 2588 409 
z
M 2541 1666 
Q 2234 1541 1622 1453 
Q 1275 1403 1131 1340 
Q 988 1278 909 1158 
Q 831 1038 831 891 
Q 831 666 1001 516 
Q 1172 366 1500 366 
Q 1825 366 2078 508 
Q 2331 650 2450 897 
Q 2541 1088 2541 1459 
L 2541 1666 
z
" transform="scale(0.015625)"/>
       <path id="ArialMT-49" d="M 556 0 
L 556 2881 
L 59 2881 
L 59 3319 
L 556 3319 
L 556 3672 
Q 556 4006 616 4169 
Q 697 4388 901 4523 
Q 1106 4659 1475 4659 
Q 1713 4659 2000 4603 
L 1916 4113 
Q 1741 4144 1584 4144 
Q 1328 4144 1222 4034 
Q 1116 3925 1116 3625 
L 1116 3319 
L 1763 3319 
L 1763 2881 
L 1116 2881 
L 1116 0 
L 556 0 
z
" transform="scale(0.015625)"/>
       <path id="ArialMT-58" d="M 2597 0 
L 2597 488 
Q 2209 -75 1544 -75 
Q 1250 -75 995 37 
Q 741 150 617 320 
Q 494 491 444 738 
Q 409 903 409 1263 
L 409 3319 
L 972 3319 
L 972 1478 
Q 972 1038 1006 884 
Q 1059 663 1231 536 
Q 1403 409 1656 409 
Q 1909 409 2131 539 
Q 2353 669 2445 892 
Q 2538 1116 2538 1541 
L 2538 3319 
L 3100 3319 
L 3100 0 
L 2597 0 
z
" transform="scale(0.015625)"/>
       <path id="ArialMT-51" d="M 422 0 
L 422 3319 
L 928 3319 
L 928 2847 
Q 1294 3394 1984 3394 
Q 2284 3394 2536 3286 
Q 2788 3178 2913 3003 
Q 3038 2828 3088 2588 
Q 3119 2431 3119 2041 
L 3119 0 
L 2556 0 
L 2556 2019 
Q 2556 2363 2490 2533 
Q 2425 2703 2258 2804 
Q 2091 2906 1866 2906 
Q 1506 2906 1245 2678 
Q 984 2450 984 1813 
L 984 0 
L 422 0 
z
" transform="scale(0.015625)"/>
       <path id="ArialMT-46" d="M 2588 1216 
L 3141 1144 
Q 3050 572 2676 248 
Q 2303 -75 1759 -75 
Q 1078 -75 664 370 
Q 250 816 250 1647 
Q 250 2184 428 2587 
Q 606 2991 970 3192 
Q 1334 3394 1763 3394 
Q 2303 3394 2647 3120 
Q 2991 2847 3088 2344 
L 2541 2259 
Q 2463 2594 2264 2762 
Q 2066 2931 1784 2931 
Q 1359 2931 1093 2626 
Q 828 2322 828 1663 
Q 828 994 1084 691 
Q 1341 388 1753 388 
Q 2084 388 2306 591 
Q 2528 794 2588 1216 
z
" transform="scale(0.015625)"/>
       <path id="ArialMT-45" d="M 941 0 
L 419 0 
L 419 4581 
L 981 4581 
L 981 2947 
Q 1338 3394 1891 3394 
Q 2197 3394 2470 3270 
Q 2744 3147 2920 2923 
Q 3097 2700 3197 2384 
Q 3297 2069 3297 1709 
Q 3297 856 2875 390 
Q 2453 -75 1863 -75 
Q 1275 -75 941 416 
L 941 0 
z
M 934 1684 
Q 934 1088 1097 822 
Q 1363 388 1816 388 
Q 2184 388 2453 708 
Q 2722 1028 2722 1663 
Q 2722 2313 2464 2622 
Q 2206 2931 1841 2931 
Q 1472 2931 1203 2611 
Q 934 2291 934 1684 
z
" transform="scale(0.015625)"/>
       <path id="ArialMT-4d" d="M 419 3928 
L 419 4581 
L 981 4581 
L 981 3928 
L 419 3928 
z
M -294 -1288 
L -188 -809 
Q -19 -853 78 -853 
Q 250 -853 334 -739 
Q 419 -625 419 -169 
L 419 3319 
L 981 3319 
L 981 -181 
Q 981 -794 822 -1034 
Q 619 -1347 147 -1347 
Q -81 -1347 -294 -1288 
z
" transform="scale(0.015625)"/>
       <path id="ArialMT-48" d="M 2694 1069 
L 3275 997 
Q 3138 488 2766 206 
Q 2394 -75 1816 -75 
Q 1088 -75 661 373 
Q 234 822 234 1631 
Q 234 2469 665 2931 
Q 1097 3394 1784 3394 
Q 2450 3394 2872 2941 
Q 3294 2488 3294 1666 
Q 3294 1616 3291 1516 
L 816 1516 
Q 847 969 1125 678 
Q 1403 388 1819 388 
Q 2128 388 2347 550 
Q 2566 713 2694 1069 
z
M 847 1978 
L 2700 1978 
Q 2663 2397 2488 2606 
Q 2219 2931 1791 2931 
Q 1403 2931 1139 2672 
Q 875 2413 847 1978 
z
" transform="scale(0.015625)"/>
       <path id="ArialMT-57" d="M 1650 503 
L 1731 6 
Q 1494 -44 1306 -44 
Q 1000 -44 831 53 
Q 663 150 594 308 
Q 525 466 525 972 
L 525 2881 
L 113 2881 
L 113 3319 
L 525 3319 
L 525 4141 
L 1084 4478 
L 1084 3319 
L 1650 3319 
L 1650 2881 
L 1084 2881 
L 1084 941 
Q 1084 700 1114 631 
Q 1144 563 1211 522 
Q 1278 481 1403 481 
Q 1497 481 1650 503 
z
" transform="scale(0.015625)"/>
       <path id="ArialMT-4c" d="M 425 3934 
L 425 4581 
L 988 4581 
L 988 3934 
L 425 3934 
z
M 425 0 
L 425 3319 
L 988 3319 
L 988 0 
L 425 0 
z
" transform="scale(0.015625)"/>
       <path id="ArialMT-59" d="M 1344 0 
L 81 3319 
L 675 3319 
L 1388 1331 
Q 1503 1009 1600 663 
Q 1675 925 1809 1294 
L 2547 3319 
L 3125 3319 
L 1869 0 
L 1344 0 
z
" transform="scale(0.015625)"/>
      </defs>
      <use xlink:href="#ArialMT-28"/>
      <use xlink:href="#ArialMT-55" transform="translate(66.703125 0)"/>
      <use xlink:href="#ArialMT-55" transform="translate(100 0)"/>
      <use xlink:href="#ArialMT-52" transform="translate(133.296875 0)"/>
      <use xlink:href="#ArialMT-3" transform="translate(188.90625 0)"/>
      <use xlink:href="#ArialMT-47" transform="translate(216.6875 0)"/>
      <use xlink:href="#ArialMT-44" transform="translate(272.296875 0)"/>
      <use xlink:href="#ArialMT-3" transform="translate(327.90625 0)"/>
      <use xlink:href="#ArialMT-49" transform="translate(355.6875 0)"/>
      <use xlink:href="#ArialMT-58" transform="translate(383.46875 0)"/>
      <use xlink:href="#ArialMT-51" transform="translate(439.078125 0)"/>
      <use xlink:href="#ArialMT-46" transform="translate(494.6875 0)"/>
      <use xlink:href="#ArialMT-44" transform="translate(544.6875 0)"/>
      <use xlink:href="#ArialMT-52" transform="translate(600.296875 0)"/>
      <use xlink:href="#ArialMT-3" transform="translate(655.90625 0)"/>
      <use xlink:href="#ArialMT-52" transform="translate(683.6875 0)"/>
      <use xlink:href="#ArialMT-45" transform="translate(739.296875 0)"/>
      <use xlink:href="#ArialMT-4d" transform="translate(794.90625 0)"/>
      <use xlink:href="#ArialMT-48" transform="translate(817.125 0)"/>
      <use xlink:href="#ArialMT-57" transform="translate(872.734375 0)"/>
      <use xlink:href="#ArialMT-4c" transform="translate(900.515625 0)"/>
      <use xlink:href="#ArialMT-59" transform="translate(922.734375 0)"/>
      <use xlink:href="#ArialMT-52" transform="translate(972.734375 0)"/>
     </g>
    </g>
    <g id="text_9">
     <!-- 1e−5 -->
     <g style="fill: #262626" transform="translate(52.121719 24.696328) scale(0.11 -0.11)">
      <defs>
       <path id="ArialMT-ed" d="M 3381 1997 
L 356 1997 
L 356 2522 
L 3381 2522 
L 3381 1997 
z
" transform="scale(0.015625)"/>
       <path id="ArialMT-18" d="M 266 1200 
L 856 1250 
Q 922 819 1161 601 
Q 1400 384 1738 384 
Q 2144 384 2425 690 
Q 2706 997 2706 1503 
Q 2706 1984 2436 2262 
Q 2166 2541 1728 2541 
Q 1456 2541 1237 2417 
Q 1019 2294 894 2097 
L 366 2166 
L 809 4519 
L 3088 4519 
L 3088 3981 
L 1259 3981 
L 1013 2750 
Q 1425 3038 1878 3038 
Q 2478 3038 2890 2622 
Q 3303 2206 3303 1553 
Q 3303 931 2941 478 
Q 2500 -78 1738 -78 
Q 1113 -78 717 272 
Q 322 622 266 1200 
z
" transform="scale(0.015625)"/>
      </defs>
      <use xlink:href="#ArialMT-14"/>
      <use xlink:href="#ArialMT-48" transform="translate(55.609375 0)"/>
      <use xlink:href="#ArialMT-ed" transform="translate(111.21875 0)"/>
      <use xlink:href="#ArialMT-18" transform="translate(169.625 0)"/>
     </g>
    </g>
   </g>
   <g id="FillBetweenPolyCollection_1">
    <defs>
     <path id="mc057813430" d="M 329.846446 -49.670534 
L 105.315273 -49.670534 
L 101.073186 -53.082109 
L 97.258346 -56.493683 
L 93.914104 -59.905257 
L 91.076958 -63.316831 
L 88.775763 -66.728405 
L 87.031146 -70.13998 
L 85.855141 -73.551554 
L 85.251053 -76.963128 
L 85.213547 -80.374702 
L 85.728973 -83.786276 
L 86.775888 -87.197851 
L 88.32577 -90.609425 
L 90.343886 -94.020999 
L 92.790286 -97.432573 
L 95.620887 -100.844147 
L 98.788602 -104.255722 
L 102.244492 -107.667296 
L 105.938883 -111.07887 
L 109.822436 -114.490444 
L 113.847129 -117.902018 
L 117.967122 -121.313593 
L 122.139508 -124.725167 
L 126.3249 -128.136741 
L 130.487891 -131.548315 
L 134.597345 -134.959889 
L 138.626549 -138.371463 
L 142.553231 -141.783038 
L 146.359444 -145.194612 
L 150.031354 -148.606186 
L 153.558932 -152.01776 
L 156.935584 -155.429334 
L 160.157737 -158.840909 
L 163.224397 -162.252483 
L 166.136706 -165.664057 
L 168.897516 -169.075631 
L 171.510983 -172.487205 
L 173.982214 -175.89878 
L 176.31695 -179.310354 
L 178.521315 -182.721928 
L 180.601613 -186.133502 
L 182.564181 -189.545076 
L 184.415291 -192.956651 
L 186.161096 -196.368225 
L 187.807602 -199.779799 
L 189.360678 -203.191373 
L 190.826068 -206.602947 
L 192.209414 -210.014522 
L 193.516279 -213.426096 
L 194.752156 -216.83767 
L 195.922467 -220.249244 
L 197.032542 -223.660818 
L 198.087584 -227.072393 
L 199.092614 -230.483967 
L 200.052404 -233.895541 
L 200.971401 -237.307115 
L 201.853643 -240.718689 
L 202.702682 -244.130263 
L 203.521503 -247.541838 
L 204.312469 -250.953412 
L 205.077266 -254.364986 
L 205.81688 -257.77656 
L 206.53159 -261.188134 
L 207.220986 -264.599709 
L 207.884008 -268.011283 
L 208.519005 -271.422857 
L 209.123821 -274.834431 
L 209.695885 -278.246005 
L 210.232325 -281.65758 
L 210.730083 -285.069154 
L 211.18604 -288.480728 
L 211.597136 -291.892302 
L 211.960493 -295.303876 
L 212.273532 -298.715451 
L 212.534079 -302.127025 
L 212.740463 -305.538599 
L 212.891604 -308.950173 
L 212.987083 -312.361747 
L 213.027204 -315.773322 
L 213.013034 -319.184896 
L 212.946434 -322.59647 
L 212.830068 -326.008044 
L 212.667397 -329.419618 
L 212.462658 -332.831193 
L 212.220817 -336.242767 
L 211.947513 -339.654341 
L 211.648975 -343.065915 
L 211.331929 -346.477489 
L 211.003484 -349.889063 
L 210.671001 -353.300638 
L 210.341957 -356.712212 
L 210.023793 -360.123786 
L 209.723759 -363.53536 
L 209.448757 -366.946934 
L 209.20519 -370.358509 
L 208.998816 -373.770083 
L 208.834619 -377.181657 
L 208.716695 -380.593231 
L 208.648162 -384.004805 
L 208.631098 -387.41638 
L 226.530621 -387.41638 
L 226.530621 -387.41638 
L 226.513556 -384.004805 
L 226.445024 -380.593231 
L 226.3271 -377.181657 
L 226.162903 -373.770083 
L 225.956529 -370.358509 
L 225.712962 -366.946934 
L 225.43796 -363.53536 
L 225.137925 -360.123786 
L 224.819761 -356.712212 
L 224.490718 -353.300638 
L 224.158235 -349.889063 
L 223.82979 -346.477489 
L 223.512744 -343.065915 
L 223.214206 -339.654341 
L 222.940902 -336.242767 
L 222.699061 -332.831193 
L 222.494322 -329.419618 
L 222.331651 -326.008044 
L 222.215285 -322.59647 
L 222.148684 -319.184896 
L 222.134514 -315.773322 
L 222.174635 -312.361747 
L 222.270115 -308.950173 
L 222.421256 -305.538599 
L 222.62764 -302.127025 
L 222.888187 -298.715451 
L 223.201226 -295.303876 
L 223.564583 -291.892302 
L 223.975678 -288.480728 
L 224.431635 -285.069154 
L 224.929394 -281.65758 
L 225.465834 -278.246005 
L 226.037898 -274.834431 
L 226.642714 -271.422857 
L 227.277711 -268.011283 
L 227.940732 -264.599709 
L 228.630129 -261.188134 
L 229.344839 -257.77656 
L 230.084453 -254.364986 
L 230.84925 -250.953412 
L 231.640215 -247.541838 
L 232.459037 -244.130263 
L 233.308076 -240.718689 
L 234.190318 -237.307115 
L 235.109315 -233.895541 
L 236.069105 -230.483967 
L 237.074135 -227.072393 
L 238.129177 -223.660818 
L 239.239252 -220.249244 
L 240.409563 -216.83767 
L 241.64544 -213.426096 
L 242.952305 -210.014522 
L 244.335651 -206.602947 
L 245.801041 -203.191373 
L 247.354117 -199.779799 
L 249.000623 -196.368225 
L 250.746427 -192.956651 
L 252.597538 -189.545076 
L 254.560106 -186.133502 
L 256.640404 -182.721928 
L 258.844769 -179.310354 
L 261.179505 -175.89878 
L 263.650736 -172.487205 
L 266.264203 -169.075631 
L 269.025013 -165.664057 
L 271.937322 -162.252483 
L 275.003982 -158.840909 
L 278.226135 -155.429334 
L 281.602787 -152.01776 
L 285.130365 -148.606186 
L 288.802275 -145.194612 
L 292.608488 -141.783038 
L 296.53517 -138.371463 
L 300.564374 -134.959889 
L 304.673828 -131.548315 
L 308.836819 -128.136741 
L 313.022211 -124.725167 
L 317.194596 -121.313593 
L 321.31459 -117.902018 
L 325.339282 -114.490444 
L 329.222836 -111.07887 
L 332.917226 -107.667296 
L 336.373116 -104.255722 
L 339.540832 -100.844147 
L 342.371432 -97.432573 
L 344.817833 -94.020999 
L 346.835948 -90.609425 
L 348.385831 -87.197851 
L 349.432746 -83.786276 
L 349.948172 -80.374702 
L 349.910666 -76.963128 
L 349.306577 -73.551554 
L 348.130573 -70.13998 
L 346.385956 -66.728405 
L 344.084761 -63.316831 
L 341.247614 -59.905257 
L 337.903373 -56.493683 
L 334.088533 -53.082109 
L 329.846446 -49.670534 
z
" style="stroke: #707070; stroke-width: 1.4"/>
    </defs>
    <g clip-path="url(#p51f5096e23)">
     <use xlink:href="#mc057813430" x="0" y="432" style="fill: #99c6db; stroke: #707070; stroke-width: 1.4"/>
    </g>
   </g>
   <g id="line2d_7">
    <path d="M 90.299916 367.531186 
L 344.861803 367.531186 
" clip-path="url(#p51f5096e23)" style="fill: none; stroke-dasharray: 1.75,1.05; stroke-dashoffset: 0; stroke: #707070; stroke-width: 1.4"/>
   </g>
   <g id="line2d_8">
    <path d="M 86.133409 346.895791 
L 349.02831 346.895791 
" clip-path="url(#p51f5096e23)" style="fill: none; stroke-dasharray: 3.5,1.4; stroke-dashoffset: 0; stroke: #707070; stroke-width: 1.4"/>
   </g>
   <g id="line2d_9">
    <path d="M 111.546648 316.048009 
L 323.61507 316.048009 
" clip-path="url(#p51f5096e23)" style="fill: none; stroke-dasharray: 1.75,1.05; stroke-dashoffset: 0; stroke: #707070; stroke-width: 1.4"/>
   </g>
   <g id="patch_3">
    <path d="M 52.121719 399.216758 
L 52.121719 27.696328 
" style="fill: none; stroke: #cccccc; stroke-width: 1.25; stroke-linejoin: miter; stroke-linecap: square"/>
   </g>
   <g id="patch_4">
    <path d="M 383.04 399.216758 
L 383.04 27.696328 
" style="fill: none; stroke: #cccccc; stroke-width: 1.25; stroke-linejoin: miter; stroke-linecap: square"/>
   </g>
   <g id="patch_5">
    <path d="M 52.121719 399.216758 
L 383.04 399.216758 
" style="fill: none; stroke: #cccccc; stroke-width: 1.25; stroke-linejoin: miter; stroke-linecap: square"/>
   </g>
   <g id="patch_6">
    <path d="M 52.121719 27.696328 
L 383.04 27.696328 
" style="fill: none; stroke: #cccccc; stroke-width: 1.25; stroke-linejoin: miter; stroke-linecap: square"/>
   </g>
   <g id="PathCollection_1">
    <defs>
     <path id="m1d78c0d486" d="M 0 2 
C 0.530406 2 1.03916 1.789267 1.414214 1.414214 
C 1.789267 1.03916 2 0.530406 2 0 
C 2 -0.530406 1.789267 -1.03916 1.414214 -1.414214 
C 1.03916 -1.789267 0.530406 -2 0 -2 
C -0.530406 -2 -1.03916 -1.789267 -1.414214 -1.414214 
C -1.789267 -1.03916 -2 -0.530406 -2 0 
C -2 0.530406 -1.789267 1.03916 -1.414214 1.414214 
C -1.03916 1.789267 -0.530406 2 0 2 
z
"/>
    </defs>
    <g clip-path="url(#p51f5096e23)">
     <use xlink:href="#m1d78c0d486" x="214.342264" y="365.363292" style="fill: #1f2937; fill-opacity: 0.75"/>
     <use xlink:href="#m1d78c0d486" x="191.897233" y="375.882868" style="fill: #1f2937; fill-opacity: 0.75"/>
     <use xlink:href="#m1d78c0d486" x="210.371685" y="44.58362" style="fill: #1f2937; fill-opacity: 0.75"/>
     <use xlink:href="#m1d78c0d486" x="201.000617" y="337.835785" style="fill: #1f2937; fill-opacity: 0.75"/>
     <use xlink:href="#m1d78c0d486" x="217.431741" y="316.048009" style="fill: #1f2937; fill-opacity: 0.75"/>
     <use xlink:href="#m1d78c0d486" x="198.29163" y="367.531186" style="fill: #1f2937; fill-opacity: 0.75"/>
     <use xlink:href="#m1d78c0d486" x="230.641345" y="286.777924" style="fill: #1f2937; fill-opacity: 0.75"/>
     <use xlink:href="#m1d78c0d486" x="233.487644" y="375.159403" style="fill: #1f2937; fill-opacity: 0.75"/>
     <use xlink:href="#m1d78c0d486" x="207.723772" y="318.703606" style="fill: #1f2937; fill-opacity: 0.75"/>
     <use xlink:href="#m1d78c0d486" x="215.16336" y="371.616186" style="fill: #1f2937; fill-opacity: 0.75"/>
     <use xlink:href="#m1d78c0d486" x="217.953256" y="365.108614" style="fill: #1f2937; fill-opacity: 0.75"/>
     <use xlink:href="#m1d78c0d486" x="229.626061" y="375.849806" style="fill: #1f2937; fill-opacity: 0.75"/>
     <use xlink:href="#m1d78c0d486" x="219.199759" y="330.085565" style="fill: #1f2937; fill-opacity: 0.75"/>
     <use xlink:href="#m1d78c0d486" x="204.946228" y="252.366643" style="fill: #1f2937; fill-opacity: 0.75"/>
     <use xlink:href="#m1d78c0d486" x="227.200712" y="356.647032" style="fill: #1f2937; fill-opacity: 0.75"/>
     <use xlink:href="#m1d78c0d486" x="204.678684" y="359.362923" style="fill: #1f2937; fill-opacity: 0.75"/>
     <use xlink:href="#m1d78c0d486" x="213.57763" y="346.895791" style="fill: #1f2937; fill-opacity: 0.75"/>
     <use xlink:href="#m1d78c0d486" x="200.368535" y="382.329466" style="fill: #1f2937; fill-opacity: 0.75"/>
     <use xlink:href="#m1d78c0d486" x="224.99811" y="336.12012" style="fill: #1f2937; fill-opacity: 0.75"/>
     <use xlink:href="#m1d78c0d486" x="235.621428" y="189.660562" style="fill: #1f2937; fill-opacity: 0.75"/>
     <use xlink:href="#m1d78c0d486" x="224.061055" y="263.917021" style="fill: #1f2937; fill-opacity: 0.75"/>
    </g>
   </g>
   <g id="text_10">
    <!-- Erro final - RCGA -->
    <g style="fill: #262626" transform="translate(170.906484 21.696328) scale(0.12 -0.12)">
     <defs>
      <path id="ArialMT-4f" d="M 409 0 
L 409 4581 
L 972 4581 
L 972 0 
L 409 0 
z
" transform="scale(0.015625)"/>
      <path id="ArialMT-10" d="M 203 1375 
L 203 1941 
L 1931 1941 
L 1931 1375 
L 203 1375 
z
" transform="scale(0.015625)"/>
     </defs>
     <use xlink:href="#ArialMT-28"/>
     <use xlink:href="#ArialMT-55" transform="translate(66.703125 0)"/>
     <use xlink:href="#ArialMT-55" transform="translate(100 0)"/>
     <use xlink:href="#ArialMT-52" transform="translate(133.296875 0)"/>
     <use xlink:href="#ArialMT-3" transform="translate(188.90625 0)"/>
     <use xlink:href="#ArialMT-49" transform="translate(216.6875 0)"/>
     <use xlink:href="#ArialMT-4c" transform="translate(244.46875 0)"/>
     <use xlink:href="#ArialMT-51" transform="translate(266.6875 0)"/>
     <use xlink:href="#ArialMT-44" transform="translate(322.296875 0)"/>
     <use xlink:href="#ArialMT-4f" transform="translate(377.90625 0)"/>
     <use xlink:href="#ArialMT-3" transform="translate(400.125 0)"/>
     <use xlink:href="#ArialMT-10" transform="translate(427.90625 0)"/>
     <use xlink:href="#ArialMT-3" transform="translate(461.203125 0)"/>
     <use xlink:href="#ArialMT-35" transform="translate(488.984375 0)"/>
     <use xlink:href="#ArialMT-26" transform="translate(561.203125 0)"/>
     <use xlink:href="#ArialMT-2a" transform="translate(633.421875 0)"/>
     <use xlink:href="#ArialMT-24" transform="translate(711.203125 0)"/>
    </g>
   </g>
  </g>
 </g>
 <defs>
  <clipPath id="p51f5096e23">
   <rect x="52.121719" y="27.696328" width="330.918281" height="371.52043"/>
  </clipPath>
 </defs>
</svg>
