<?xml version="1.0" encoding="utf-8" standalone="no"?>
<!DOCTYPE svg PUBLIC "-//W3C//DTD SVG 1.1//EN"
  "http://www.w3.org/Graphics/SVG/1.1/DTD/svg11.dtd">
<svg xmlns:xlink="http://www.w3.org/1999/xlink" width="396pt" height="432pt" viewBox="0 0 396 432" xmlns="http://www.w3.org/2000/svg" version="1.1">
 <metadata>
  <rdf:RDF xmlns:dc="http://purl.org/dc/elements/1.1/" xmlns:cc="http://creativecommons.org/ns#" xmlns:rdf="http://www.w3.org/1999/02/22-rdf-syntax-ns#">
   <cc:Work>
    <dc:type rdf:resource="http://purl.org/dc/dcmitype/StillImage"/>
    <dc:date>2026-07-06T19:20:48.839989</dc:date>
    <dc:format>image/svg+xml</dc:format>
    <dc:creator>
     <cc:Agent>
      <dc:title>Matplotlib v3.11.0, https://matplotlib.org/</dc:title>
     </cc:Agent>
    </dc:creator>
   </cc:Work>
  </rdf:RDF>
 </metadata>
 <defs>
  <style type="text/css">*{stroke-linejoin: round; stroke-linecap: butt}</style>
 </defs>
 <g id="figure_1">
  <g id="patch_1">
   <path d="M 0 432 
L 396 432 
L 396 0 
L 0 0 
z
" style="fill: #ffffff"/>
  </g>
  <g id="axes_1">
   <g id="patch_2">
    <path d="M 43.481719 399.216758 
L 383.04 399.216758 
L 383.04 27.696328 
L 43.481719 27.696328 
z
" style="fill: #ffffff"/>
   </g>
   <g id="matplotlib.axis_1">
    <g id="xtick_1">
     <g id="text_1">
      <!-- PSO -->
      <g style="fill: #262626" transform="translate(201.645547 416.731289) scale(0.11 -0.11)">
       <defs>
        <path id="ArialMT-33" d="M 494 0 
L 494 4581 
L 2222 4581 
Q 2678 4581 2919 4538 
Q 3256 4481 3484 4323 
Q 3713 4166 3852 3881 
Q 3991 3597 3991 3256 
Q 3991 2672 3619 2267 
Q 3247 1863 2275 1863 
L 1100 1863 
L 1100 0 
L 494 0 
z
M 1100 2403 
L 2284 2403 
Q 2872 2403 3119 2622 
Q 3366 2841 3366 3238 
Q 3366 3525 3220 3729 
Q 3075 3934 2838 4000 
Q 2684 4041 2272 4041 
L 1100 4041 
L 1100 2403 
z
" transform="scale(0.015625)"/>
        <path id="ArialMT-36" d="M 288 1472 
L 859 1522 
Q 900 1178 1048 958 
Q 1197 738 1509 602 
Q 1822 466 2213 466 
Q 2559 466 2825 569 
Q 3091 672 3220 851 
Q 3350 1031 3350 1244 
Q 3350 1459 3225 1620 
Q 3100 1781 2813 1891 
Q 2628 1963 1997 2114 
Q 1366 2266 1113 2400 
Q 784 2572 623 2826 
Q 463 3081 463 3397 
Q 463 3744 659 4045 
Q 856 4347 1234 4503 
Q 1613 4659 2075 4659 
Q 2584 4659 2973 4495 
Q 3363 4331 3572 4012 
Q 3781 3694 3797 3291 
L 3216 3247 
Q 3169 3681 2898 3903 
Q 2628 4125 2100 4125 
Q 1550 4125 1298 3923 
Q 1047 3722 1047 3438 
Q 1047 3191 1225 3031 
Q 1400 2872 2139 2705 
Q 2878 2538 3153 2413 
Q 3553 2228 3743 1945 
Q 3934 1663 3934 1294 
Q 3934 928 3725 604 
Q 3516 281 3123 101 
Q 2731 -78 2241 -78 
Q 1619 -78 1198 103 
Q 778 284 539 648 
Q 300 1013 288 1472 
z
" transform="scale(0.015625)"/>
        <path id="ArialMT-32" d="M 309 2231 
Q 309 3372 921 4017 
Q 1534 4663 2503 4663 
Q 3138 4663 3647 4359 
Q 4156 4056 4423 3514 
Q 4691 2972 4691 2284 
Q 4691 1588 4409 1038 
Q 4128 488 3612 205 
Q 3097 -78 2500 -78 
Q 1853 -78 1343 234 
Q 834 547 571 1087 
Q 309 1628 309 2231 
z
M 934 2222 
Q 934 1394 1379 917 
Q 1825 441 2497 441 
Q 3181 441 3623 922 
Q 4066 1403 4066 2288 
Q 4066 2847 3877 3264 
Q 3688 3681 3323 3911 
Q 2959 4141 2506 4141 
Q 1863 4141 1398 3698 
Q 934 3256 934 2222 
z
" transform="scale(0.015625)"/>
       </defs>
       <use xlink:href="#ArialMT-33"/>
       <use xlink:href="#ArialMT-36" transform="translate(66.703125 0)"/>
       <use xlink:href="#ArialMT-32" transform="translate(133.40625 0)"/>
      </g>
     </g>
    </g>
   </g>
   <g id="matplotlib.axis_2">
    <g id="ytick_1">
     <g id="line2d_1">
      <path d="M 43.481719 382.085011 
L 383.04 382.085011 
" clip-path="url(#p2476158ba9)" style="fill: none; stroke: #cccccc; stroke-linecap: round"/>
     </g>
     <g id="text_2">
      <!-- 1 -->
      <g style="fill: #262626" transform="translate(27.864687 386.089161) scale(0.11 -0.11)">
       <defs>
        <path id="ArialMT-14" d="M 2384 0 
L 1822 0 
L 1822 3584 
Q 1619 3391 1289 3197 
Q 959 3003 697 2906 
L 697 3450 
Q 1169 3672 1522 3987 
Q 1875 4303 2022 4600 
L 2384 4600 
L 2384 0 
z
" transform="scale(0.015625)"/>
       </defs>
       <use xlink:href="#ArialMT-14"/>
      </g>
     </g>
    </g>
    <g id="ytick_2">
     <g id="line2d_2">
      <path d="M 43.481719 333.591114 
L 383.04 333.591114 
" clip-path="url(#p2476158ba9)" style="fill: none; stroke: #cccccc; stroke-linecap: round"/>
     </g>
     <g id="text_3">
      <!-- 2 -->
      <g style="fill: #262626" transform="translate(27.864687 337.595265) scale(0.11 -0.11)">
       <defs>
        <path id="ArialMT-15" d="M 3222 541 
L 3222 0 
L 194 0 
Q 188 203 259 391 
Q 375 700 629 1000 
Q 884 1300 1366 1694 
Q 2113 2306 2375 2664 
Q 2638 3022 2638 3341 
Q 2638 3675 2398 3904 
Q 2159 4134 1775 4134 
Q 1369 4134 1125 3890 
Q 881 3647 878 3216 
L 300 3275 
Q 359 3922 746 4261 
Q 1134 4600 1788 4600 
Q 2447 4600 2831 4234 
Q 3216 3869 3216 3328 
Q 3216 3053 3103 2787 
Q 2991 2522 2730 2228 
Q 2469 1934 1863 1422 
Q 1356 997 1212 845 
Q 1069 694 975 541 
L 3222 541 
z
" transform="scale(0.015625)"/>
       </defs>
       <use xlink:href="#ArialMT-15"/>
      </g>
     </g>
    </g>
    <g id="ytick_3">
     <g id="line2d_3">
      <path d="M 43.481719 285.097218 
L 383.04 285.097218 
" clip-path="url(#p2476158ba9)" style="fill: none; stroke: #cccccc; stroke-linecap: round"/>
     </g>
     <g id="text_4">
      <!-- 3 -->
      <g style="fill: #262626" transform="translate(27.864687 289.101368) scale(0.11 -0.11)">
       <defs>
        <path id="ArialMT-16" d="M 269 1209 
L 831 1284 
Q 928 806 1161 595 
Q 1394 384 1728 384 
Q 2125 384 2398 659 
Q 2672 934 2672 1341 
Q 2672 1728 2419 1979 
Q 2166 2231 1775 2231 
Q 1616 2231 1378 2169 
L 1441 2663 
Q 1497 2656 1531 2656 
Q 1891 2656 2178 2843 
Q 2466 3031 2466 3422 
Q 2466 3731 2256 3934 
Q 2047 4138 1716 4138 
Q 1388 4138 1169 3931 
Q 950 3725 888 3313 
L 325 3413 
Q 428 3978 793 4289 
Q 1159 4600 1703 4600 
Q 2078 4600 2393 4439 
Q 2709 4278 2876 4000 
Q 3044 3722 3044 3409 
Q 3044 3113 2884 2869 
Q 2725 2625 2413 2481 
Q 2819 2388 3044 2092 
Q 3269 1797 3269 1353 
Q 3269 753 2831 336 
Q 2394 -81 1725 -81 
Q 1122 -81 723 278 
Q 325 638 269 1209 
z
" transform="scale(0.015625)"/>
       </defs>
       <use xlink:href="#ArialMT-16"/>
      </g>
     </g>
    </g>
    <g id="ytick_4">
     <g id="line2d_4">
      <path d="M 43.481719 236.603322 
L 383.04 236.603322 
" clip-path="url(#p2476158ba9)" style="fill: none; stroke: #cccccc; stroke-linecap: round"/>
     </g>
     <g id="text_5">
      <!-- 4 -->
      <g style="fill: #262626" transform="translate(27.864687 240.607472) scale(0.11 -0.11)">
       <defs>
        <path id="ArialMT-17" d="M 2069 0 
L 2069 1097 
L 81 1097 
L 81 1613 
L 2172 4581 
L 2631 4581 
L 2631 1613 
L 3250 1613 
L 3250 1097 
L 2631 1097 
L 2631 0 
L 2069 0 
z
M 2069 1613 
L 2069 3678 
L 634 1613 
L 2069 1613 
z
" transform="scale(0.015625)"/>
       </defs>
       <use xlink:href="#ArialMT-17"/>
      </g>
     </g>
    </g>
    <g id="ytick_5">
     <g id="line2d_5">
      <path d="M 43.481719 188.109425 
L 383.04 188.109425 
" clip-path="url(#p2476158ba9)" style="fill: none; stroke: #cccccc; stroke-linecap: round"/>
     </g>
     <g id="text_6">
      <!-- 5 -->
      <g style="fill: #262626" transform="translate(27.864687 192.113576) scale(0.11 -0.11)">
       <defs>
        <path id="ArialMT-18" d="M 266 1200 
L 856 1250 
Q 922 819 1161 601 
Q 1400 384 1738 384 
Q 2144 384 2425 690 
Q 2706 997 2706 1503 
Q 2706 1984 2436 2262 
Q 2166 2541 1728 2541 
Q 1456 2541 1237 2417 
Q 1019 2294 894 2097 
L 366 2166 
L 809 4519 
L 3088 4519 
L 3088 3981 
L 1259 3981 
L 1013 2750 
Q 1425 3038 1878 3038 
Q 2478 3038 2890 2622 
Q 3303 2206 3303 1553 
Q 3303 931 2941 478 
Q 2500 -78 1738 -78 
Q 1113 -78 717 272 
Q 322 622 266 1200 
z
" transform="scale(0.015625)"/>
       </defs>
       <use xlink:href="#ArialMT-18"/>
      </g>
     </g>
    </g>
    <g id="ytick_6">
     <g id="line2d_6">
      <path d="M 43.481719 139.615529 
L 383.04 139.615529 
" clip-path="url(#p2476158ba9)" style="fill: none; stroke: #cccccc; stroke-linecap: round"/>
     </g>
     <g id="text_7">
      <!-- 6 -->
      <g style="fill: #262626" transform="translate(27.864687 143.619679) scale(0.11 -0.11)">
       <defs>
        <path id="ArialMT-19" d="M 3184 3459 
L 2625 3416 
Q 2550 3747 2413 3897 
Q 2184 4138 1850 4138 
Q 1581 4138 1378 3988 
Q 1113 3794 959 3422 
Q 806 3050 800 2363 
Q 1003 2672 1297 2822 
Q 1591 2972 1913 2972 
Q 2475 2972 2870 2558 
Q 3266 2144 3266 1488 
Q 3266 1056 3080 686 
Q 2894 316 2569 119 
Q 2244 -78 1831 -78 
Q 1128 -78 684 439 
Q 241 956 241 2144 
Q 241 3472 731 4075 
Q 1159 4600 1884 4600 
Q 2425 4600 2770 4297 
Q 3116 3994 3184 3459 
z
M 888 1484 
Q 888 1194 1011 928 
Q 1134 663 1356 523 
Q 1578 384 1822 384 
Q 2178 384 2434 671 
Q 2691 959 2691 1453 
Q 2691 1928 2437 2201 
Q 2184 2475 1800 2475 
Q 1419 2475 1153 2201 
Q 888 1928 888 1484 
z
" transform="scale(0.015625)"/>
       </defs>
       <use xlink:href="#ArialMT-19"/>
      </g>
     </g>
    </g>
    <g id="ytick_7">
     <g id="line2d_7">
      <path d="M 43.481719 91.121633 
L 383.04 91.121633 
" clip-path="url(#p2476158ba9)" style="fill: none; stroke: #cccccc; stroke-linecap: round"/>
     </g>
     <g id="text_8">
      <!-- 7 -->
      <g style="fill: #262626" transform="translate(27.864687 95.125783) scale(0.11 -0.11)">
       <defs>
        <path id="ArialMT-1a" d="M 303 3981 
L 303 4522 
L 3269 4522 
L 3269 4084 
Q 2831 3619 2401 2847 
Q 1972 2075 1738 1259 
Q 1569 684 1522 0 
L 944 0 
Q 953 541 1156 1306 
Q 1359 2072 1739 2783 
Q 2119 3494 2547 3981 
L 303 3981 
z
" transform="scale(0.015625)"/>
       </defs>
       <use xlink:href="#ArialMT-1a"/>
      </g>
     </g>
    </g>
    <g id="ytick_8">
     <g id="line2d_8">
      <path d="M 43.481719 42.627736 
L 383.04 42.627736 
" clip-path="url(#p2476158ba9)" style="fill: none; stroke: #cccccc; stroke-linecap: round"/>
     </g>
     <g id="text_9">
      <!-- 8 -->
      <g style="fill: #262626" transform="translate(27.864687 46.631887) scale(0.11 -0.11)">
       <defs>
        <path id="ArialMT-1b" d="M 1131 2484 
Q 781 2613 612 2850 
Q 444 3088 444 3419 
Q 444 3919 803 4259 
Q 1163 4600 1759 4600 
Q 2359 4600 2725 4251 
Q 3091 3903 3091 3403 
Q 3091 3084 2923 2848 
Q 2756 2613 2416 2484 
Q 2838 2347 3058 2040 
Q 3278 1734 3278 1309 
Q 3278 722 2862 322 
Q 2447 -78 1769 -78 
Q 1091 -78 675 323 
Q 259 725 259 1325 
Q 259 1772 486 2073 
Q 713 2375 1131 2484 
z
M 1019 3438 
Q 1019 3113 1228 2906 
Q 1438 2700 1772 2700 
Q 2097 2700 2305 2904 
Q 2513 3109 2513 3406 
Q 2513 3716 2298 3927 
Q 2084 4138 1766 4138 
Q 1444 4138 1231 3931 
Q 1019 3725 1019 3438 
z
M 838 1322 
Q 838 1081 952 856 
Q 1066 631 1291 507 
Q 1516 384 1775 384 
Q 2178 384 2440 643 
Q 2703 903 2703 1303 
Q 2703 1709 2433 1975 
Q 2163 2241 1756 2241 
Q 1359 2241 1098 1978 
Q 838 1716 838 1322 
z
" transform="scale(0.015625)"/>
       </defs>
       <use xlink:href="#ArialMT-1b"/>
      </g>
     </g>
    </g>
    <g id="text_10">
     <!-- Erro da funcao objetivo -->
     <g style="fill: #262626" transform="translate(21.339062 275.157168) rotate(-90) scale(0.12 -0.12)">
      <defs>
       <path id="ArialMT-28" d="M 506 0 
L 506 4581 
L 3819 4581 
L 3819 4041 
L 1113 4041 
L 1113 2638 
L 3647 2638 
L 3647 2100 
L 1113 2100 
L 1113 541 
L 3925 541 
L 3925 0 
L 506 0 
z
" transform="scale(0.015625)"/>
       <path id="ArialMT-55" d="M 416 0 
L 416 3319 
L 922 3319 
L 922 2816 
Q 1116 3169 1280 3281 
Q 1444 3394 1641 3394 
Q 1925 3394 2219 3213 
L 2025 2691 
Q 1819 2813 1613 2813 
Q 1428 2813 1281 2702 
Q 1134 2591 1072 2394 
Q 978 2094 978 1738 
L 978 0 
L 416 0 
z
" transform="scale(0.015625)"/>
       <path id="ArialMT-52" d="M 213 1659 
Q 213 2581 725 3025 
Q 1153 3394 1769 3394 
Q 2453 3394 2887 2945 
Q 3322 2497 3322 1706 
Q 3322 1066 3130 698 
Q 2938 331 2570 128 
Q 2203 -75 1769 -75 
Q 1072 -75 642 372 
Q 213 819 213 1659 
z
M 791 1659 
Q 791 1022 1069 705 
Q 1347 388 1769 388 
Q 2188 388 2466 706 
Q 2744 1025 2744 1678 
Q 2744 2294 2464 2611 
Q 2184 2928 1769 2928 
Q 1347 2928 1069 2612 
Q 791 2297 791 1659 
z
" transform="scale(0.015625)"/>
       <path id="ArialMT-3" transform="scale(0.015625)"/>
       <path id="ArialMT-47" d="M 2575 0 
L 2575 419 
Q 2259 -75 1647 -75 
Q 1250 -75 917 144 
Q 584 363 401 755 
Q 219 1147 219 1656 
Q 219 2153 384 2558 
Q 550 2963 881 3178 
Q 1213 3394 1622 3394 
Q 1922 3394 2156 3267 
Q 2391 3141 2538 2938 
L 2538 4581 
L 3097 4581 
L 3097 0 
L 2575 0 
z
M 797 1656 
Q 797 1019 1065 703 
Q 1334 388 1700 388 
Q 2069 388 2326 689 
Q 2584 991 2584 1609 
Q 2584 2291 2321 2609 
Q 2059 2928 1675 2928 
Q 1300 2928 1048 2622 
Q 797 2316 797 1656 
z
" transform="scale(0.015625)"/>
       <path id="ArialMT-44" d="M 2588 409 
Q 2275 144 1986 34 
Q 1697 -75 1366 -75 
Q 819 -75 525 192 
Q 231 459 231 875 
Q 231 1119 342 1320 
Q 453 1522 633 1644 
Q 813 1766 1038 1828 
Q 1203 1872 1538 1913 
Q 2219 1994 2541 2106 
Q 2544 2222 2544 2253 
Q 2544 2597 2384 2738 
Q 2169 2928 1744 2928 
Q 1347 2928 1158 2789 
Q 969 2650 878 2297 
L 328 2372 
Q 403 2725 575 2942 
Q 747 3159 1072 3276 
Q 1397 3394 1825 3394 
Q 2250 3394 2515 3294 
Q 2781 3194 2906 3042 
Q 3031 2891 3081 2659 
Q 3109 2516 3109 2141 
L 3109 1391 
Q 3109 606 3145 398 
Q 3181 191 3288 0 
L 2700 0 
Q 2613 175 2588 409 
z
M 2541 1666 
Q 2234 1541 1622 1453 
Q 1275 1403 1131 1340 
Q 988 1278 909 1158 
Q 831 1038 831 891 
Q 831 666 1001 516 
Q 1172 366 1500 366 
Q 1825 366 2078 508 
Q 2331 650 2450 897 
Q 2541 1088 2541 1459 
L 2541 1666 
z
" transform="scale(0.015625)"/>
       <path id="ArialMT-49" d="M 556 0 
L 556 2881 
L 59 2881 
L 59 3319 
L 556 3319 
L 556 3672 
Q 556 4006 616 4169 
Q 697 4388 901 4523 
Q 1106 4659 1475 4659 
Q 1713 4659 2000 4603 
L 1916 4113 
Q 1741 4144 1584 4144 
Q 1328 4144 1222 4034 
Q 1116 3925 1116 3625 
L 1116 3319 
L 1763 3319 
L 1763 2881 
L 1116 2881 
L 1116 0 
L 556 0 
z
" transform="scale(0.015625)"/>
       <path id="ArialMT-58" d="M 2597 0 
L 2597 488 
Q 2209 -75 1544 -75 
Q 1250 -75 995 37 
Q 741 150 617 320 
Q 494 491 444 738 
Q 409 903 409 1263 
L 409 3319 
L 972 3319 
L 972 1478 
Q 972 1038 1006 884 
Q 1059 663 1231 536 
Q 1403 409 1656 409 
Q 1909 409 2131 539 
Q 2353 669 2445 892 
Q 2538 1116 2538 1541 
L 2538 3319 
L 3100 3319 
L 3100 0 
L 2597 0 
z
" transform="scale(0.015625)"/>
       <path id="ArialMT-51" d="M 422 0 
L 422 3319 
L 928 3319 
L 928 2847 
Q 1294 3394 1984 3394 
Q 2284 3394 2536 3286 
Q 2788 3178 2913 3003 
Q 3038 2828 3088 2588 
Q 3119 2431 3119 2041 
L 3119 0 
L 2556 0 
L 2556 2019 
Q 2556 2363 2490 2533 
Q 2425 2703 2258 2804 
Q 2091 2906 1866 2906 
Q 1506 2906 1245 2678 
Q 984 2450 984 1813 
L 984 0 
L 422 0 
z
" transform="scale(0.015625)"/>
       <path id="ArialMT-46" d="M 2588 1216 
L 3141 1144 
Q 3050 572 2676 248 
Q 2303 -75 1759 -75 
Q 1078 -75 664 370 
Q 250 816 250 1647 
Q 250 2184 428 2587 
Q 606 2991 970 3192 
Q 1334 3394 1763 3394 
Q 2303 3394 2647 3120 
Q 2991 2847 3088 2344 
L 2541 2259 
Q 2463 2594 2264 2762 
Q 2066 2931 1784 2931 
Q 1359 2931 1093 2626 
Q 828 2322 828 1663 
Q 828 994 1084 691 
Q 1341 388 1753 388 
Q 2084 388 2306 591 
Q 2528 794 2588 1216 
z
" transform="scale(0.015625)"/>
       <path id="ArialMT-45" d="M 941 0 
L 419 0 
L 419 4581 
L 981 4581 
L 981 2947 
Q 1338 3394 1891 3394 
Q 2197 3394 2470 3270 
Q 2744 3147 2920 2923 
Q 3097 2700 3197 2384 
Q 3297 2069 3297 1709 
Q 3297 856 2875 390 
Q 2453 -75 1863 -75 
Q 1275 -75 941 416 
L 941 0 
z
M 934 1684 
Q 934 1088 1097 822 
Q 1363 388 1816 388 
Q 2184 388 2453 708 
Q 2722 1028 2722 1663 
Q 2722 2313 2464 2622 
Q 2206 2931 1841 2931 
Q 1472 2931 1203 2611 
Q 934 2291 934 1684 
z
" transform="scale(0.015625)"/>
       <path id="ArialMT-4d" d="M 419 3928 
L 419 4581 
L 981 4581 
L 981 3928 
L 419 3928 
z
M -294 -1288 
L -188 -809 
Q -19 -853 78 -853 
Q 250 -853 334 -739 
Q 419 -625 419 -169 
L 419 3319 
L 981 3319 
L 981 -181 
Q 981 -794 822 -1034 
Q 619 -1347 147 -1347 
Q -81 -1347 -294 -1288 
z
" transform="scale(0.015625)"/>
       <path id="ArialMT-48" d="M 2694 1069 
L 3275 997 
Q 3138 488 2766 206 
Q 2394 -75 1816 -75 
Q 1088 -75 661 373 
Q 234 822 234 1631 
Q 234 2469 665 2931 
Q 1097 3394 1784 3394 
Q 2450 3394 2872 2941 
Q 3294 2488 3294 1666 
Q 3294 1616 3291 1516 
L 816 1516 
Q 847 969 1125 678 
Q 1403 388 1819 388 
Q 2128 388 2347 550 
Q 2566 713 2694 1069 
z
M 847 1978 
L 2700 1978 
Q 2663 2397 2488 2606 
Q 2219 2931 1791 2931 
Q 1403 2931 1139 2672 
Q 875 2413 847 1978 
z
" transform="scale(0.015625)"/>
       <path id="ArialMT-57" d="M 1650 503 
L 1731 6 
Q 1494 -44 1306 -44 
Q 1000 -44 831 53 
Q 663 150 594 308 
Q 525 466 525 972 
L 525 2881 
L 113 2881 
L 113 3319 
L 525 3319 
L 525 4141 
L 1084 4478 
L 1084 3319 
L 1650 3319 
L 1650 2881 
L 1084 2881 
L 1084 941 
Q 1084 700 1114 631 
Q 1144 563 1211 522 
Q 1278 481 1403 481 
Q 1497 481 1650 503 
z
" transform="scale(0.015625)"/>
       <path id="ArialMT-4c" d="M 425 3934 
L 425 4581 
L 988 4581 
L 988 3934 
L 425 3934 
z
M 425 0 
L 425 3319 
L 988 3319 
L 988 0 
L 425 0 
z
" transform="scale(0.015625)"/>
       <path id="ArialMT-59" d="M 1344 0 
L 81 3319 
L 675 3319 
L 1388 1331 
Q 1503 1009 1600 663 
Q 1675 925 1809 1294 
L 2547 3319 
L 3125 3319 
L 1869 0 
L 1344 0 
z
" transform="scale(0.015625)"/>
      </defs>
      <use xlink:href="#ArialMT-28"/>
      <use xlink:href="#ArialMT-55" transform="translate(66.703125 0)"/>
      <use xlink:href="#ArialMT-55" transform="translate(100 0)"/>
      <use xlink:href="#ArialMT-52" transform="translate(133.296875 0)"/>
      <use xlink:href="#ArialMT-3" transform="translate(188.90625 0)"/>
      <use xlink:href="#ArialMT-47" transform="translate(216.6875 0)"/>
      <use xlink:href="#ArialMT-44" transform="translate(272.296875 0)"/>
      <use xlink:href="#ArialMT-3" transform="translate(327.90625 0)"/>
      <use xlink:href="#ArialMT-49" transform="translate(355.6875 0)"/>
      <use xlink:href="#ArialMT-58" transform="translate(383.46875 0)"/>
      <use xlink:href="#ArialMT-51" transform="translate(439.078125 0)"/>
      <use xlink:href="#ArialMT-46" transform="translate(494.6875 0)"/>
      <use xlink:href="#ArialMT-44" transform="translate(544.6875 0)"/>
      <use xlink:href="#ArialMT-52" transform="translate(600.296875 0)"/>
      <use xlink:href="#ArialMT-3" transform="translate(655.90625 0)"/>
      <use xlink:href="#ArialMT-52" transform="translate(683.6875 0)"/>
      <use xlink:href="#ArialMT-45" transform="translate(739.296875 0)"/>
      <use xlink:href="#ArialMT-4d" transform="translate(794.90625 0)"/>
      <use xlink:href="#ArialMT-48" transform="translate(817.125 0)"/>
      <use xlink:href="#ArialMT-57" transform="translate(872.734375 0)"/>
      <use xlink:href="#ArialMT-4c" transform="translate(900.515625 0)"/>
      <use xlink:href="#ArialMT-59" transform="translate(922.734375 0)"/>
      <use xlink:href="#ArialMT-52" transform="translate(972.734375 0)"/>
     </g>
    </g>
   </g>
   <g id="FillBetweenPolyCollection_1">
    <defs>
     <path id="m14956a7e8d" d="M 237.801222 -49.670534 
L 188.720496 -49.670534 
L 186.526032 -53.082109 
L 184.1356 -56.493683 
L 181.5331 -59.905257 
L 178.703506 -63.316831 
L 175.633596 -66.728405 
L 172.312738 -70.13998 
L 168.733703 -73.551554 
L 164.893482 -76.963128 
L 160.794056 -80.374702 
L 156.443103 -83.786276 
L 151.854584 -87.197851 
L 147.049184 -90.609425 
L 142.054567 -94.020999 
L 136.905417 -97.432573 
L 131.643246 -100.844147 
L 126.315945 -104.255722 
L 120.977093 -107.667296 
L 115.685007 -111.07887 
L 110.50158 -114.490444 
L 105.490916 -117.902018 
L 100.717814 -121.313593 
L 96.246153 -124.725167 
L 92.137231 -128.136741 
L 88.448123 -131.548315 
L 85.230123 -134.959889 
L 82.527328 -138.371463 
L 80.375424 -141.783038 
L 78.800721 -145.194612 
L 77.81948 -148.606186 
L 77.437547 -152.01776 
L 77.650319 -155.429334 
L 78.44303 -158.840909 
L 79.791349 -162.252483 
L 81.662246 -165.664057 
L 84.015103 -169.075631 
L 86.80301 -172.487205 
L 89.974193 -175.89878 
L 93.47351 -179.310354 
L 97.243966 -182.721928 
L 101.228183 -186.133502 
L 105.369777 -189.545076 
L 109.6146 -192.956651 
L 113.911803 -196.368225 
L 118.214718 -199.779799 
L 122.481513 -203.191373 
L 126.675646 -206.602947 
L 130.766101 -210.014522 
L 134.727439 -213.426096 
L 138.539663 -216.83767 
L 142.187938 -220.249244 
L 145.662192 -223.660818 
L 148.956621 -227.072393 
L 152.069134 -230.483967 
L 155.00077 -233.895541 
L 157.755104 -237.307115 
L 160.337677 -240.718689 
L 162.755451 -244.130263 
L 165.016335 -247.541838 
L 167.12875 -250.953412 
L 169.101284 -254.364986 
L 170.942403 -257.77656 
L 172.660241 -261.188134 
L 174.262449 -264.599709 
L 175.756114 -268.011283 
L 177.14772 -271.422857 
L 178.443164 -274.834431 
L 179.647793 -278.246005 
L 180.766482 -281.65758 
L 181.803717 -285.069154 
L 182.76369 -288.480728 
L 183.650403 -291.892302 
L 184.467755 -295.303876 
L 185.219633 -298.715451 
L 185.909984 -302.127025 
L 186.542873 -305.538599 
L 187.122532 -308.950173 
L 187.653386 -312.361747 
L 188.140069 -315.773322 
L 188.587421 -319.184896 
L 189.000477 -322.59647 
L 189.384443 -326.008044 
L 189.74466 -329.419618 
L 190.086561 -332.831193 
L 190.415617 -336.242767 
L 190.737289 -339.654341 
L 191.056956 -343.065915 
L 191.379857 -346.477489 
L 191.71102 -349.889063 
L 192.055194 -353.300638 
L 192.416775 -356.712212 
L 192.79974 -360.123786 
L 193.207574 -363.53536 
L 193.643211 -366.946934 
L 194.108974 -370.358509 
L 194.60652 -373.770083 
L 195.136808 -377.181657 
L 195.70006 -380.593231 
L 196.295756 -384.004805 
L 196.922629 -387.41638 
L 229.59909 -387.41638 
L 229.59909 -387.41638 
L 230.225962 -384.004805 
L 230.821659 -380.593231 
L 231.384911 -377.181657 
L 231.915198 -373.770083 
L 232.412745 -370.358509 
L 232.878507 -366.946934 
L 233.314145 -363.53536 
L 233.721979 -360.123786 
L 234.104943 -356.712212 
L 234.466525 -353.300638 
L 234.810699 -349.889063 
L 235.141862 -346.477489 
L 235.464763 -343.065915 
L 235.78443 -339.654341 
L 236.106101 -336.242767 
L 236.435158 -332.831193 
L 236.777058 -329.419618 
L 237.137276 -326.008044 
L 237.521242 -322.59647 
L 237.934298 -319.184896 
L 238.38165 -315.773322 
L 238.868332 -312.361747 
L 239.399187 -308.950173 
L 239.978846 -305.538599 
L 240.611735 -302.127025 
L 241.302086 -298.715451 
L 242.053964 -295.303876 
L 242.871316 -291.892302 
L 243.758029 -288.480728 
L 244.718002 -285.069154 
L 245.755237 -281.65758 
L 246.873926 -278.246005 
L 248.078555 -274.834431 
L 249.373998 -271.422857 
L 250.765605 -268.011283 
L 252.25927 -264.599709 
L 253.861478 -261.188134 
L 255.579315 -257.77656 
L 257.420434 -254.364986 
L 259.392969 -250.953412 
L 261.505384 -247.541838 
L 263.766267 -244.130263 
L 266.184042 -240.718689 
L 268.766614 -237.307115 
L 271.520949 -233.895541 
L 274.452585 -230.483967 
L 277.565098 -227.072393 
L 280.859526 -223.660818 
L 284.333781 -220.249244 
L 287.982056 -216.83767 
L 291.79428 -213.426096 
L 295.755618 -210.014522 
L 299.846073 -206.602947 
L 304.040205 -203.191373 
L 308.307 -199.779799 
L 312.609915 -196.368225 
L 316.907119 -192.956651 
L 321.151941 -189.545076 
L 325.293536 -186.133502 
L 329.277753 -182.721928 
L 333.048208 -179.310354 
L 336.547525 -175.89878 
L 339.718708 -172.487205 
L 342.506616 -169.075631 
L 344.859473 -165.664057 
L 346.73037 -162.252483 
L 348.078688 -158.840909 
L 348.8714 -155.429334 
L 349.084172 -152.01776 
L 348.702239 -148.606186 
L 347.720997 -145.194612 
L 346.146295 -141.783038 
L 343.994391 -138.371463 
L 341.291596 -134.959889 
L 338.073596 -131.548315 
L 334.384488 -128.136741 
L 330.275566 -124.725167 
L 325.803905 -121.313593 
L 321.030803 -117.902018 
L 316.020139 -114.490444 
L 310.836712 -111.07887 
L 305.544626 -107.667296 
L 300.205773 -104.255722 
L 294.878473 -100.844147 
L 289.616301 -97.432573 
L 284.467152 -94.020999 
L 279.472534 -90.609425 
L 274.667134 -87.197851 
L 270.078615 -83.786276 
L 265.727662 -80.374702 
L 261.628237 -76.963128 
L 257.788015 -73.551554 
L 254.208981 -70.13998 
L 250.888123 -66.728405 
L 247.818213 -63.316831 
L 244.988619 -59.905257 
L 242.386119 -56.493683 
L 239.995687 -53.082109 
L 237.801222 -49.670534 
z
" style="stroke: #5e5e5e; stroke-width: 1.4"/>
    </defs>
    <g clip-path="url(#p2476158ba9)">
     <use xlink:href="#m14956a7e8d" x="0" y="432" style="fill: #e6bf53; stroke: #5e5e5e; stroke-width: 1.4"/>
    </g>
   </g>
   <g id="line2d_9">
    <path d="M 78.520347 285.830583 
L 348.001372 285.830583 
" clip-path="url(#p2476158ba9)" style="fill: none; stroke-dasharray: 1.75,1.05; stroke-dashoffset: 0; stroke: #5e5e5e; stroke-width: 1.4"/>
   </g>
   <g id="line2d_10">
    <path d="M 78.520347 285.830583 
L 348.001372 285.830583 
" clip-path="url(#p2476158ba9)" style="fill: none; stroke-dasharray: 3.5,1.4; stroke-dashoffset: 0; stroke: #5e5e5e; stroke-width: 1.4"/>
   </g>
   <g id="line2d_11">
    <path d="M 111.45639 237.581141 
L 315.065329 237.581141 
" clip-path="url(#p2476158ba9)" style="fill: none; stroke-dasharray: 1.75,1.05; stroke-dashoffset: 0; stroke: #5e5e5e; stroke-width: 1.4"/>
   </g>
   <g id="patch_3">
    <path d="M 43.481719 399.216758 
L 43.481719 27.696328 
" style="fill: none; stroke: #cccccc; stroke-width: 1.25; stroke-linejoin: miter; stroke-linecap: square"/>
   </g>
   <g id="patch_4">
    <path d="M 383.04 399.216758 
L 383.04 27.696328 
" style="fill: none; stroke: #cccccc; stroke-width: 1.25; stroke-linejoin: miter; stroke-linecap: square"/>
   </g>
   <g id="patch_5">
    <path d="M 43.481719 399.216758 
L 383.04 399.216758 
" style="fill: none; stroke: #cccccc; stroke-width: 1.25; stroke-linejoin: miter; stroke-linecap: square"/>
   </g>
   <g id="patch_6">
    <path d="M 43.481719 27.696328 
L 383.04 27.696328 
" style="fill: none; stroke: #cccccc; stroke-width: 1.25; stroke-linejoin: miter; stroke-linecap: square"/>
   </g>
   <g id="PathCollection_1">
    <defs>
     <path id="mf02a01163d" d="M 0 2 
C 0.530406 2 1.03916 1.789267 1.414214 1.414214 
C 1.789267 1.03916 2 0.530406 2 0 
C 2 -0.530406 1.789267 -1.03916 1.414214 -1.414214 
C 1.03916 -1.789267 0.530406 -2 0 -2 
C -0.530406 -2 -1.03916 -1.789267 -1.414214 -1.414214 
C -1.789267 -1.03916 -2 -0.530406 -2 0 
C -2 0.530406 -1.789267 1.03916 -1.414214 1.414214 
C -1.03916 1.789267 -0.530406 2 0 2 
z
"/>
    </defs>
    <g clip-path="url(#p2476158ba9)">
     <use xlink:href="#mf02a01163d" x="188.596208" y="285.830583" style="fill: #1f2937; fill-opacity: 0.75"/>
     <use xlink:href="#mf02a01163d" x="223.769122" y="237.581141" style="fill: #1f2937; fill-opacity: 0.75"/>
     <use xlink:href="#mf02a01163d" x="190.700788" y="285.830583" style="fill: #1f2937; fill-opacity: 0.75"/>
     <use xlink:href="#mf02a01163d" x="193.356443" y="285.830583" style="fill: #1f2937; fill-opacity: 0.75"/>
     <use xlink:href="#mf02a01163d" x="200.330438" y="285.830583" style="fill: #1f2937; fill-opacity: 0.75"/>
     <use xlink:href="#mf02a01163d" x="210.580483" y="189.3317" style="fill: #1f2937; fill-opacity: 0.75"/>
     <use xlink:href="#mf02a01163d" x="200.344" y="44.58362" style="fill: #1f2937; fill-opacity: 0.75"/>
     <use xlink:href="#mf02a01163d" x="206.680127" y="285.830583" style="fill: #1f2937; fill-opacity: 0.75"/>
     <use xlink:href="#mf02a01163d" x="195.004129" y="141.082259" style="fill: #1f2937; fill-opacity: 0.75"/>
     <use xlink:href="#mf02a01163d" x="216.444229" y="237.581141" style="fill: #1f2937; fill-opacity: 0.75"/>
     <use xlink:href="#mf02a01163d" x="197.345578" y="334.080024" style="fill: #1f2937; fill-opacity: 0.75"/>
     <use xlink:href="#mf02a01163d" x="227.906064" y="189.3317" style="fill: #1f2937; fill-opacity: 0.75"/>
     <use xlink:href="#mf02a01163d" x="231.952207" y="285.830583" style="fill: #1f2937; fill-opacity: 0.75"/>
     <use xlink:href="#mf02a01163d" x="193.030949" y="285.830583" style="fill: #1f2937; fill-opacity: 0.75"/>
     <use xlink:href="#mf02a01163d" x="220.685402" y="285.830583" style="fill: #1f2937; fill-opacity: 0.75"/>
     <use xlink:href="#mf02a01163d" x="191.977877" y="285.830583" style="fill: #1f2937; fill-opacity: 0.75"/>
     <use xlink:href="#mf02a01163d" x="218.44796" y="237.581141" style="fill: #1f2937; fill-opacity: 0.75"/>
     <use xlink:href="#mf02a01163d" x="193.313725" y="285.830583" style="fill: #1f2937; fill-opacity: 0.75"/>
     <use xlink:href="#mf02a01163d" x="234.556853" y="92.832817" style="fill: #1f2937; fill-opacity: 0.75"/>
     <use xlink:href="#mf02a01163d" x="205.598055" y="285.830583" style="fill: #1f2937; fill-opacity: 0.75"/>
     <use xlink:href="#mf02a01163d" x="229.86995" y="382.329466" style="fill: #1f2937; fill-opacity: 0.75"/>
    </g>
   </g>
   <g id="text_11">
    <!-- Erro final - PSO -->
    <g style="fill: #262626" transform="translate(171.250547 21.696328) scale(0.12 -0.12)">
     <defs>
      <path id="ArialMT-4f" d="M 409 0 
L 409 4581 
L 972 4581 
L 972 0 
L 409 0 
z
" transform="scale(0.015625)"/>
      <path id="ArialMT-10" d="M 203 1375 
L 203 1941 
L 1931 1941 
L 1931 1375 
L 203 1375 
z
" transform="scale(0.015625)"/>
     </defs>
     <use xlink:href="#ArialMT-28"/>
     <use xlink:href="#ArialMT-55" transform="translate(66.703125 0)"/>
     <use xlink:href="#ArialMT-55" transform="translate(100 0)"/>
     <use xlink:href="#ArialMT-52" transform="translate(133.296875 0)"/>
     <use xlink:href="#ArialMT-3" transform="translate(188.90625 0)"/>
     <use xlink:href="#ArialMT-49" transform="translate(216.6875 0)"/>
     <use xlink:href="#ArialMT-4c" transform="translate(244.46875 0)"/>
     <use xlink:href="#ArialMT-51" transform="translate(266.6875 0)"/>
     <use xlink:href="#ArialMT-44" transform="translate(322.296875 0)"/>
     <use xlink:href="#ArialMT-4f" transform="translate(377.90625 0)"/>
     <use xlink:href="#ArialMT-3" transform="translate(400.125 0)"/>
     <use xlink:href="#ArialMT-10" transform="translate(427.90625 0)"/>
     <use xlink:href="#ArialMT-3" transform="translate(461.203125 0)"/>
     <use xlink:href="#ArialMT-33" transform="translate(488.984375 0)"/>
     <use xlink:href="#ArialMT-36" transform="translate(555.6875 0)"/>
     <use xlink:href="#ArialMT-32" transform="translate(622.390625 0)"/>
    </g>
   </g>
  </g>
 </g>
 <defs>
  <clipPath id="p2476158ba9">
   <rect x="43.481719" y="27.696328" width="339.558281" height="371.52043"/>
  </clipPath>
 </defs>
</svg>
