<svg xmlns="http://www.w3.org/2000/svg" width="960" height="560" viewBox="0 0 960 560">
<rect width="100%" height="100%" fill="white"/>
<style>text{font-family:Arial,sans-serif;fill:#222}.axis{stroke:#222;stroke-width:1.2}.grid{stroke:#ddd;stroke-width:1}</style>
<text x="480" y="28" text-anchor="middle" font-size="20" font-weight="700">Objective error violin plot</text>
<line class="axis" x1="70" y1="490" x2="840" y2="490"/>
<line class="axis" x1="70" y1="45" x2="70" y2="490"/>
<polygon points="599.57,490.00 602.87,486.26 605.98,482.52 608.90,478.78 611.59,475.04 614.07,471.30 616.31,467.56 618.30,463.82 620.04,460.08 621.53,456.34 622.75,452.61 623.71,448.87 624.41,445.13 624.84,441.39 625.00,437.65 624.90,433.91 624.55,430.17 623.94,426.43 623.09,422.69 622.01,418.95 620.69,415.21 619.16,411.47 617.42,407.73 615.49,403.99 613.38,400.25 611.09,396.51 608.66,392.77 606.08,389.03 603.37,385.29 600.56,381.55 597.64,377.82 594.64,374.08 591.57,370.34 588.45,366.60 585.28,362.86 582.08,359.12 578.87,355.38 575.64,351.64 572.43,347.90 569.23,344.16 566.07,340.42 562.93,336.68 559.85,332.94 556.81,329.20 553.84,325.46 550.94,321.72 548.11,317.98 545.36,314.24 542.70,310.50 540.12,306.76 537.64,303.03 535.25,299.29 532.96,295.55 530.78,291.81 528.69,288.07 526.71,284.33 524.83,280.59 523.05,276.85 521.38,273.11 519.81,269.37 518.34,265.63 516.98,261.89 515.71,258.15 514.54,254.41 513.47,250.67 512.50,246.93 511.61,243.19 510.81,239.45 510.10,235.71 509.48,231.97 508.93,228.24 508.46,224.50 508.06,220.76 507.73,217.02 507.46,213.28 507.25,209.54 507.10,205.80 507.00,202.06 506.95,198.32 506.94,194.58 506.97,190.84 507.03,187.10 507.12,183.36 507.23,179.62 507.36,175.88 507.50,172.14 507.65,168.40 507.81,164.66 507.96,160.92 508.10,157.18 508.23,153.45 508.35,149.71 508.45,145.97 508.51,142.23 508.55,138.49 508.56,134.75 508.53,131.01 508.46,127.27 508.34,123.53 508.18,119.79 507.96,116.05 507.69,112.31 507.37,108.57 507.00,104.83 506.56,101.09 506.07,97.35 505.52,93.61 504.91,89.87 504.25,86.13 503.52,82.39 502.74,78.66 501.91,74.92 501.02,71.18 500.08,67.44 499.09,63.70 498.06,59.96 496.98,56.22 495.87,52.48 494.72,48.74 493.54,45.00 416.46,45.00 415.28,48.74 414.13,52.48 413.02,56.22 411.94,59.96 410.91,63.70 409.92,67.44 408.98,71.18 408.09,74.92 407.26,78.66 406.48,82.39 405.75,86.13 405.09,89.87 404.48,93.61 403.93,97.35 403.44,101.09 403.00,104.83 402.63,108.57 402.31,112.31 402.04,116.05 401.82,119.79 401.66,123.53 401.54,127.27 401.47,131.01 401.44,134.75 401.45,138.49 401.49,142.23 401.55,145.97 401.65,149.71 401.77,153.45 401.90,157.18 402.04,160.92 402.19,164.66 402.35,168.40 402.50,172.14 402.64,175.88 402.77,179.62 402.88,183.36 402.97,187.10 403.03,190.84 403.06,194.58 403.05,198.32 403.00,202.06 402.90,205.80 402.75,209.54 402.54,213.28 402.27,217.02 401.94,220.76 401.54,224.50 401.07,228.24 400.52,231.97 399.90,235.71 399.19,239.45 398.39,243.19 397.50,246.93 396.53,250.67 395.46,254.41 394.29,258.15 393.02,261.89 391.66,265.63 390.19,269.37 388.62,273.11 386.95,276.85 385.17,280.59 383.29,284.33 381.31,288.07 379.22,291.81 377.04,295.55 374.75,299.29 372.36,303.03 369.88,306.76 367.30,310.50 364.64,314.24 361.89,317.98 359.06,321.72 356.16,325.46 353.19,329.20 350.15,332.94 347.07,336.68 343.93,340.42 340.77,344.16 337.57,347.90 334.36,351.64 331.13,355.38 327.92,359.12 324.72,362.86 321.55,366.60 318.43,370.34 315.36,374.08 312.36,377.82 309.44,381.55 306.63,385.29 303.92,389.03 301.34,392.77 298.91,396.51 296.62,400.25 294.51,403.99 292.58,407.73 290.84,411.47 289.31,415.21 287.99,418.95 286.91,422.69 286.06,426.43 285.45,430.17 285.10,433.91 285.00,437.65 285.16,441.39 285.59,445.13 286.29,448.87 287.25,452.61 288.47,456.34 289.96,460.08 291.70,463.82 293.69,467.56 295.93,471.30 298.41,475.04 301.10,478.78 304.02,482.52 307.13,486.26 310.43,490.00" fill="#9ecae1" stroke="#2171b5" stroke-width="1.5" opacity="0.9"/>
<circle cx="438.50" cy="486.02" r="3.5" fill="#08306b" opacity="0.75"/>
<circle cx="444.00" cy="316.19" r="3.5" fill="#08306b" opacity="0.75"/>
<circle cx="449.50" cy="477.62" r="3.5" fill="#08306b" opacity="0.75"/>
<circle cx="455.00" cy="470.68" r="3.5" fill="#08306b" opacity="0.75"/>
<circle cx="460.50" cy="77.67" r="3.5" fill="#08306b" opacity="0.75"/>
<circle cx="466.00" cy="476.10" r="3.5" fill="#08306b" opacity="0.75"/>
<circle cx="471.50" cy="441.30" r="3.5" fill="#08306b" opacity="0.75"/>
<circle cx="438.50" cy="463.08" r="3.5" fill="#08306b" opacity="0.75"/>
<circle cx="444.00" cy="419.10" r="3.5" fill="#08306b" opacity="0.75"/>
<circle cx="449.50" cy="324.21" r="3.5" fill="#08306b" opacity="0.75"/>
<circle cx="455.00" cy="439.24" r="3.5" fill="#08306b" opacity="0.75"/>
<circle cx="460.50" cy="423.95" r="3.5" fill="#08306b" opacity="0.75"/>
<circle cx="466.00" cy="81.10" r="3.5" fill="#08306b" opacity="0.75"/>
<circle cx="471.50" cy="418.14" r="3.5" fill="#08306b" opacity="0.75"/>
<circle cx="438.50" cy="169.22" r="3.5" fill="#08306b" opacity="0.75"/>
<circle cx="444.00" cy="100.19" r="3.5" fill="#08306b" opacity="0.75"/>
<circle cx="449.50" cy="211.61" r="3.5" fill="#08306b" opacity="0.75"/>
<circle cx="455.00" cy="428.96" r="3.5" fill="#08306b" opacity="0.75"/>
<circle cx="460.50" cy="471.73" r="3.5" fill="#08306b" opacity="0.75"/>
<circle cx="466.00" cy="337.50" r="3.5" fill="#08306b" opacity="0.75"/>
<circle cx="471.50" cy="426.36" r="3.5" fill="#08306b" opacity="0.75"/>
<line x1="285.00" y1="355.24" x2="625.00" y2="355.24" stroke="#cb181d" stroke-width="2"/>
<line class="grid" x1="70" y1="490.00" x2="840" y2="490.00"/>
<text x="60" y="494.00" text-anchor="end" font-size="12">0</text>
<line class="grid" x1="70" y1="401.00" x2="840" y2="401.00"/>
<text x="60" y="405.00" text-anchor="end" font-size="12">5.6e-08</text>
<line class="grid" x1="70" y1="312.00" x2="840" y2="312.00"/>
<text x="60" y="316.00" text-anchor="end" font-size="12">1.12e-07</text>
<line class="grid" x1="70" y1="223.00" x2="840" y2="223.00"/>
<text x="60" y="227.00" text-anchor="end" font-size="12">1.68e-07</text>
<line class="grid" x1="70" y1="134.00" x2="840" y2="134.00"/>
<text x="60" y="138.00" text-anchor="end" font-size="12">2.24e-07</text>
<line class="grid" x1="70" y1="45.00" x2="840" y2="45.00"/>
<text x="60" y="49.00" text-anchor="end" font-size="12">2.8e-07</text>
<text x="455.00" y="518" text-anchor="middle" font-size="14">RCGA runs</text>
<text x="18" y="280" transform="rotate(-90 18 280)" text-anchor="middle" font-size="14">Objective error</text>
<text x="860" y="65" font-size="12">Mean: 8.484e-08</text>
<text x="860" y="85" font-size="12">Best: 2.508e-09</text>
<text x="860" y="105" font-size="12">Max: 2.596e-07</text>
</svg>
