<svg xmlns="http://www.w3.org/2000/svg" width="960" height="560" viewBox="0 0 960 560">
<rect width="100%" height="100%" fill="white"/>
<style>text{font-family:Arial,sans-serif;fill:#222}.axis{stroke:#222;stroke-width:1.2}.grid{stroke:#ddd;stroke-width:1}</style>
<text x="480" y="28" text-anchor="middle" font-size="20" font-weight="700">RCGA convergence</text>
<line class="axis" x1="70" y1="490" x2="930" y2="490"/>
<line class="axis" x1="70" y1="45" x2="70" y2="490"/>
<line class="grid" x1="70.00" y1="45" x2="70.00" y2="490"/>
<text x="70.00" y="514" text-anchor="middle" font-size="12">1</text>
<line class="grid" x1="242.00" y1="45" x2="242.00" y2="490"/>
<text x="242.00" y="514" text-anchor="middle" font-size="12">10</text>
<line class="grid" x1="414.00" y1="45" x2="414.00" y2="490"/>
<text x="414.00" y="514" text-anchor="middle" font-size="12">100</text>
<line class="grid" x1="586.00" y1="45" x2="586.00" y2="490"/>
<text x="586.00" y="514" text-anchor="middle" font-size="12">1000</text>
<line class="grid" x1="758.00" y1="45" x2="758.00" y2="490"/>
<text x="758.00" y="514" text-anchor="middle" font-size="12">10000</text>
<line class="grid" x1="930.00" y1="45" x2="930.00" y2="490"/>
<text x="930.00" y="514" text-anchor="middle" font-size="12">100000</text>
<line class="grid" x1="70" y1="490.00" x2="930" y2="490.00"/>
<text x="60" y="494.00" text-anchor="end" font-size="12">2.5e-09</text>
<line class="grid" x1="70" y1="401.00" x2="930" y2="401.00"/>
<text x="60" y="405.00" text-anchor="end" font-size="12">3.5e-07</text>
<line class="grid" x1="70" y1="312.00" x2="930" y2="312.00"/>
<text x="60" y="316.00" text-anchor="end" font-size="12">5.0e-05</text>
<line class="grid" x1="70" y1="223.00" x2="930" y2="223.00"/>
<text x="60" y="227.00" text-anchor="end" font-size="12">7.0e-03</text>
<line class="grid" x1="70" y1="134.00" x2="930" y2="134.00"/>
<text x="60" y="138.00" text-anchor="end" font-size="12">9.9e-01</text>
<line class="grid" x1="70" y1="45.00" x2="930" y2="45.00"/>
<text x="60" y="49.00" text-anchor="end" font-size="12">1.4e+02</text>
<polyline points="70.00,48.24 70.00,48.24 362.22,86.02 414.00,105.59 465.78,131.43 534.22,211.93 586.00,225.69 706.22,337.38 738.93,490.00" fill="none" stroke="#1f77b4" stroke-width="1.6" opacity="0.75"/>
<polyline points="70.00,46.29 70.00,47.05 362.22,92.11 414.00,118.18 465.78,158.10 534.22,227.17 586.00,253.92 706.22,322.02 758.00,366.93 878.22,421.79 930.00,422.08" fill="none" stroke="#ff7f0e" stroke-width="1.6" opacity="0.75"/>
<polyline points="70.00,49.57 70.00,49.57 362.22,90.29 414.00,95.95 465.78,106.12 534.22,237.30 586.00,264.61 706.22,354.79 758.00,426.47 803.54,469.61" fill="none" stroke="#2ca02c" stroke-width="1.6" opacity="0.75"/>
<polyline points="70.00,45.00 70.00,45.00 362.22,80.78 414.00,87.45 465.78,100.84 534.22,133.56 586.00,281.08 706.22,331.11 758.00,353.10 878.22,461.60 930.00,461.60" fill="none" stroke="#d62728" stroke-width="1.6" opacity="0.75"/>
<polyline points="70.00,48.30 70.00,50.71 362.22,87.30 414.00,108.23 465.78,120.77 534.22,214.02 586.00,243.46 706.22,322.09 758.00,337.98 878.22,403.55 930.00,406.54" fill="none" stroke="#9467bd" stroke-width="1.6" opacity="0.75"/>
<polyline points="70.00,45.83 70.00,47.32 362.22,79.65 414.00,97.45 465.78,131.23 534.22,243.43 586.00,256.73 706.22,284.14 758.00,349.53 878.22,386.61 911.64,467.52" fill="none" stroke="#8c564b" stroke-width="1.6" opacity="0.75"/>
<polyline points="70.00,48.48 70.00,48.52 362.22,104.05 414.00,114.00 465.78,164.55 534.22,238.34 586.00,278.16 706.22,323.33 758.00,323.33 878.22,429.09 930.00,444.97" fill="none" stroke="#e377c2" stroke-width="1.6" opacity="0.75"/>
<polyline points="70.00,46.57 70.00,49.94 362.22,84.95 414.00,103.85 465.78,108.80 534.22,177.63 586.00,234.89 706.22,307.03 758.00,371.96 878.22,455.63 930.00,455.63" fill="none" stroke="#7f7f7f" stroke-width="1.6" opacity="0.75"/>
<polyline points="70.00,48.63 70.00,49.19 362.22,96.57 414.00,101.43 465.78,113.02 534.22,133.81 586.00,277.62 706.22,326.39 758.00,339.28 878.22,429.31 930.00,438.21" fill="none" stroke="#bcbd22" stroke-width="1.6" opacity="0.75"/>
<polyline points="70.00,45.59 70.00,47.25 362.22,78.04 414.00,93.52 465.78,108.87 534.22,243.30 586.00,259.50 706.22,289.86 758.00,352.89 878.22,383.16 930.00,422.93" fill="none" stroke="#17becf" stroke-width="1.6" opacity="0.75"/>
<polyline points="70.00,47.83 70.00,48.68 362.22,73.62 414.00,82.62 465.78,98.06 534.22,133.78 586.00,249.94 706.22,335.92 758.00,366.02 878.22,433.06 930.00,444.22" fill="none" stroke="#1f77b4" stroke-width="1.6" opacity="0.75"/>
<polyline points="70.00,51.94 70.00,51.94 362.22,83.02 414.00,89.00 465.78,100.90 534.22,187.16 586.00,207.46 706.22,315.53 758.00,365.38 878.22,436.52 930.00,439.49" fill="none" stroke="#ff7f0e" stroke-width="1.6" opacity="0.75"/>
<polyline points="70.00,50.12 70.00,54.30 362.22,87.41 414.00,92.14 465.78,125.90 534.22,207.34 586.00,222.63 706.22,301.79 758.00,316.63 878.22,406.49 930.00,406.69" fill="none" stroke="#2ca02c" stroke-width="1.6" opacity="0.75"/>
<polyline points="70.00,46.01 70.00,50.27 362.22,78.21 414.00,96.01 465.78,119.79 534.22,306.76 586.00,306.76 706.22,314.10 758.00,358.81 878.22,424.92 930.00,437.97" fill="none" stroke="#d62728" stroke-width="1.6" opacity="0.75"/>
<polyline points="70.00,47.98 70.00,49.47 362.22,97.74 414.00,107.37 465.78,137.92 534.22,210.08 586.00,229.42 706.22,347.24 758.00,347.24 878.22,374.19 930.00,411.06" fill="none" stroke="#9467bd" stroke-width="1.6" opacity="0.75"/>
<polyline points="70.00,48.83 70.00,49.42 362.22,78.78 414.00,88.92 465.78,98.61 534.22,133.73 586.00,233.66 706.22,301.02 758.00,386.06 878.22,403.34 930.00,407.55" fill="none" stroke="#8c564b" stroke-width="1.6" opacity="0.75"/>
<polyline points="70.00,47.00 70.00,50.27 362.22,88.34 414.00,95.15 465.78,172.69 534.22,216.35 586.00,223.50 706.22,343.73 758.00,372.49 878.22,385.42 930.00,413.61" fill="none" stroke="#e377c2" stroke-width="1.6" opacity="0.75"/>
<polyline points="70.00,48.28 70.00,48.65 362.22,76.36 414.00,80.30 465.78,97.23 534.22,127.80 586.00,254.85 706.22,298.53 758.00,325.47 878.22,369.23 930.00,440.91" fill="none" stroke="#7f7f7f" stroke-width="1.6" opacity="0.75"/>
<polyline points="70.00,47.09 70.00,48.56 362.22,92.00 414.00,94.62 465.78,108.61 534.22,182.30 586.00,291.54 706.22,326.61 758.00,332.57 878.22,462.61 930.00,462.61" fill="none" stroke="#bcbd22" stroke-width="1.6" opacity="0.75"/>
<polyline points="70.00,52.21 70.00,54.88 362.22,92.05 414.00,119.80 465.78,130.58 534.22,195.87 586.00,277.61 706.22,317.20 758.00,320.09 878.22,419.42 930.00,424.44" fill="none" stroke="#17becf" stroke-width="1.6" opacity="0.75"/>
<polyline points="70.00,48.00 70.00,51.54 362.22,83.26 414.00,84.44 465.78,103.09 534.22,132.61 586.00,239.41 706.22,310.17 758.00,316.73 878.22,439.63 930.00,440.15" fill="none" stroke="#1f77b4" stroke-width="1.6" opacity="0.75"/>
<text x="500.00" y="540" text-anchor="middle" font-size="14">Generation (log scale)</text>
<text x="18" y="280" transform="rotate(-90 18 280)" text-anchor="middle" font-size="14">Best objective value (log scale)</text>
</svg>
